<?xml version="1.0" encoding="utf-8" standalone="no"?>
<!DOCTYPE svg PUBLIC "-//W3C//DTD SVG 1.1//EN"
  "http://www.w3.org/Graphics/SVG/1.1/DTD/svg11.dtd">
<!-- Created with matplotlib (http://matplotlib.org/) -->
<svg height="345pt" version="1.1" viewBox="0 0 460 345" width="460pt" xmlns="http://www.w3.org/2000/svg" xmlns:xlink="http://www.w3.org/1999/xlink">
 <defs>
  <style type="text/css">
*{stroke-linecap:butt;stroke-linejoin:round;}
  </style>
 </defs>
 <g id="figure_1">
  <g id="patch_1">
   <path d="M 0 345.6 
L 460.8 345.6 
L 460.8 0 
L 0 0 
z
" style="fill:#ffffff;"/>
  </g>
  <g id="axes_1">
   <g id="patch_2">
    <path d="M 57.6 307.584 
L 414.72 307.584 
L 414.72 41.472 
L 57.6 41.472 
z
" style="fill:#ffffff;"/>
   </g>
   <g id="matplotlib.axis_1">
    <g id="xtick_1">
     <g id="line2d_1">
      <defs>
       <path d="M 0 0 
L 0 3.5 
" id="mbbfc290ba9" style="stroke:#000000;stroke-width:0.8;"/>
      </defs>
      <g>
       <use style="stroke:#000000;stroke-width:0.8;" x="73.832727" xlink:href="#mbbfc290ba9" y="307.584"/>
      </g>
     </g>
     <g id="text_1">
      <!-- 0 -->
      <defs>
       <path d="M 31.78125 66.40625 
Q 24.171875 66.40625 20.328125 58.90625 
Q 16.5 51.421875 16.5 36.375 
Q 16.5 21.390625 20.328125 13.890625 
Q 24.171875 6.390625 31.78125 6.390625 
Q 39.453125 6.390625 43.28125 13.890625 
Q 47.125 21.390625 47.125 36.375 
Q 47.125 51.421875 43.28125 58.90625 
Q 39.453125 66.40625 31.78125 66.40625 
z
M 31.78125 74.21875 
Q 44.046875 74.21875 50.515625 64.515625 
Q 56.984375 54.828125 56.984375 36.375 
Q 56.984375 17.96875 50.515625 8.265625 
Q 44.046875 -1.421875 31.78125 -1.421875 
Q 19.53125 -1.421875 13.0625 8.265625 
Q 6.59375 17.96875 6.59375 36.375 
Q 6.59375 54.828125 13.0625 64.515625 
Q 19.53125 74.21875 31.78125 74.21875 
z
" id="DejaVuSans-30"/>
      </defs>
      <g transform="translate(70.651477 322.182437)scale(0.1 -0.1)">
       <use xlink:href="#DejaVuSans-30"/>
      </g>
     </g>
    </g>
    <g id="xtick_2">
     <g id="line2d_2">
      <g>
       <use style="stroke:#000000;stroke-width:0.8;" x="114.434847" xlink:href="#mbbfc290ba9" y="307.584"/>
      </g>
     </g>
     <g id="text_2">
      <!-- 250 -->
      <defs>
       <path d="M 19.1875 8.296875 
L 53.609375 8.296875 
L 53.609375 0 
L 7.328125 0 
L 7.328125 8.296875 
Q 12.9375 14.109375 22.625 23.890625 
Q 32.328125 33.6875 34.8125 36.53125 
Q 39.546875 41.84375 41.421875 45.53125 
Q 43.3125 49.21875 43.3125 52.78125 
Q 43.3125 58.59375 39.234375 62.25 
Q 35.15625 65.921875 28.609375 65.921875 
Q 23.96875 65.921875 18.8125 64.3125 
Q 13.671875 62.703125 7.8125 59.421875 
L 7.8125 69.390625 
Q 13.765625 71.78125 18.9375 73 
Q 24.125 74.21875 28.421875 74.21875 
Q 39.75 74.21875 46.484375 68.546875 
Q 53.21875 62.890625 53.21875 53.421875 
Q 53.21875 48.921875 51.53125 44.890625 
Q 49.859375 40.875 45.40625 35.40625 
Q 44.1875 33.984375 37.640625 27.21875 
Q 31.109375 20.453125 19.1875 8.296875 
z
" id="DejaVuSans-32"/>
       <path d="M 10.796875 72.90625 
L 49.515625 72.90625 
L 49.515625 64.59375 
L 19.828125 64.59375 
L 19.828125 46.734375 
Q 21.96875 47.46875 24.109375 47.828125 
Q 26.265625 48.1875 28.421875 48.1875 
Q 40.625 48.1875 47.75 41.5 
Q 54.890625 34.8125 54.890625 23.390625 
Q 54.890625 11.625 47.5625 5.09375 
Q 40.234375 -1.421875 26.90625 -1.421875 
Q 22.3125 -1.421875 17.546875 -0.640625 
Q 12.796875 0.140625 7.71875 1.703125 
L 7.71875 11.625 
Q 12.109375 9.234375 16.796875 8.0625 
Q 21.484375 6.890625 26.703125 6.890625 
Q 35.15625 6.890625 40.078125 11.328125 
Q 45.015625 15.765625 45.015625 23.390625 
Q 45.015625 31 40.078125 35.4375 
Q 35.15625 39.890625 26.703125 39.890625 
Q 22.75 39.890625 18.8125 39.015625 
Q 14.890625 38.140625 10.796875 36.28125 
z
" id="DejaVuSans-35"/>
      </defs>
      <g transform="translate(104.891097 322.182437)scale(0.1 -0.1)">
       <use xlink:href="#DejaVuSans-32"/>
       <use x="63.623047" xlink:href="#DejaVuSans-35"/>
       <use x="127.246094" xlink:href="#DejaVuSans-30"/>
      </g>
     </g>
    </g>
    <g id="xtick_3">
     <g id="line2d_3">
      <g>
       <use style="stroke:#000000;stroke-width:0.8;" x="155.036966" xlink:href="#mbbfc290ba9" y="307.584"/>
      </g>
     </g>
     <g id="text_3">
      <!-- 500 -->
      <g transform="translate(145.493216 322.182437)scale(0.1 -0.1)">
       <use xlink:href="#DejaVuSans-35"/>
       <use x="63.623047" xlink:href="#DejaVuSans-30"/>
       <use x="127.246094" xlink:href="#DejaVuSans-30"/>
      </g>
     </g>
    </g>
    <g id="xtick_4">
     <g id="line2d_4">
      <g>
       <use style="stroke:#000000;stroke-width:0.8;" x="195.639085" xlink:href="#mbbfc290ba9" y="307.584"/>
      </g>
     </g>
     <g id="text_4">
      <!-- 750 -->
      <defs>
       <path d="M 8.203125 72.90625 
L 55.078125 72.90625 
L 55.078125 68.703125 
L 28.609375 0 
L 18.3125 0 
L 43.21875 64.59375 
L 8.203125 64.59375 
z
" id="DejaVuSans-37"/>
      </defs>
      <g transform="translate(186.095335 322.182437)scale(0.1 -0.1)">
       <use xlink:href="#DejaVuSans-37"/>
       <use x="63.623047" xlink:href="#DejaVuSans-35"/>
       <use x="127.246094" xlink:href="#DejaVuSans-30"/>
      </g>
     </g>
    </g>
    <g id="xtick_5">
     <g id="line2d_5">
      <g>
       <use style="stroke:#000000;stroke-width:0.8;" x="236.241204" xlink:href="#mbbfc290ba9" y="307.584"/>
      </g>
     </g>
     <g id="text_5">
      <!-- 1000 -->
      <defs>
       <path d="M 12.40625 8.296875 
L 28.515625 8.296875 
L 28.515625 63.921875 
L 10.984375 60.40625 
L 10.984375 69.390625 
L 28.421875 72.90625 
L 38.28125 72.90625 
L 38.28125 8.296875 
L 54.390625 8.296875 
L 54.390625 0 
L 12.40625 0 
z
" id="DejaVuSans-31"/>
      </defs>
      <g transform="translate(223.516204 322.182437)scale(0.1 -0.1)">
       <use xlink:href="#DejaVuSans-31"/>
       <use x="63.623047" xlink:href="#DejaVuSans-30"/>
       <use x="127.246094" xlink:href="#DejaVuSans-30"/>
       <use x="190.869141" xlink:href="#DejaVuSans-30"/>
      </g>
     </g>
    </g>
    <g id="xtick_6">
     <g id="line2d_6">
      <g>
       <use style="stroke:#000000;stroke-width:0.8;" x="276.843323" xlink:href="#mbbfc290ba9" y="307.584"/>
      </g>
     </g>
     <g id="text_6">
      <!-- 1250 -->
      <g transform="translate(264.118323 322.182437)scale(0.1 -0.1)">
       <use xlink:href="#DejaVuSans-31"/>
       <use x="63.623047" xlink:href="#DejaVuSans-32"/>
       <use x="127.246094" xlink:href="#DejaVuSans-35"/>
       <use x="190.869141" xlink:href="#DejaVuSans-30"/>
      </g>
     </g>
    </g>
    <g id="xtick_7">
     <g id="line2d_7">
      <g>
       <use style="stroke:#000000;stroke-width:0.8;" x="317.445443" xlink:href="#mbbfc290ba9" y="307.584"/>
      </g>
     </g>
     <g id="text_7">
      <!-- 1500 -->
      <g transform="translate(304.720443 322.182437)scale(0.1 -0.1)">
       <use xlink:href="#DejaVuSans-31"/>
       <use x="63.623047" xlink:href="#DejaVuSans-35"/>
       <use x="127.246094" xlink:href="#DejaVuSans-30"/>
       <use x="190.869141" xlink:href="#DejaVuSans-30"/>
      </g>
     </g>
    </g>
    <g id="xtick_8">
     <g id="line2d_8">
      <g>
       <use style="stroke:#000000;stroke-width:0.8;" x="358.047562" xlink:href="#mbbfc290ba9" y="307.584"/>
      </g>
     </g>
     <g id="text_8">
      <!-- 1750 -->
      <g transform="translate(345.322562 322.182437)scale(0.1 -0.1)">
       <use xlink:href="#DejaVuSans-31"/>
       <use x="63.623047" xlink:href="#DejaVuSans-37"/>
       <use x="127.246094" xlink:href="#DejaVuSans-35"/>
       <use x="190.869141" xlink:href="#DejaVuSans-30"/>
      </g>
     </g>
    </g>
    <g id="xtick_9">
     <g id="line2d_9">
      <g>
       <use style="stroke:#000000;stroke-width:0.8;" x="398.649681" xlink:href="#mbbfc290ba9" y="307.584"/>
      </g>
     </g>
     <g id="text_9">
      <!-- 2000 -->
      <g transform="translate(385.924681 322.182437)scale(0.1 -0.1)">
       <use xlink:href="#DejaVuSans-32"/>
       <use x="63.623047" xlink:href="#DejaVuSans-30"/>
       <use x="127.246094" xlink:href="#DejaVuSans-30"/>
       <use x="190.869141" xlink:href="#DejaVuSans-30"/>
      </g>
     </g>
    </g>
    <g id="text_10">
     <!-- epoch -->
     <defs>
      <path d="M 56.203125 29.59375 
L 56.203125 25.203125 
L 14.890625 25.203125 
Q 15.484375 15.921875 20.484375 11.0625 
Q 25.484375 6.203125 34.421875 6.203125 
Q 39.59375 6.203125 44.453125 7.46875 
Q 49.3125 8.734375 54.109375 11.28125 
L 54.109375 2.78125 
Q 49.265625 0.734375 44.1875 -0.34375 
Q 39.109375 -1.421875 33.890625 -1.421875 
Q 20.796875 -1.421875 13.15625 6.1875 
Q 5.515625 13.8125 5.515625 26.8125 
Q 5.515625 40.234375 12.765625 48.109375 
Q 20.015625 56 32.328125 56 
Q 43.359375 56 49.78125 48.890625 
Q 56.203125 41.796875 56.203125 29.59375 
z
M 47.21875 32.234375 
Q 47.125 39.59375 43.09375 43.984375 
Q 39.0625 48.390625 32.421875 48.390625 
Q 24.90625 48.390625 20.390625 44.140625 
Q 15.875 39.890625 15.1875 32.171875 
z
" id="DejaVuSans-65"/>
      <path d="M 18.109375 8.203125 
L 18.109375 -20.796875 
L 9.078125 -20.796875 
L 9.078125 54.6875 
L 18.109375 54.6875 
L 18.109375 46.390625 
Q 20.953125 51.265625 25.265625 53.625 
Q 29.59375 56 35.59375 56 
Q 45.5625 56 51.78125 48.09375 
Q 58.015625 40.1875 58.015625 27.296875 
Q 58.015625 14.40625 51.78125 6.484375 
Q 45.5625 -1.421875 35.59375 -1.421875 
Q 29.59375 -1.421875 25.265625 0.953125 
Q 20.953125 3.328125 18.109375 8.203125 
z
M 48.6875 27.296875 
Q 48.6875 37.203125 44.609375 42.84375 
Q 40.53125 48.484375 33.40625 48.484375 
Q 26.265625 48.484375 22.1875 42.84375 
Q 18.109375 37.203125 18.109375 27.296875 
Q 18.109375 17.390625 22.1875 11.75 
Q 26.265625 6.109375 33.40625 6.109375 
Q 40.53125 6.109375 44.609375 11.75 
Q 48.6875 17.390625 48.6875 27.296875 
z
" id="DejaVuSans-70"/>
      <path d="M 30.609375 48.390625 
Q 23.390625 48.390625 19.1875 42.75 
Q 14.984375 37.109375 14.984375 27.296875 
Q 14.984375 17.484375 19.15625 11.84375 
Q 23.34375 6.203125 30.609375 6.203125 
Q 37.796875 6.203125 41.984375 11.859375 
Q 46.1875 17.53125 46.1875 27.296875 
Q 46.1875 37.015625 41.984375 42.703125 
Q 37.796875 48.390625 30.609375 48.390625 
z
M 30.609375 56 
Q 42.328125 56 49.015625 48.375 
Q 55.71875 40.765625 55.71875 27.296875 
Q 55.71875 13.875 49.015625 6.21875 
Q 42.328125 -1.421875 30.609375 -1.421875 
Q 18.84375 -1.421875 12.171875 6.21875 
Q 5.515625 13.875 5.515625 27.296875 
Q 5.515625 40.765625 12.171875 48.375 
Q 18.84375 56 30.609375 56 
z
" id="DejaVuSans-6f"/>
      <path d="M 48.78125 52.59375 
L 48.78125 44.1875 
Q 44.96875 46.296875 41.140625 47.34375 
Q 37.3125 48.390625 33.40625 48.390625 
Q 24.65625 48.390625 19.8125 42.84375 
Q 14.984375 37.3125 14.984375 27.296875 
Q 14.984375 17.28125 19.8125 11.734375 
Q 24.65625 6.203125 33.40625 6.203125 
Q 37.3125 6.203125 41.140625 7.25 
Q 44.96875 8.296875 48.78125 10.40625 
L 48.78125 2.09375 
Q 45.015625 0.34375 40.984375 -0.53125 
Q 36.96875 -1.421875 32.421875 -1.421875 
Q 20.0625 -1.421875 12.78125 6.34375 
Q 5.515625 14.109375 5.515625 27.296875 
Q 5.515625 40.671875 12.859375 48.328125 
Q 20.21875 56 33.015625 56 
Q 37.15625 56 41.109375 55.140625 
Q 45.0625 54.296875 48.78125 52.59375 
z
" id="DejaVuSans-63"/>
      <path d="M 54.890625 33.015625 
L 54.890625 0 
L 45.90625 0 
L 45.90625 32.71875 
Q 45.90625 40.484375 42.875 44.328125 
Q 39.84375 48.1875 33.796875 48.1875 
Q 26.515625 48.1875 22.3125 43.546875 
Q 18.109375 38.921875 18.109375 30.90625 
L 18.109375 0 
L 9.078125 0 
L 9.078125 75.984375 
L 18.109375 75.984375 
L 18.109375 46.1875 
Q 21.34375 51.125 25.703125 53.5625 
Q 30.078125 56 35.796875 56 
Q 45.21875 56 50.046875 50.171875 
Q 54.890625 44.34375 54.890625 33.015625 
z
" id="DejaVuSans-68"/>
     </defs>
     <g transform="translate(220.931875 335.860562)scale(0.1 -0.1)">
      <use xlink:href="#DejaVuSans-65"/>
      <use x="61.523438" xlink:href="#DejaVuSans-70"/>
      <use x="125" xlink:href="#DejaVuSans-6f"/>
      <use x="186.181641" xlink:href="#DejaVuSans-63"/>
      <use x="241.162109" xlink:href="#DejaVuSans-68"/>
     </g>
    </g>
   </g>
   <g id="matplotlib.axis_2">
    <g id="ytick_1">
     <g id="line2d_10">
      <defs>
       <path d="M 0 0 
L -3.5 0 
" id="m26320282ef" style="stroke:#000000;stroke-width:0.8;"/>
      </defs>
      <g>
       <use style="stroke:#000000;stroke-width:0.8;" x="57.6" xlink:href="#m26320282ef" y="303.967948"/>
      </g>
     </g>
     <g id="text_11">
      <!-- 0.5 -->
      <defs>
       <path d="M 10.6875 12.40625 
L 21 12.40625 
L 21 0 
L 10.6875 0 
z
" id="DejaVuSans-2e"/>
      </defs>
      <g transform="translate(34.696875 307.767167)scale(0.1 -0.1)">
       <use xlink:href="#DejaVuSans-30"/>
       <use x="63.623047" xlink:href="#DejaVuSans-2e"/>
       <use x="95.410156" xlink:href="#DejaVuSans-35"/>
      </g>
     </g>
    </g>
    <g id="ytick_2">
     <g id="line2d_11">
      <g>
       <use style="stroke:#000000;stroke-width:0.8;" x="57.6" xlink:href="#m26320282ef" y="257.146276"/>
      </g>
     </g>
     <g id="text_12">
      <!-- 1.0 -->
      <g transform="translate(34.696875 260.945494)scale(0.1 -0.1)">
       <use xlink:href="#DejaVuSans-31"/>
       <use x="63.623047" xlink:href="#DejaVuSans-2e"/>
       <use x="95.410156" xlink:href="#DejaVuSans-30"/>
      </g>
     </g>
    </g>
    <g id="ytick_3">
     <g id="line2d_12">
      <g>
       <use style="stroke:#000000;stroke-width:0.8;" x="57.6" xlink:href="#m26320282ef" y="210.324603"/>
      </g>
     </g>
     <g id="text_13">
      <!-- 1.5 -->
      <g transform="translate(34.696875 214.123822)scale(0.1 -0.1)">
       <use xlink:href="#DejaVuSans-31"/>
       <use x="63.623047" xlink:href="#DejaVuSans-2e"/>
       <use x="95.410156" xlink:href="#DejaVuSans-35"/>
      </g>
     </g>
    </g>
    <g id="ytick_4">
     <g id="line2d_13">
      <g>
       <use style="stroke:#000000;stroke-width:0.8;" x="57.6" xlink:href="#m26320282ef" y="163.502931"/>
      </g>
     </g>
     <g id="text_14">
      <!-- 2.0 -->
      <g transform="translate(34.696875 167.302149)scale(0.1 -0.1)">
       <use xlink:href="#DejaVuSans-32"/>
       <use x="63.623047" xlink:href="#DejaVuSans-2e"/>
       <use x="95.410156" xlink:href="#DejaVuSans-30"/>
      </g>
     </g>
    </g>
    <g id="ytick_5">
     <g id="line2d_14">
      <g>
       <use style="stroke:#000000;stroke-width:0.8;" x="57.6" xlink:href="#m26320282ef" y="116.681258"/>
      </g>
     </g>
     <g id="text_15">
      <!-- 2.5 -->
      <g transform="translate(34.696875 120.480477)scale(0.1 -0.1)">
       <use xlink:href="#DejaVuSans-32"/>
       <use x="63.623047" xlink:href="#DejaVuSans-2e"/>
       <use x="95.410156" xlink:href="#DejaVuSans-35"/>
      </g>
     </g>
    </g>
    <g id="ytick_6">
     <g id="line2d_15">
      <g>
       <use style="stroke:#000000;stroke-width:0.8;" x="57.6" xlink:href="#m26320282ef" y="69.859586"/>
      </g>
     </g>
     <g id="text_16">
      <!-- 3.0 -->
      <defs>
       <path d="M 40.578125 39.3125 
Q 47.65625 37.796875 51.625 33 
Q 55.609375 28.21875 55.609375 21.1875 
Q 55.609375 10.40625 48.1875 4.484375 
Q 40.765625 -1.421875 27.09375 -1.421875 
Q 22.515625 -1.421875 17.65625 -0.515625 
Q 12.796875 0.390625 7.625 2.203125 
L 7.625 11.71875 
Q 11.71875 9.328125 16.59375 8.109375 
Q 21.484375 6.890625 26.8125 6.890625 
Q 36.078125 6.890625 40.9375 10.546875 
Q 45.796875 14.203125 45.796875 21.1875 
Q 45.796875 27.640625 41.28125 31.265625 
Q 36.765625 34.90625 28.71875 34.90625 
L 20.21875 34.90625 
L 20.21875 43.015625 
L 29.109375 43.015625 
Q 36.375 43.015625 40.234375 45.921875 
Q 44.09375 48.828125 44.09375 54.296875 
Q 44.09375 59.90625 40.109375 62.90625 
Q 36.140625 65.921875 28.71875 65.921875 
Q 24.65625 65.921875 20.015625 65.03125 
Q 15.375 64.15625 9.8125 62.3125 
L 9.8125 71.09375 
Q 15.4375 72.65625 20.34375 73.4375 
Q 25.25 74.21875 29.59375 74.21875 
Q 40.828125 74.21875 47.359375 69.109375 
Q 53.90625 64.015625 53.90625 55.328125 
Q 53.90625 49.265625 50.4375 45.09375 
Q 46.96875 40.921875 40.578125 39.3125 
z
" id="DejaVuSans-33"/>
      </defs>
      <g transform="translate(34.696875 73.658805)scale(0.1 -0.1)">
       <use xlink:href="#DejaVuSans-33"/>
       <use x="63.623047" xlink:href="#DejaVuSans-2e"/>
       <use x="95.410156" xlink:href="#DejaVuSans-30"/>
      </g>
     </g>
    </g>
    <g id="text_17">
     <!-- loss -->
     <defs>
      <path d="M 9.421875 75.984375 
L 18.40625 75.984375 
L 18.40625 0 
L 9.421875 0 
z
" id="DejaVuSans-6c"/>
      <path d="M 44.28125 53.078125 
L 44.28125 44.578125 
Q 40.484375 46.53125 36.375 47.5 
Q 32.28125 48.484375 27.875 48.484375 
Q 21.1875 48.484375 17.84375 46.4375 
Q 14.5 44.390625 14.5 40.28125 
Q 14.5 37.15625 16.890625 35.375 
Q 19.28125 33.59375 26.515625 31.984375 
L 29.59375 31.296875 
Q 39.15625 29.25 43.1875 25.515625 
Q 47.21875 21.78125 47.21875 15.09375 
Q 47.21875 7.46875 41.1875 3.015625 
Q 35.15625 -1.421875 24.609375 -1.421875 
Q 20.21875 -1.421875 15.453125 -0.5625 
Q 10.6875 0.296875 5.421875 2 
L 5.421875 11.28125 
Q 10.40625 8.6875 15.234375 7.390625 
Q 20.0625 6.109375 24.8125 6.109375 
Q 31.15625 6.109375 34.5625 8.28125 
Q 37.984375 10.453125 37.984375 14.40625 
Q 37.984375 18.0625 35.515625 20.015625 
Q 33.0625 21.96875 24.703125 23.78125 
L 21.578125 24.515625 
Q 13.234375 26.265625 9.515625 29.90625 
Q 5.8125 33.546875 5.8125 39.890625 
Q 5.8125 47.609375 11.28125 51.796875 
Q 16.75 56 26.8125 56 
Q 31.78125 56 36.171875 55.265625 
Q 40.578125 54.546875 44.28125 53.078125 
z
" id="DejaVuSans-73"/>
     </defs>
     <g transform="translate(28.617188 184.185812)rotate(-90)scale(0.1 -0.1)">
      <use xlink:href="#DejaVuSans-6c"/>
      <use x="27.783203" xlink:href="#DejaVuSans-6f"/>
      <use x="88.964844" xlink:href="#DejaVuSans-73"/>
      <use x="141.064453" xlink:href="#DejaVuSans-73"/>
     </g>
    </g>
   </g>
   <g id="line2d_16">
    <path clip-path="url(#pae8ed876c9)" d="M 73.832727 184.761245 
L 73.995136 247.823289 
L 74.319953 263.486433 
L 74.64477 270.102459 
L 75.131995 275.73281 
L 75.619221 279.414808 
L 76.431263 283.376343 
L 77.405714 286.509011 
L 79.029799 289.696031 
L 80.004249 291.153886 
L 80.329066 291.516696 
L 81.141109 292.392372 
L 82.440377 293.646356 
L 82.927602 294.059729 
L 83.09001 294.034637 
L 83.577236 294.486018 
L 83.739644 294.523585 
L 84.389278 295.058681 
L 85.038912 295.488 
L 85.201321 53.568 
L 85.363729 120.758976 
L 86.175772 205.178258 
L 86.662997 245.155731 
L 87.150222 262.067704 
L 87.637448 270.024199 
L 88.124673 275.091285 
L 88.774307 279.562237 
L 89.58635 283.272565 
L 90.235983 285.474644 
L 91.048026 287.58106 
L 92.184885 289.801995 
L 93.159336 291.058932 
L 93.321745 289.971837 
L 93.484153 291.746176 
L 93.646561 291.880776 
L 93.80897 285.494474 
L 93.971378 200.82257 
L 94.296195 273.922334 
L 94.458604 265.147767 
L 94.621012 125.097546 
L 94.783421 149.274722 
L 94.945829 145.198728 
L 95.270646 145.456104 
L 95.595463 141.670033 
L 95.757872 146.214778 
L 95.92028 143.066041 
L 96.082689 149.462659 
L 96.245097 151.191627 
L 96.894731 222.344474 
L 97.381956 124.818981 
L 97.544365 119.434674 
L 97.706773 129.601108 
L 98.03159 132.071749 
L 98.681224 136.669312 
L 98.843633 134.863873 
L 99.16845 159.125338 
L 99.655675 194.718205 
L 99.818084 210.511605 
L 100.142901 150.198534 
L 100.467717 200.496205 
L 100.954943 240.152673 
L 101.442168 258.211128 
L 101.929394 268.817669 
L 102.091802 260.85356 
L 102.254211 268.991862 
L 102.579028 272.453602 
L 103.228662 276.741662 
L 103.878296 281.501935 
L 104.527929 284.841195 
L 105.339972 287.618353 
L 106.314423 290.06884 
L 107.451282 292.052388 
L 108.263324 293.203709 
L 108.425733 263.253364 
L 108.75055 288.348996 
L 109.075367 292.793247 
L 109.237775 293.47821 
L 109.400184 292.504372 
L 109.562592 284.95864 
L 109.725001 290.761778 
L 110.049818 293.325062 
L 110.374635 294.264572 
L 110.537043 262.951334 
L 110.699452 260.362857 
L 111.186677 281.958983 
L 111.511494 291.110823 
L 111.836311 293.552058 
L 112.161128 294.370065 
L 112.648353 294.701862 
L 112.810762 169.519444 
L 112.97317 134.472562 
L 113.135579 148.954658 
L 113.460396 151.573893 
L 113.622804 147.699626 
L 113.785213 132.010431 
L 113.947621 136.774507 
L 114.11003 126.10504 
L 114.272438 138.987052 
L 114.434847 140.448365 
L 115.246889 142.511745 
L 115.409297 136.171766 
L 115.571706 140.335441 
L 115.734114 141.059335 
L 115.896523 142.365544 
L 116.058931 135.606198 
L 116.383748 117.006789 
L 116.870974 116.826028 
L 117.033382 117.698562 
L 117.195791 95.21795 
L 117.358199 104.587636 
L 117.520608 104.078555 
L 117.683016 107.025684 
L 117.845425 99.747413 
L 118.007833 84.533236 
L 118.170241 90.691312 
L 118.33265 78.72859 
L 118.657467 83.47268 
L 118.819875 84.500398 
L 118.982284 81.511721 
L 119.307101 82.832198 
L 119.631918 83.208225 
L 119.794326 82.488643 
L 119.956735 83.014618 
L 120.281552 85.544306 
L 120.606369 98.816574 
L 120.768777 117.120915 
L 121.256003 191.536128 
L 121.58082 217.268406 
L 122.068045 235.709385 
L 122.55527 245.254313 
L 123.042496 251.858643 
L 123.69213 257.490734 
L 124.179355 260.569964 
L 124.341764 257.942418 
L 124.504172 253.10635 
L 124.828989 256.164399 
L 125.316214 258.657908 
L 126.777891 264.736194 
L 127.265116 266.143609 
L 127.427525 266.359048 
L 127.752342 265.292385 
L 128.077159 266.261071 
L 128.239567 265.911328 
L 128.401976 255.168808 
L 128.726792 261.851594 
L 129.051609 264.418512 
L 129.538835 266.32464 
L 129.701243 266.341339 
L 129.863652 260.765101 
L 130.02606 247.338457 
L 130.350877 255.475898 
L 130.675694 258.201329 
L 132.299779 264.929494 
L 132.624596 265.992014 
L 132.787004 197.181239 
L 132.949413 198.511155 
L 133.111821 244.185867 
L 133.436638 261.61056 
L 133.761455 265.157558 
L 134.086272 266.773166 
L 134.573498 267.631981 
L 135.060723 268.994826 
L 135.223132 269.029071 
L 135.547949 269.993639 
L 135.710357 269.887832 
L 135.872765 165.640464 
L 136.035174 132.811571 
L 136.197582 134.842705 
L 136.359991 134.536607 
L 136.684808 162.16462 
L 137.334442 230.717405 
L 137.821667 258.31231 
L 138.146484 265.553016 
L 138.471301 268.688529 
L 138.958527 271.113342 
L 140.095386 274.244098 
L 140.420203 275.038963 
L 140.582611 275.255841 
L 141.069837 276.344189 
L 141.881879 277.770827 
L 142.85633 279.267523 
L 143.018738 279.049615 
L 143.181147 279.994201 
L 143.505964 280.020613 
L 144.318006 280.610436 
L 144.642823 275.432489 
L 144.96764 242.832896 
L 145.130049 251.213659 
L 145.292457 249.150201 
L 146.1045 271.962163 
L 146.429316 276.646078 
L 146.754133 279.155008 
L 147.07895 280.343472 
L 147.403767 280.865906 
L 147.890993 281.317366 
L 148.053401 281.119977 
L 148.21581 281.795032 
L 148.378218 281.800457 
L 148.703035 282.05487 
L 149.190261 282.590123 
L 150.814345 283.829827 
L 150.976754 283.923818 
L 151.139162 284.262921 
L 151.301571 284.250983 
L 151.463979 282.536541 
L 151.626388 283.894079 
L 151.788796 284.290374 
L 151.951205 247.613412 
L 152.276022 105.009672 
L 152.43843 93.639466 
L 152.763247 144.166969 
L 152.925656 106.551727 
L 153.088064 115.511794 
L 153.575289 258.638939 
L 153.900106 276.25016 
L 154.062515 279.725347 
L 154.224923 91.494688 
L 154.387332 90.866647 
L 154.712149 99.054123 
L 154.874557 92.231594 
L 155.036966 117.87494 
L 155.199374 110.832859 
L 155.361783 111.642587 
L 155.524191 104.801205 
L 155.6866 113.572424 
L 156.823459 233.441433 
L 157.148276 247.241673 
L 157.635501 256.841568 
L 158.122727 262.273625 
L 158.772361 266.76496 
L 159.421995 269.860452 
L 159.90922 271.663718 
L 160.071629 270.172531 
L 160.396445 272.908387 
L 160.558854 273.207209 
L 160.883671 274.048493 
L 163.319798 278.6563 
L 164.13184 279.81655 
L 165.431108 281.410287 
L 166.243151 282.183246 
L 166.567968 282.557849 
L 168.354461 284.205842 
L 168.679278 284.353211 
L 169.166503 284.735033 
L 169.328912 284.83459 
L 169.49132 279.304407 
L 169.653729 279.289465 
L 169.816137 280.651521 
L 169.978546 279.222458 
L 170.140954 279.524411 
L 170.62818 281.534144 
L 171.765039 284.824354 
L 172.252264 285.544258 
L 173.226715 285.882436 
L 173.389124 280.875022 
L 173.713941 284.105772 
L 174.038758 284.871194 
L 174.363575 285.3304 
L 175.175617 285.948563 
L 176.312476 286.316119 
L 176.637293 286.245653 
L 176.799702 286.552495 
L 176.96211 286.506849 
L 177.124519 286.605233 
L 177.286927 286.560518 
L 178.261378 287.010994 
L 178.423786 283.423857 
L 178.586195 283.895186 
L 178.748603 284.930344 
L 178.911012 284.955957 
L 179.235829 286.19095 
L 179.398237 286.379026 
L 179.560646 285.986809 
L 179.723054 282.286917 
L 179.885463 283.807673 
L 180.047871 262.710693 
L 180.21028 259.343238 
L 180.372688 263.905237 
L 180.697505 265.671148 
L 181.184731 267.08834 
L 181.347139 264.558642 
L 181.509548 264.160691 
L 182.159181 266.187011 
L 182.32159 266.150063 
L 182.483998 237.904206 
L 182.646407 238.848001 
L 183.458449 262.61849 
L 184.108083 277.270262 
L 184.270492 274.200151 
L 184.4329 189.081908 
L 184.595309 167.809624 
L 184.920126 164.844461 
L 185.082534 160.50475 
L 185.244942 159.271166 
L 185.732168 168.8152 
L 186.381802 174.21793 
L 186.54421 173.820806 
L 186.706619 176.688843 
L 186.869027 175.17467 
L 187.031436 164.729563 
L 187.518661 180.896463 
L 188.005887 197.670181 
L 188.330704 213.386361 
L 188.65552 203.281671 
L 189.142746 225.085134 
L 189.305154 229.44827 
L 189.467563 230.011294 
L 189.629971 231.557739 
L 190.117197 241.952797 
L 190.279605 203.695929 
L 190.442014 195.830297 
L 190.929239 214.514923 
L 191.741282 239.009833 
L 192.553324 263.966603 
L 192.878141 129.524854 
L 193.040549 142.60238 
L 193.365366 144.326197 
L 193.527775 141.527998 
L 193.690183 133.339166 
L 193.852592 133.178105 
L 194.015 132.602402 
L 194.177409 135.305133 
L 194.339817 130.316297 
L 194.664634 127.178926 
L 194.827043 129.374196 
L 194.989451 127.883437 
L 195.15186 128.650844 
L 195.314268 130.339206 
L 195.476677 127.212849 
L 195.639085 128.653778 
L 195.963902 134.632052 
L 196.12631 132.353572 
L 196.288719 124.468752 
L 196.613536 136.094113 
L 197.912804 244.230882 
L 198.400029 254.074546 
L 198.887255 259.597006 
L 199.536888 264.230531 
L 200.186522 267.607314 
L 200.998565 270.575292 
L 202.135424 273.856381 
L 203.272283 276.42142 
L 205.383594 279.774143 
L 207.819721 282.428316 
L 208.306946 282.82165 
L 208.469355 280.943595 
L 208.794172 283.524917 
L 208.95658 283.311346 
L 209.281397 255.764908 
L 209.443806 276.889343 
L 209.768622 282.309691 
L 210.093439 283.219366 
L 210.255848 261.499303 
L 210.580665 280.931322 
L 210.905482 283.011826 
L 211.230299 283.413878 
L 211.392707 283.416852 
L 212.20475 284.047461 
L 212.529567 283.661006 
L 212.691975 284.364445 
L 212.854384 284.558325 
L 213.016792 284.522208 
L 213.504017 284.795591 
L 213.828834 284.868287 
L 213.991243 283.873395 
L 214.153651 284.954256 
L 214.31606 285.260634 
L 215.128102 285.502971 
L 215.290511 285.262175 
L 215.615328 285.375 
L 215.940145 285.757395 
L 216.102553 285.776453 
L 216.264962 286.069548 
L 216.42737 286.059718 
L 216.752187 275.090802 
L 217.077004 281.5007 
L 217.239412 282.918609 
L 217.401821 282.839891 
L 217.564229 280.362638 
L 218.051455 283.135387 
L 218.213863 283.15806 
L 218.376272 192.523696 
L 218.53868 168.520539 
L 218.863497 179.354652 
L 219.025906 180.866617 
L 219.188314 180.529353 
L 219.350723 181.095718 
L 219.513131 180.533697 
L 219.67554 181.583641 
L 220.162765 178.780353 
L 220.325173 178.398398 
L 220.812399 175.339398 
L 220.974807 174.454231 
L 221.137216 174.666385 
L 221.299624 174.071544 
L 221.462033 171.963114 
L 221.624441 171.795049 
L 221.78685 170.428102 
L 222.274075 172.168029 
L 222.923709 166.826706 
L 223.086118 165.579624 
L 223.248526 160.390654 
L 223.410935 160.243818 
L 223.89816 153.561114 
L 224.060568 152.10861 
L 224.222977 152.828862 
L 224.385385 152.091973 
L 224.547794 152.645265 
L 224.872611 148.653496 
L 225.035019 148.896557 
L 225.359836 148.053004 
L 225.522245 148.49309 
L 225.684653 147.141958 
L 225.847062 147.52541 
L 226.00947 147.293603 
L 226.334287 149.766255 
L 226.496696 149.699323 
L 226.659104 149.242993 
L 226.821513 147.91689 
L 226.983921 148.251465 
L 227.308738 147.372282 
L 227.471146 147.909663 
L 227.633555 148.854589 
L 227.795963 147.924022 
L 227.958372 148.04756 
L 228.12078 147.813252 
L 228.932823 151.609646 
L 229.095231 151.601189 
L 229.25764 151.803225 
L 229.744865 148.450802 
L 229.907274 148.961021 
L 230.232091 151.008653 
L 230.394499 150.984545 
L 230.719316 148.577282 
L 230.881724 144.939239 
L 231.044133 138.1501 
L 231.206541 139.251878 
L 231.36895 143.717877 
L 231.856175 145.358606 
L 232.018584 144.579636 
L 232.180992 130.162789 
L 232.343401 130.555177 
L 232.505809 130.619328 
L 232.668218 129.167933 
L 232.830626 131.313675 
L 233.317852 132.800159 
L 233.642669 132.267698 
L 233.805077 132.708182 
L 233.967486 134.526054 
L 234.129894 138.451008 
L 234.454711 137.013524 
L 234.779528 136.356101 
L 234.941936 134.512455 
L 235.266753 147.806021 
L 235.59157 143.03628 
L 235.753979 145.719092 
L 235.916387 144.992586 
L 236.241204 136.348407 
L 236.403613 135.39231 
L 236.566021 132.418563 
L 236.72843 131.972184 
L 236.890838 132.530272 
L 237.053247 132.669721 
L 237.215655 133.390212 
L 237.378064 134.965666 
L 237.540472 142.330317 
L 237.702881 143.525051 
L 237.865289 146.057988 
L 238.027697 144.243021 
L 238.514923 146.982069 
L 238.677331 146.328833 
L 238.83974 136.83555 
L 239.164557 146.655279 
L 239.326965 147.692422 
L 239.489374 146.492108 
L 239.651782 146.449272 
L 239.814191 143.48297 
L 239.976599 145.129012 
L 240.139008 133.642923 
L 240.301416 139.63217 
L 240.463825 138.097568 
L 240.626233 138.135983 
L 240.95105 140.980126 
L 241.113459 137.804694 
L 241.275867 139.166608 
L 241.438276 138.930095 
L 241.600684 137.083184 
L 241.763092 137.196787 
L 242.087909 138.144701 
L 242.250318 139.731003 
L 242.412726 139.687001 
L 242.575135 140.529629 
L 242.899952 139.518738 
L 243.06236 137.486081 
L 243.224769 139.118929 
L 243.387177 138.502433 
L 243.549586 138.703758 
L 244.19922 142.16161 
L 244.361628 142.016966 
L 244.686445 137.739795 
L 245.011262 138.651043 
L 245.17367 137.565452 
L 245.336079 138.011596 
L 245.498487 138.807205 
L 245.660896 137.560415 
L 245.823304 137.418025 
L 245.985713 134.972783 
L 246.148121 129.509825 
L 246.31053 130.012698 
L 246.472938 131.771508 
L 246.635347 129.936003 
L 246.797755 130.383714 
L 246.960164 132.468624 
L 247.122572 130.64473 
L 247.772206 138.326976 
L 247.934615 138.763536 
L 248.097023 137.03968 
L 248.584248 121.81347 
L 248.746657 122.648349 
L 248.909065 126.272552 
L 249.071474 124.760744 
L 249.233882 121.840377 
L 249.396291 123.990725 
L 249.558699 123.121865 
L 249.721108 124.60465 
L 249.883516 124.546362 
L 250.045925 124.939505 
L 250.208333 125.030511 
L 250.370742 122.323443 
L 250.53315 125.081332 
L 250.695559 129.750993 
L 251.020376 131.11292 
L 251.182784 129.252282 
L 251.345193 124.633919 
L 251.507601 127.484796 
L 251.67001 126.266144 
L 251.832418 123.225916 
L 251.994827 125.584718 
L 252.319643 126.590253 
L 252.482052 127.015507 
L 252.64446 126.637627 
L 252.806869 127.329011 
L 252.969277 130.269131 
L 253.294094 127.81838 
L 253.456503 129.217774 
L 253.618911 132.096472 
L 253.943728 129.05465 
L 254.106137 127.837694 
L 254.430954 132.681937 
L 254.593362 132.916917 
L 254.755771 133.757973 
L 254.918179 133.774645 
L 255.242996 140.426602 
L 255.405405 141.617619 
L 255.567813 140.925958 
L 255.730221 140.794417 
L 255.89263 141.328565 
L 256.217447 136.965941 
L 256.379855 136.172163 
L 256.542264 136.876479 
L 256.704672 136.868778 
L 257.029489 135.631569 
L 257.354306 141.245456 
L 257.679123 142.137936 
L 258.328757 138.807063 
L 258.491166 138.979029 
L 258.653574 138.449279 
L 258.815983 137.013465 
L 259.303208 126.841468 
L 260.11525 133.76531 
L 260.277659 128.447843 
L 260.602476 129.684478 
L 260.764884 130.813259 
L 260.927293 132.911077 
L 261.089701 132.660549 
L 261.25211 132.928774 
L 261.414518 134.102919 
L 261.576927 133.152994 
L 261.739335 128.440033 
L 261.901744 127.340423 
L 262.064152 127.150874 
L 262.713786 136.268791 
L 263.201011 133.346515 
L 263.36342 132.084254 
L 263.525828 133.98473 
L 263.688237 134.150361 
L 263.850645 134.806224 
L 264.013054 133.933327 
L 264.175462 134.483182 
L 264.500279 133.178979 
L 264.662688 131.714335 
L 264.825096 132.655042 
L 264.987505 132.796479 
L 265.312322 130.705781 
L 265.637139 131.909808 
L 265.961956 129.009855 
L 266.286772 127.779146 
L 266.449181 127.11287 
L 266.611589 126.922646 
L 266.773998 126.401174 
L 266.936406 126.647734 
L 267.098815 127.336056 
L 267.423632 124.157574 
L 267.910857 130.714366 
L 268.073266 128.347836 
L 268.235674 131.29054 
L 268.7229 133.770962 
L 268.885308 133.563045 
L 269.047717 133.591979 
L 269.210125 133.928358 
L 269.534942 136.052641 
L 269.859759 133.929303 
L 270.022167 135.605066 
L 270.184576 138.88267 
L 270.509393 132.979942 
L 270.671801 133.229441 
L 270.996618 137.412342 
L 271.321435 135.015918 
L 271.483844 135.501532 
L 271.646252 134.378428 
L 271.808661 134.682454 
L 272.133478 132.167423 
L 272.295886 131.875222 
L 272.458295 130.064058 
L 272.620703 131.061323 
L 272.94552 130.201762 
L 273.107929 130.050106 
L 273.432745 129.032897 
L 273.595154 130.166157 
L 273.757562 132.498929 
L 273.919971 131.327205 
L 274.082379 131.650559 
L 274.244788 131.697432 
L 274.407196 132.183996 
L 274.569605 130.712177 
L 274.732013 130.983599 
L 274.894422 131.994409 
L 275.05683 126.651287 
L 275.219239 125.846729 
L 275.381647 130.311739 
L 275.706464 123.658181 
L 275.868873 125.959385 
L 276.031281 126.110033 
L 276.356098 123.708972 
L 276.518507 122.965758 
L 276.680915 121.440985 
L 276.843323 122.562907 
L 277.005732 122.710898 
L 277.330549 125.522101 
L 277.492957 123.282748 
L 277.655366 113.235043 
L 277.980183 119.66106 
L 278.142591 121.634722 
L 278.467408 120.301076 
L 278.629817 120.853097 
L 278.792225 122.97791 
L 278.954634 123.261937 
L 279.279451 126.313087 
L 279.441859 124.526775 
L 279.604268 125.485951 
L 279.766676 123.458072 
L 280.091493 125.284022 
L 280.253901 125.397596 
L 280.578718 123.598584 
L 280.741127 123.516436 
L 280.903535 119.437586 
L 281.065944 122.280401 
L 281.228352 119.778931 
L 281.390761 120.07804 
L 281.553169 119.957617 
L 281.715578 121.007576 
L 281.877986 120.869854 
L 282.202803 121.780908 
L 282.365212 120.391486 
L 282.52762 120.309206 
L 282.690029 119.02398 
L 282.852437 119.568372 
L 283.014846 121.921915 
L 283.177254 121.725964 
L 283.339663 120.262448 
L 283.502071 119.873773 
L 283.66448 118.124449 
L 283.826888 119.723375 
L 284.151705 123.932438 
L 284.476522 121.954767 
L 284.63893 123.921512 
L 284.801339 120.778074 
L 284.963747 120.882309 
L 285.126156 122.785054 
L 285.288564 123.03597 
L 285.450973 123.798217 
L 285.613381 122.453184 
L 285.938198 124.709941 
L 286.100607 124.073973 
L 286.263015 124.436733 
L 286.425424 124.1503 
L 286.587832 122.271788 
L 286.750241 123.05543 
L 286.912649 123.06938 
L 287.237466 120.446374 
L 287.399874 117.369187 
L 287.562283 121.294492 
L 287.724691 119.128279 
L 287.8871 120.828126 
L 288.211917 118.196208 
L 288.374325 118.374939 
L 288.536734 123.133406 
L 288.861551 125.575442 
L 289.023959 125.623416 
L 289.348776 126.097885 
L 289.511185 125.197857 
L 289.99841 115.491732 
L 290.323227 119.105689 
L 290.648044 118.214867 
L 290.810452 117.133759 
L 290.972861 117.537762 
L 291.135269 119.210315 
L 291.297678 116.853837 
L 291.460086 119.846692 
L 291.622495 118.493897 
L 291.784903 118.499965 
L 292.10972 122.705174 
L 292.272129 121.581813 
L 292.434537 121.723833 
L 292.596946 123.291071 
L 292.759354 121.450685 
L 292.921763 117.806096 
L 293.084171 118.190276 
L 293.408988 120.847255 
L 293.571397 120.39777 
L 293.733805 121.13495 
L 293.896214 121.277396 
L 294.058622 120.607492 
L 294.545847 122.848139 
L 294.708256 123.652856 
L 294.870664 120.205867 
L 295.033073 121.00325 
L 295.195481 119.968108 
L 295.520298 123.936454 
L 295.845115 117.703731 
L 296.007524 121.049552 
L 296.169932 120.821429 
L 296.332341 119.719683 
L 296.657158 121.943713 
L 296.819566 122.019873 
L 296.981975 119.704588 
L 297.144383 123.279835 
L 297.306792 123.54915 
L 297.4692 125.010361 
L 297.631609 125.288615 
L 297.956425 124.245025 
L 298.118834 125.164558 
L 298.281242 125.304283 
L 298.443651 123.999119 
L 298.606059 119.279307 
L 298.930876 122.812286 
L 299.093285 122.163307 
L 299.255693 122.674261 
L 299.418102 121.922183 
L 299.58051 121.869896 
L 299.742919 123.292962 
L 299.905327 122.629404 
L 300.067736 122.486639 
L 300.230144 121.610271 
L 300.392553 118.293288 
L 300.879778 124.609663 
L 301.042187 125.480041 
L 301.204595 125.250771 
L 301.367004 119.672734 
L 301.529412 123.324967 
L 301.69182 124.296521 
L 302.179046 124.776767 
L 302.503863 119.626105 
L 302.666271 120.518165 
L 302.991088 120.620072 
L 303.478314 122.594876 
L 303.640722 122.531985 
L 303.803131 120.756254 
L 303.965539 121.37061 
L 304.127948 123.900193 
L 304.290356 112.371678 
L 304.615173 123.136391 
L 304.93999 121.147819 
L 305.102398 121.41777 
L 305.264807 122.987147 
L 305.427215 120.728941 
L 305.589624 127.041163 
L 305.752032 126.382627 
L 305.914441 126.427823 
L 306.076849 126.765084 
L 306.239258 126.510889 
L 306.401666 122.680471 
L 306.564075 124.72946 
L 306.726483 124.730601 
L 306.888892 125.253935 
L 307.0513 122.601871 
L 307.213709 122.60301 
L 307.376117 122.406094 
L 307.863343 126.436692 
L 308.025751 126.457836 
L 308.18816 127.663894 
L 308.350568 126.750759 
L 308.512976 121.903842 
L 308.675385 127.791361 
L 308.837793 123.697974 
L 309.000202 129.171283 
L 309.16261 130.789 
L 309.325019 130.666665 
L 309.487427 130.850906 
L 309.649836 130.379997 
L 309.974653 121.770323 
L 310.137061 124.128958 
L 310.29947 124.418753 
L 310.624287 122.018252 
L 310.786695 117.445616 
L 310.949104 121.992704 
L 311.111512 122.836297 
L 311.273921 126.956545 
L 311.436329 126.975029 
L 311.598738 127.291088 
L 311.761146 124.619865 
L 312.085963 124.862383 
L 312.248371 125.319957 
L 312.41078 124.242802 
L 312.573188 125.410839 
L 312.735597 123.421375 
L 313.222822 125.970538 
L 313.385231 124.866932 
L 313.710048 126.190239 
L 313.872456 127.588314 
L 314.034865 127.792951 
L 314.197273 127.330429 
L 314.52209 128.118456 
L 315.009316 123.697115 
L 315.334133 127.319136 
L 315.658949 123.550925 
L 315.821358 125.193116 
L 316.146175 125.93212 
L 316.308583 126.031054 
L 316.795809 124.812469 
L 316.958217 116.586938 
L 317.120626 116.469891 
L 317.283034 116.983157 
L 317.445443 118.424271 
L 317.77026 116.446608 
L 317.932668 116.152476 
L 318.257485 114.171745 
L 318.582302 119.289791 
L 318.744711 118.956638 
L 318.907119 120.826357 
L 319.231936 119.012297 
L 319.394344 117.012346 
L 319.556753 118.242668 
L 319.719161 120.325781 
L 319.88157 120.612945 
L 320.043978 120.644541 
L 320.206387 119.55455 
L 320.368795 120.470831 
L 320.693612 119.759137 
L 320.856021 117.918363 
L 321.180838 117.082435 
L 321.343246 117.471079 
L 321.668063 120.792133 
L 321.830472 120.917194 
L 321.99288 121.578809 
L 322.317697 120.317024 
L 322.480106 120.039361 
L 322.642514 120.179615 
L 322.804922 121.02636 
L 322.967331 119.218648 
L 323.292148 119.597578 
L 323.454556 118.958488 
L 323.616965 119.27803 
L 323.779373 119.224129 
L 324.10419 125.297032 
L 324.266599 124.765973 
L 324.429007 122.131094 
L 324.753824 124.966153 
L 324.916233 125.006319 
L 325.24105 124.198565 
L 325.565867 122.647574 
L 325.890684 122.332034 
L 326.2155 125.714038 
L 326.377909 124.965646 
L 326.540317 125.129754 
L 326.702726 124.962703 
L 326.865134 122.40665 
L 327.35236 124.671467 
L 327.514768 124.885004 
L 327.677177 124.528368 
L 327.839585 122.302673 
L 328.001994 121.902682 
L 328.164402 121.893618 
L 328.326811 121.134518 
L 328.489219 121.137101 
L 328.651628 121.252914 
L 328.814036 121.042605 
L 329.138853 119.801551 
L 329.301262 117.924113 
L 329.626078 121.777115 
L 329.788487 122.046166 
L 329.950895 121.20045 
L 330.113304 121.130846 
L 330.275712 122.348098 
L 330.438121 121.574206 
L 330.600529 119.909471 
L 330.762938 119.991497 
L 330.925346 119.908775 
L 331.087755 117.09038 
L 331.250163 117.318845 
L 331.412572 116.819887 
L 331.737389 117.774078 
L 331.899797 117.165279 
L 332.062206 119.633039 
L 332.224614 119.825269 
L 332.387023 121.092122 
L 332.549431 119.862639 
L 332.71184 117.271324 
L 332.874248 117.741099 
L 333.036657 118.785566 
L 333.199065 118.865292 
L 333.523882 124.666866 
L 333.68629 122.596503 
L 333.848699 123.741248 
L 334.011107 122.675503 
L 334.173516 123.003964 
L 334.335924 124.729539 
L 334.498333 124.182121 
L 334.660741 125.636234 
L 334.985558 123.891887 
L 335.147967 125.243233 
L 335.310375 125.1073 
L 335.635192 125.681768 
L 335.797601 123.997582 
L 335.960009 126.381933 
L 336.122418 126.050861 
L 336.284826 126.60689 
L 336.447235 129.549683 
L 336.772051 128.867468 
L 336.93446 126.772259 
L 337.259277 129.075598 
L 337.584094 129.198359 
L 337.746502 128.252683 
L 338.071319 124.77724 
L 338.233728 126.231495 
L 338.396136 125.783753 
L 338.558545 123.376395 
L 338.720953 125.282471 
L 338.883362 125.564763 
L 339.04577 123.531424 
L 339.208179 123.900301 
L 339.370587 123.205199 
L 339.532996 124.58513 
L 339.857813 121.753573 
L 340.020221 122.520203 
L 340.182629 122.619234 
L 340.345038 123.639651 
L 340.507446 122.632483 
L 340.669855 123.294383 
L 340.832263 123.123678 
L 341.15708 111.639222 
L 341.481897 116.946089 
L 341.644306 116.726268 
L 341.806714 116.828028 
L 341.969123 115.064936 
L 342.131531 119.924897 
L 342.29394 121.199322 
L 342.456348 121.012715 
L 342.618757 119.466393 
L 342.781165 119.452147 
L 343.105982 114.776 
L 343.268391 120.947306 
L 343.430799 120.629229 
L 343.593208 123.596297 
L 343.918024 117.373105 
L 344.242841 121.133253 
L 344.40525 121.990145 
L 344.567658 123.588642 
L 344.892475 122.15336 
L 345.054884 119.177564 
L 345.217292 118.443379 
L 345.542109 119.068402 
L 345.866926 123.794354 
L 346.191743 124.527867 
L 346.354152 124.323145 
L 346.51656 119.220992 
L 346.678969 119.174248 
L 346.841377 119.967903 
L 347.166194 119.802408 
L 347.328602 120.087342 
L 347.653419 116.399473 
L 347.978236 115.916742 
L 348.140645 116.311038 
L 348.465462 114.150126 
L 348.62787 113.778967 
L 348.952687 111.43288 
L 349.115096 111.723027 
L 349.277504 112.516952 
L 349.439913 115.937984 
L 349.602321 115.369941 
L 349.76473 115.512376 
L 349.927138 110.766593 
L 350.089547 111.691709 
L 350.251955 110.245314 
L 350.414364 111.520833 
L 350.576772 110.53024 
L 350.73918 111.258364 
L 350.901589 110.925357 
L 351.226406 114.530855 
L 351.388814 112.847512 
L 351.713631 114.190463 
L 351.87604 114.373851 
L 352.038448 114.774625 
L 352.200857 115.783247 
L 352.363265 115.817211 
L 352.525674 115.145105 
L 352.688082 114.982858 
L 353.012899 116.701445 
L 353.175308 116.434077 
L 353.337716 117.368062 
L 353.500125 117.525665 
L 353.662533 117.29842 
L 353.824942 117.379531 
L 354.149759 119.833113 
L 354.312167 118.055655 
L 354.474575 119.2125 
L 354.636984 119.230416 
L 354.799392 118.664089 
L 355.124209 121.58012 
L 355.286618 121.773079 
L 355.449026 122.396697 
L 355.773843 118.169632 
L 355.936252 117.583895 
L 356.261069 118.665041 
L 356.423477 118.226513 
L 356.585886 119.357972 
L 356.748294 115.50343 
L 356.910703 105.986435 
L 357.073111 110.616752 
L 357.23552 105.622746 
L 357.560337 113.119515 
L 357.885153 114.553621 
L 358.047562 114.920544 
L 358.372379 116.166289 
L 359.184421 117.055118 
L 359.34683 117.612018 
L 359.834055 117.818538 
L 360.158872 117.738614 
L 360.321281 117.41036 
L 360.483689 117.593028 
L 360.970915 118.568948 
L 361.295732 118.789603 
L 361.782957 118.51465 
L 361.945365 118.490025 
L 362.107774 118.333776 
L 362.594999 118.304408 
L 363.244633 117.458767 
L 363.731859 117.53009 
L 364.868718 117.472965 
L 365.031126 117.152566 
L 365.193535 117.241964 
L 365.518352 117.192909 
L 365.68076 117.320197 
L 366.005577 117.038227 
L 366.980028 117.236999 
L 367.304845 117.150566 
L 367.467254 117.032281 
L 367.629662 117.136156 
L 369.091338 116.86815 
L 369.416155 116.876099 
L 369.578564 116.776203 
L 369.740972 116.953854 
L 370.065789 116.908449 
L 370.390606 116.944133 
L 371.04024 117.029057 
L 372.826733 116.95302 
L 372.989142 117.083379 
L 373.313959 117.008655 
L 373.476367 117.102557 
L 373.638776 116.997874 
L 374.613227 117.112013 
L 375.912494 117.066511 
L 377.049354 117.033233 
L 377.374171 116.993495 
L 377.536579 116.928088 
L 377.861396 116.965608 
L 378.673439 116.956912 
L 378.998255 117.033222 
L 379.647889 117.083988 
L 379.972706 117.027266 
L 380.135115 116.967429 
L 380.62234 117.10314 
L 380.784749 117.047621 
L 381.109566 117.083234 
L 389.879623 116.819904 
L 390.20444 116.726592 
L 390.529257 116.784787 
L 390.691666 116.769111 
L 391.016483 116.849117 
L 393.290201 116.825565 
L 393.45261 116.948958 
L 393.939835 116.927378 
L 394.264652 116.87049 
L 394.427061 116.800306 
L 394.751878 116.876093 
L 395.239103 116.840916 
L 396.863188 116.914155 
L 398.487273 116.806372 
L 398.487273 116.806372 
" style="fill:none;stroke:#1f77b4;stroke-linecap:square;stroke-width:1.5;"/>
   </g>
   <g id="patch_3">
    <path d="M 57.6 307.584 
L 57.6 41.472 
" style="fill:none;stroke:#000000;stroke-linecap:square;stroke-linejoin:miter;stroke-width:0.8;"/>
   </g>
   <g id="patch_4">
    <path d="M 414.72 307.584 
L 414.72 41.472 
" style="fill:none;stroke:#000000;stroke-linecap:square;stroke-linejoin:miter;stroke-width:0.8;"/>
   </g>
   <g id="patch_5">
    <path d="M 57.6 307.584 
L 414.72 307.584 
" style="fill:none;stroke:#000000;stroke-linecap:square;stroke-linejoin:miter;stroke-width:0.8;"/>
   </g>
   <g id="patch_6">
    <path d="M 57.6 41.472 
L 414.72 41.472 
" style="fill:none;stroke:#000000;stroke-linecap:square;stroke-linejoin:miter;stroke-width:0.8;"/>
   </g>
   <g id="text_18">
    <!-- model loss -->
    <defs>
     <path d="M 52 44.1875 
Q 55.375 50.25 60.0625 53.125 
Q 64.75 56 71.09375 56 
Q 79.640625 56 84.28125 50.015625 
Q 88.921875 44.046875 88.921875 33.015625 
L 88.921875 0 
L 79.890625 0 
L 79.890625 32.71875 
Q 79.890625 40.578125 77.09375 44.375 
Q 74.3125 48.1875 68.609375 48.1875 
Q 61.625 48.1875 57.5625 43.546875 
Q 53.515625 38.921875 53.515625 30.90625 
L 53.515625 0 
L 44.484375 0 
L 44.484375 32.71875 
Q 44.484375 40.625 41.703125 44.40625 
Q 38.921875 48.1875 33.109375 48.1875 
Q 26.21875 48.1875 22.15625 43.53125 
Q 18.109375 38.875 18.109375 30.90625 
L 18.109375 0 
L 9.078125 0 
L 9.078125 54.6875 
L 18.109375 54.6875 
L 18.109375 46.1875 
Q 21.1875 51.21875 25.484375 53.609375 
Q 29.78125 56 35.6875 56 
Q 41.65625 56 45.828125 52.96875 
Q 50 49.953125 52 44.1875 
z
" id="DejaVuSans-6d"/>
     <path d="M 45.40625 46.390625 
L 45.40625 75.984375 
L 54.390625 75.984375 
L 54.390625 0 
L 45.40625 0 
L 45.40625 8.203125 
Q 42.578125 3.328125 38.25 0.953125 
Q 33.9375 -1.421875 27.875 -1.421875 
Q 17.96875 -1.421875 11.734375 6.484375 
Q 5.515625 14.40625 5.515625 27.296875 
Q 5.515625 40.1875 11.734375 48.09375 
Q 17.96875 56 27.875 56 
Q 33.9375 56 38.25 53.625 
Q 42.578125 51.265625 45.40625 46.390625 
z
M 14.796875 27.296875 
Q 14.796875 17.390625 18.875 11.75 
Q 22.953125 6.109375 30.078125 6.109375 
Q 37.203125 6.109375 41.296875 11.75 
Q 45.40625 17.390625 45.40625 27.296875 
Q 45.40625 37.203125 41.296875 42.84375 
Q 37.203125 48.484375 30.078125 48.484375 
Q 22.953125 48.484375 18.875 42.84375 
Q 14.796875 37.203125 14.796875 27.296875 
z
" id="DejaVuSans-64"/>
     <path id="DejaVuSans-20"/>
    </defs>
    <g transform="translate(203.980312 35.472)scale(0.12 -0.12)">
     <use xlink:href="#DejaVuSans-6d"/>
     <use x="97.412109" xlink:href="#DejaVuSans-6f"/>
     <use x="158.59375" xlink:href="#DejaVuSans-64"/>
     <use x="222.070312" xlink:href="#DejaVuSans-65"/>
     <use x="283.59375" xlink:href="#DejaVuSans-6c"/>
     <use x="311.376953" xlink:href="#DejaVuSans-20"/>
     <use x="343.164062" xlink:href="#DejaVuSans-6c"/>
     <use x="370.947266" xlink:href="#DejaVuSans-6f"/>
     <use x="432.128906" xlink:href="#DejaVuSans-73"/>
     <use x="484.228516" xlink:href="#DejaVuSans-73"/>
    </g>
   </g>
  </g>
 </g>
 <defs>
  <clipPath id="pae8ed876c9">
   <rect height="266.112" width="357.12" x="57.6" y="41.472"/>
  </clipPath>
 </defs>
</svg>
