<?xml version="1.0" encoding="utf-8" standalone="no"?>
<!DOCTYPE svg PUBLIC "-//W3C//DTD SVG 1.1//EN"
  "http://www.w3.org/Graphics/SVG/1.1/DTD/svg11.dtd">
<!-- Created with matplotlib (http://matplotlib.org/) -->
<svg height="345pt" version="1.1" viewBox="0 0 460 345" width="460pt" xmlns="http://www.w3.org/2000/svg" xmlns:xlink="http://www.w3.org/1999/xlink">
 <defs>
  <style type="text/css">
*{stroke-linecap:butt;stroke-linejoin:round;}
  </style>
 </defs>
 <g id="figure_1">
  <g id="patch_1">
   <path d="M 0 345.6 
L 460.8 345.6 
L 460.8 0 
L 0 0 
z
" style="fill:#ffffff;"/>
  </g>
  <g id="axes_1">
   <g id="patch_2">
    <path d="M 57.6 307.584 
L 414.72 307.584 
L 414.72 41.472 
L 57.6 41.472 
z
" style="fill:#ffffff;"/>
   </g>
   <g id="matplotlib.axis_1">
    <g id="xtick_1">
     <g id="line2d_1">
      <defs>
       <path d="M 0 0 
L 0 3.5 
" id="mc6a28c6b9b" style="stroke:#000000;stroke-width:0.8;"/>
      </defs>
      <g>
       <use style="stroke:#000000;stroke-width:0.8;" x="73.832727" xlink:href="#mc6a28c6b9b" y="307.584"/>
      </g>
     </g>
     <g id="text_1">
      <!-- 0 -->
      <defs>
       <path d="M 31.78125 66.40625 
Q 24.171875 66.40625 20.328125 58.90625 
Q 16.5 51.421875 16.5 36.375 
Q 16.5 21.390625 20.328125 13.890625 
Q 24.171875 6.390625 31.78125 6.390625 
Q 39.453125 6.390625 43.28125 13.890625 
Q 47.125 21.390625 47.125 36.375 
Q 47.125 51.421875 43.28125 58.90625 
Q 39.453125 66.40625 31.78125 66.40625 
z
M 31.78125 74.21875 
Q 44.046875 74.21875 50.515625 64.515625 
Q 56.984375 54.828125 56.984375 36.375 
Q 56.984375 17.96875 50.515625 8.265625 
Q 44.046875 -1.421875 31.78125 -1.421875 
Q 19.53125 -1.421875 13.0625 8.265625 
Q 6.59375 17.96875 6.59375 36.375 
Q 6.59375 54.828125 13.0625 64.515625 
Q 19.53125 74.21875 31.78125 74.21875 
z
" id="DejaVuSans-30"/>
      </defs>
      <g transform="translate(70.651477 322.182437)scale(0.1 -0.1)">
       <use xlink:href="#DejaVuSans-30"/>
      </g>
     </g>
    </g>
    <g id="xtick_2">
     <g id="line2d_2">
      <g>
       <use style="stroke:#000000;stroke-width:0.8;" x="114.434847" xlink:href="#mc6a28c6b9b" y="307.584"/>
      </g>
     </g>
     <g id="text_2">
      <!-- 250 -->
      <defs>
       <path d="M 19.1875 8.296875 
L 53.609375 8.296875 
L 53.609375 0 
L 7.328125 0 
L 7.328125 8.296875 
Q 12.9375 14.109375 22.625 23.890625 
Q 32.328125 33.6875 34.8125 36.53125 
Q 39.546875 41.84375 41.421875 45.53125 
Q 43.3125 49.21875 43.3125 52.78125 
Q 43.3125 58.59375 39.234375 62.25 
Q 35.15625 65.921875 28.609375 65.921875 
Q 23.96875 65.921875 18.8125 64.3125 
Q 13.671875 62.703125 7.8125 59.421875 
L 7.8125 69.390625 
Q 13.765625 71.78125 18.9375 73 
Q 24.125 74.21875 28.421875 74.21875 
Q 39.75 74.21875 46.484375 68.546875 
Q 53.21875 62.890625 53.21875 53.421875 
Q 53.21875 48.921875 51.53125 44.890625 
Q 49.859375 40.875 45.40625 35.40625 
Q 44.1875 33.984375 37.640625 27.21875 
Q 31.109375 20.453125 19.1875 8.296875 
z
" id="DejaVuSans-32"/>
       <path d="M 10.796875 72.90625 
L 49.515625 72.90625 
L 49.515625 64.59375 
L 19.828125 64.59375 
L 19.828125 46.734375 
Q 21.96875 47.46875 24.109375 47.828125 
Q 26.265625 48.1875 28.421875 48.1875 
Q 40.625 48.1875 47.75 41.5 
Q 54.890625 34.8125 54.890625 23.390625 
Q 54.890625 11.625 47.5625 5.09375 
Q 40.234375 -1.421875 26.90625 -1.421875 
Q 22.3125 -1.421875 17.546875 -0.640625 
Q 12.796875 0.140625 7.71875 1.703125 
L 7.71875 11.625 
Q 12.109375 9.234375 16.796875 8.0625 
Q 21.484375 6.890625 26.703125 6.890625 
Q 35.15625 6.890625 40.078125 11.328125 
Q 45.015625 15.765625 45.015625 23.390625 
Q 45.015625 31 40.078125 35.4375 
Q 35.15625 39.890625 26.703125 39.890625 
Q 22.75 39.890625 18.8125 39.015625 
Q 14.890625 38.140625 10.796875 36.28125 
z
" id="DejaVuSans-35"/>
      </defs>
      <g transform="translate(104.891097 322.182437)scale(0.1 -0.1)">
       <use xlink:href="#DejaVuSans-32"/>
       <use x="63.623047" xlink:href="#DejaVuSans-35"/>
       <use x="127.246094" xlink:href="#DejaVuSans-30"/>
      </g>
     </g>
    </g>
    <g id="xtick_3">
     <g id="line2d_3">
      <g>
       <use style="stroke:#000000;stroke-width:0.8;" x="155.036966" xlink:href="#mc6a28c6b9b" y="307.584"/>
      </g>
     </g>
     <g id="text_3">
      <!-- 500 -->
      <g transform="translate(145.493216 322.182437)scale(0.1 -0.1)">
       <use xlink:href="#DejaVuSans-35"/>
       <use x="63.623047" xlink:href="#DejaVuSans-30"/>
       <use x="127.246094" xlink:href="#DejaVuSans-30"/>
      </g>
     </g>
    </g>
    <g id="xtick_4">
     <g id="line2d_4">
      <g>
       <use style="stroke:#000000;stroke-width:0.8;" x="195.639085" xlink:href="#mc6a28c6b9b" y="307.584"/>
      </g>
     </g>
     <g id="text_4">
      <!-- 750 -->
      <defs>
       <path d="M 8.203125 72.90625 
L 55.078125 72.90625 
L 55.078125 68.703125 
L 28.609375 0 
L 18.3125 0 
L 43.21875 64.59375 
L 8.203125 64.59375 
z
" id="DejaVuSans-37"/>
      </defs>
      <g transform="translate(186.095335 322.182437)scale(0.1 -0.1)">
       <use xlink:href="#DejaVuSans-37"/>
       <use x="63.623047" xlink:href="#DejaVuSans-35"/>
       <use x="127.246094" xlink:href="#DejaVuSans-30"/>
      </g>
     </g>
    </g>
    <g id="xtick_5">
     <g id="line2d_5">
      <g>
       <use style="stroke:#000000;stroke-width:0.8;" x="236.241204" xlink:href="#mc6a28c6b9b" y="307.584"/>
      </g>
     </g>
     <g id="text_5">
      <!-- 1000 -->
      <defs>
       <path d="M 12.40625 8.296875 
L 28.515625 8.296875 
L 28.515625 63.921875 
L 10.984375 60.40625 
L 10.984375 69.390625 
L 28.421875 72.90625 
L 38.28125 72.90625 
L 38.28125 8.296875 
L 54.390625 8.296875 
L 54.390625 0 
L 12.40625 0 
z
" id="DejaVuSans-31"/>
      </defs>
      <g transform="translate(223.516204 322.182437)scale(0.1 -0.1)">
       <use xlink:href="#DejaVuSans-31"/>
       <use x="63.623047" xlink:href="#DejaVuSans-30"/>
       <use x="127.246094" xlink:href="#DejaVuSans-30"/>
       <use x="190.869141" xlink:href="#DejaVuSans-30"/>
      </g>
     </g>
    </g>
    <g id="xtick_6">
     <g id="line2d_6">
      <g>
       <use style="stroke:#000000;stroke-width:0.8;" x="276.843323" xlink:href="#mc6a28c6b9b" y="307.584"/>
      </g>
     </g>
     <g id="text_6">
      <!-- 1250 -->
      <g transform="translate(264.118323 322.182437)scale(0.1 -0.1)">
       <use xlink:href="#DejaVuSans-31"/>
       <use x="63.623047" xlink:href="#DejaVuSans-32"/>
       <use x="127.246094" xlink:href="#DejaVuSans-35"/>
       <use x="190.869141" xlink:href="#DejaVuSans-30"/>
      </g>
     </g>
    </g>
    <g id="xtick_7">
     <g id="line2d_7">
      <g>
       <use style="stroke:#000000;stroke-width:0.8;" x="317.445443" xlink:href="#mc6a28c6b9b" y="307.584"/>
      </g>
     </g>
     <g id="text_7">
      <!-- 1500 -->
      <g transform="translate(304.720443 322.182437)scale(0.1 -0.1)">
       <use xlink:href="#DejaVuSans-31"/>
       <use x="63.623047" xlink:href="#DejaVuSans-35"/>
       <use x="127.246094" xlink:href="#DejaVuSans-30"/>
       <use x="190.869141" xlink:href="#DejaVuSans-30"/>
      </g>
     </g>
    </g>
    <g id="xtick_8">
     <g id="line2d_8">
      <g>
       <use style="stroke:#000000;stroke-width:0.8;" x="358.047562" xlink:href="#mc6a28c6b9b" y="307.584"/>
      </g>
     </g>
     <g id="text_8">
      <!-- 1750 -->
      <g transform="translate(345.322562 322.182437)scale(0.1 -0.1)">
       <use xlink:href="#DejaVuSans-31"/>
       <use x="63.623047" xlink:href="#DejaVuSans-37"/>
       <use x="127.246094" xlink:href="#DejaVuSans-35"/>
       <use x="190.869141" xlink:href="#DejaVuSans-30"/>
      </g>
     </g>
    </g>
    <g id="xtick_9">
     <g id="line2d_9">
      <g>
       <use style="stroke:#000000;stroke-width:0.8;" x="398.649681" xlink:href="#mc6a28c6b9b" y="307.584"/>
      </g>
     </g>
     <g id="text_9">
      <!-- 2000 -->
      <g transform="translate(385.924681 322.182437)scale(0.1 -0.1)">
       <use xlink:href="#DejaVuSans-32"/>
       <use x="63.623047" xlink:href="#DejaVuSans-30"/>
       <use x="127.246094" xlink:href="#DejaVuSans-30"/>
       <use x="190.869141" xlink:href="#DejaVuSans-30"/>
      </g>
     </g>
    </g>
    <g id="text_10">
     <!-- epoch -->
     <defs>
      <path d="M 56.203125 29.59375 
L 56.203125 25.203125 
L 14.890625 25.203125 
Q 15.484375 15.921875 20.484375 11.0625 
Q 25.484375 6.203125 34.421875 6.203125 
Q 39.59375 6.203125 44.453125 7.46875 
Q 49.3125 8.734375 54.109375 11.28125 
L 54.109375 2.78125 
Q 49.265625 0.734375 44.1875 -0.34375 
Q 39.109375 -1.421875 33.890625 -1.421875 
Q 20.796875 -1.421875 13.15625 6.1875 
Q 5.515625 13.8125 5.515625 26.8125 
Q 5.515625 40.234375 12.765625 48.109375 
Q 20.015625 56 32.328125 56 
Q 43.359375 56 49.78125 48.890625 
Q 56.203125 41.796875 56.203125 29.59375 
z
M 47.21875 32.234375 
Q 47.125 39.59375 43.09375 43.984375 
Q 39.0625 48.390625 32.421875 48.390625 
Q 24.90625 48.390625 20.390625 44.140625 
Q 15.875 39.890625 15.1875 32.171875 
z
" id="DejaVuSans-65"/>
      <path d="M 18.109375 8.203125 
L 18.109375 -20.796875 
L 9.078125 -20.796875 
L 9.078125 54.6875 
L 18.109375 54.6875 
L 18.109375 46.390625 
Q 20.953125 51.265625 25.265625 53.625 
Q 29.59375 56 35.59375 56 
Q 45.5625 56 51.78125 48.09375 
Q 58.015625 40.1875 58.015625 27.296875 
Q 58.015625 14.40625 51.78125 6.484375 
Q 45.5625 -1.421875 35.59375 -1.421875 
Q 29.59375 -1.421875 25.265625 0.953125 
Q 20.953125 3.328125 18.109375 8.203125 
z
M 48.6875 27.296875 
Q 48.6875 37.203125 44.609375 42.84375 
Q 40.53125 48.484375 33.40625 48.484375 
Q 26.265625 48.484375 22.1875 42.84375 
Q 18.109375 37.203125 18.109375 27.296875 
Q 18.109375 17.390625 22.1875 11.75 
Q 26.265625 6.109375 33.40625 6.109375 
Q 40.53125 6.109375 44.609375 11.75 
Q 48.6875 17.390625 48.6875 27.296875 
z
" id="DejaVuSans-70"/>
      <path d="M 30.609375 48.390625 
Q 23.390625 48.390625 19.1875 42.75 
Q 14.984375 37.109375 14.984375 27.296875 
Q 14.984375 17.484375 19.15625 11.84375 
Q 23.34375 6.203125 30.609375 6.203125 
Q 37.796875 6.203125 41.984375 11.859375 
Q 46.1875 17.53125 46.1875 27.296875 
Q 46.1875 37.015625 41.984375 42.703125 
Q 37.796875 48.390625 30.609375 48.390625 
z
M 30.609375 56 
Q 42.328125 56 49.015625 48.375 
Q 55.71875 40.765625 55.71875 27.296875 
Q 55.71875 13.875 49.015625 6.21875 
Q 42.328125 -1.421875 30.609375 -1.421875 
Q 18.84375 -1.421875 12.171875 6.21875 
Q 5.515625 13.875 5.515625 27.296875 
Q 5.515625 40.765625 12.171875 48.375 
Q 18.84375 56 30.609375 56 
z
" id="DejaVuSans-6f"/>
      <path d="M 48.78125 52.59375 
L 48.78125 44.1875 
Q 44.96875 46.296875 41.140625 47.34375 
Q 37.3125 48.390625 33.40625 48.390625 
Q 24.65625 48.390625 19.8125 42.84375 
Q 14.984375 37.3125 14.984375 27.296875 
Q 14.984375 17.28125 19.8125 11.734375 
Q 24.65625 6.203125 33.40625 6.203125 
Q 37.3125 6.203125 41.140625 7.25 
Q 44.96875 8.296875 48.78125 10.40625 
L 48.78125 2.09375 
Q 45.015625 0.34375 40.984375 -0.53125 
Q 36.96875 -1.421875 32.421875 -1.421875 
Q 20.0625 -1.421875 12.78125 6.34375 
Q 5.515625 14.109375 5.515625 27.296875 
Q 5.515625 40.671875 12.859375 48.328125 
Q 20.21875 56 33.015625 56 
Q 37.15625 56 41.109375 55.140625 
Q 45.0625 54.296875 48.78125 52.59375 
z
" id="DejaVuSans-63"/>
      <path d="M 54.890625 33.015625 
L 54.890625 0 
L 45.90625 0 
L 45.90625 32.71875 
Q 45.90625 40.484375 42.875 44.328125 
Q 39.84375 48.1875 33.796875 48.1875 
Q 26.515625 48.1875 22.3125 43.546875 
Q 18.109375 38.921875 18.109375 30.90625 
L 18.109375 0 
L 9.078125 0 
L 9.078125 75.984375 
L 18.109375 75.984375 
L 18.109375 46.1875 
Q 21.34375 51.125 25.703125 53.5625 
Q 30.078125 56 35.796875 56 
Q 45.21875 56 50.046875 50.171875 
Q 54.890625 44.34375 54.890625 33.015625 
z
" id="DejaVuSans-68"/>
     </defs>
     <g transform="translate(220.931875 335.860562)scale(0.1 -0.1)">
      <use xlink:href="#DejaVuSans-65"/>
      <use x="61.523438" xlink:href="#DejaVuSans-70"/>
      <use x="125" xlink:href="#DejaVuSans-6f"/>
      <use x="186.181641" xlink:href="#DejaVuSans-63"/>
      <use x="241.162109" xlink:href="#DejaVuSans-68"/>
     </g>
    </g>
   </g>
   <g id="matplotlib.axis_2">
    <g id="ytick_1">
     <g id="line2d_10">
      <defs>
       <path d="M 0 0 
L -3.5 0 
" id="md65fde9a7e" style="stroke:#000000;stroke-width:0.8;"/>
      </defs>
      <g>
       <use style="stroke:#000000;stroke-width:0.8;" x="57.6" xlink:href="#md65fde9a7e" y="302.043624"/>
      </g>
     </g>
     <g id="text_11">
      <!-- 588 -->
      <defs>
       <path d="M 31.78125 34.625 
Q 24.75 34.625 20.71875 30.859375 
Q 16.703125 27.09375 16.703125 20.515625 
Q 16.703125 13.921875 20.71875 10.15625 
Q 24.75 6.390625 31.78125 6.390625 
Q 38.8125 6.390625 42.859375 10.171875 
Q 46.921875 13.96875 46.921875 20.515625 
Q 46.921875 27.09375 42.890625 30.859375 
Q 38.875 34.625 31.78125 34.625 
z
M 21.921875 38.8125 
Q 15.578125 40.375 12.03125 44.71875 
Q 8.5 49.078125 8.5 55.328125 
Q 8.5 64.0625 14.71875 69.140625 
Q 20.953125 74.21875 31.78125 74.21875 
Q 42.671875 74.21875 48.875 69.140625 
Q 55.078125 64.0625 55.078125 55.328125 
Q 55.078125 49.078125 51.53125 44.71875 
Q 48 40.375 41.703125 38.8125 
Q 48.828125 37.15625 52.796875 32.3125 
Q 56.78125 27.484375 56.78125 20.515625 
Q 56.78125 9.90625 50.3125 4.234375 
Q 43.84375 -1.421875 31.78125 -1.421875 
Q 19.734375 -1.421875 13.25 4.234375 
Q 6.78125 9.90625 6.78125 20.515625 
Q 6.78125 27.484375 10.78125 32.3125 
Q 14.796875 37.15625 21.921875 38.8125 
z
M 18.3125 54.390625 
Q 18.3125 48.734375 21.84375 45.5625 
Q 25.390625 42.390625 31.78125 42.390625 
Q 38.140625 42.390625 41.71875 45.5625 
Q 45.3125 48.734375 45.3125 54.390625 
Q 45.3125 60.0625 41.71875 63.234375 
Q 38.140625 66.40625 31.78125 66.40625 
Q 25.390625 66.40625 21.84375 63.234375 
Q 18.3125 60.0625 18.3125 54.390625 
z
" id="DejaVuSans-38"/>
      </defs>
      <g transform="translate(31.5125 305.842843)scale(0.1 -0.1)">
       <use xlink:href="#DejaVuSans-35"/>
       <use x="63.623047" xlink:href="#DejaVuSans-38"/>
       <use x="127.246094" xlink:href="#DejaVuSans-38"/>
      </g>
     </g>
    </g>
    <g id="ytick_2">
     <g id="line2d_11">
      <g>
       <use style="stroke:#000000;stroke-width:0.8;" x="57.6" xlink:href="#md65fde9a7e" y="270.716256"/>
      </g>
     </g>
     <g id="text_12">
      <!-- 590 -->
      <defs>
       <path d="M 10.984375 1.515625 
L 10.984375 10.5 
Q 14.703125 8.734375 18.5 7.8125 
Q 22.3125 6.890625 25.984375 6.890625 
Q 35.75 6.890625 40.890625 13.453125 
Q 46.046875 20.015625 46.78125 33.40625 
Q 43.953125 29.203125 39.59375 26.953125 
Q 35.25 24.703125 29.984375 24.703125 
Q 19.046875 24.703125 12.671875 31.3125 
Q 6.296875 37.9375 6.296875 49.421875 
Q 6.296875 60.640625 12.9375 67.421875 
Q 19.578125 74.21875 30.609375 74.21875 
Q 43.265625 74.21875 49.921875 64.515625 
Q 56.59375 54.828125 56.59375 36.375 
Q 56.59375 19.140625 48.40625 8.859375 
Q 40.234375 -1.421875 26.421875 -1.421875 
Q 22.703125 -1.421875 18.890625 -0.6875 
Q 15.09375 0.046875 10.984375 1.515625 
z
M 30.609375 32.421875 
Q 37.25 32.421875 41.125 36.953125 
Q 45.015625 41.5 45.015625 49.421875 
Q 45.015625 57.28125 41.125 61.84375 
Q 37.25 66.40625 30.609375 66.40625 
Q 23.96875 66.40625 20.09375 61.84375 
Q 16.21875 57.28125 16.21875 49.421875 
Q 16.21875 41.5 20.09375 36.953125 
Q 23.96875 32.421875 30.609375 32.421875 
z
" id="DejaVuSans-39"/>
      </defs>
      <g transform="translate(31.5125 274.515475)scale(0.1 -0.1)">
       <use xlink:href="#DejaVuSans-35"/>
       <use x="63.623047" xlink:href="#DejaVuSans-39"/>
       <use x="127.246094" xlink:href="#DejaVuSans-30"/>
      </g>
     </g>
    </g>
    <g id="ytick_3">
     <g id="line2d_12">
      <g>
       <use style="stroke:#000000;stroke-width:0.8;" x="57.6" xlink:href="#md65fde9a7e" y="239.388888"/>
      </g>
     </g>
     <g id="text_13">
      <!-- 592 -->
      <g transform="translate(31.5125 243.188106)scale(0.1 -0.1)">
       <use xlink:href="#DejaVuSans-35"/>
       <use x="63.623047" xlink:href="#DejaVuSans-39"/>
       <use x="127.246094" xlink:href="#DejaVuSans-32"/>
      </g>
     </g>
    </g>
    <g id="ytick_4">
     <g id="line2d_13">
      <g>
       <use style="stroke:#000000;stroke-width:0.8;" x="57.6" xlink:href="#md65fde9a7e" y="208.061519"/>
      </g>
     </g>
     <g id="text_14">
      <!-- 594 -->
      <defs>
       <path d="M 37.796875 64.3125 
L 12.890625 25.390625 
L 37.796875 25.390625 
z
M 35.203125 72.90625 
L 47.609375 72.90625 
L 47.609375 25.390625 
L 58.015625 25.390625 
L 58.015625 17.1875 
L 47.609375 17.1875 
L 47.609375 0 
L 37.796875 0 
L 37.796875 17.1875 
L 4.890625 17.1875 
L 4.890625 26.703125 
z
" id="DejaVuSans-34"/>
      </defs>
      <g transform="translate(31.5125 211.860738)scale(0.1 -0.1)">
       <use xlink:href="#DejaVuSans-35"/>
       <use x="63.623047" xlink:href="#DejaVuSans-39"/>
       <use x="127.246094" xlink:href="#DejaVuSans-34"/>
      </g>
     </g>
    </g>
    <g id="ytick_5">
     <g id="line2d_14">
      <g>
       <use style="stroke:#000000;stroke-width:0.8;" x="57.6" xlink:href="#md65fde9a7e" y="176.734151"/>
      </g>
     </g>
     <g id="text_15">
      <!-- 596 -->
      <defs>
       <path d="M 33.015625 40.375 
Q 26.375 40.375 22.484375 35.828125 
Q 18.609375 31.296875 18.609375 23.390625 
Q 18.609375 15.53125 22.484375 10.953125 
Q 26.375 6.390625 33.015625 6.390625 
Q 39.65625 6.390625 43.53125 10.953125 
Q 47.40625 15.53125 47.40625 23.390625 
Q 47.40625 31.296875 43.53125 35.828125 
Q 39.65625 40.375 33.015625 40.375 
z
M 52.59375 71.296875 
L 52.59375 62.3125 
Q 48.875 64.0625 45.09375 64.984375 
Q 41.3125 65.921875 37.59375 65.921875 
Q 27.828125 65.921875 22.671875 59.328125 
Q 17.53125 52.734375 16.796875 39.40625 
Q 19.671875 43.65625 24.015625 45.921875 
Q 28.375 48.1875 33.59375 48.1875 
Q 44.578125 48.1875 50.953125 41.515625 
Q 57.328125 34.859375 57.328125 23.390625 
Q 57.328125 12.15625 50.6875 5.359375 
Q 44.046875 -1.421875 33.015625 -1.421875 
Q 20.359375 -1.421875 13.671875 8.265625 
Q 6.984375 17.96875 6.984375 36.375 
Q 6.984375 53.65625 15.1875 63.9375 
Q 23.390625 74.21875 37.203125 74.21875 
Q 40.921875 74.21875 44.703125 73.484375 
Q 48.484375 72.75 52.59375 71.296875 
z
" id="DejaVuSans-36"/>
      </defs>
      <g transform="translate(31.5125 180.533369)scale(0.1 -0.1)">
       <use xlink:href="#DejaVuSans-35"/>
       <use x="63.623047" xlink:href="#DejaVuSans-39"/>
       <use x="127.246094" xlink:href="#DejaVuSans-36"/>
      </g>
     </g>
    </g>
    <g id="ytick_6">
     <g id="line2d_15">
      <g>
       <use style="stroke:#000000;stroke-width:0.8;" x="57.6" xlink:href="#md65fde9a7e" y="145.406782"/>
      </g>
     </g>
     <g id="text_16">
      <!-- 598 -->
      <g transform="translate(31.5125 149.206001)scale(0.1 -0.1)">
       <use xlink:href="#DejaVuSans-35"/>
       <use x="63.623047" xlink:href="#DejaVuSans-39"/>
       <use x="127.246094" xlink:href="#DejaVuSans-38"/>
      </g>
     </g>
    </g>
    <g id="ytick_7">
     <g id="line2d_16">
      <g>
       <use style="stroke:#000000;stroke-width:0.8;" x="57.6" xlink:href="#md65fde9a7e" y="114.079414"/>
      </g>
     </g>
     <g id="text_17">
      <!-- 600 -->
      <g transform="translate(31.5125 117.878633)scale(0.1 -0.1)">
       <use xlink:href="#DejaVuSans-36"/>
       <use x="63.623047" xlink:href="#DejaVuSans-30"/>
       <use x="127.246094" xlink:href="#DejaVuSans-30"/>
      </g>
     </g>
    </g>
    <g id="ytick_8">
     <g id="line2d_17">
      <g>
       <use style="stroke:#000000;stroke-width:0.8;" x="57.6" xlink:href="#md65fde9a7e" y="82.752045"/>
      </g>
     </g>
     <g id="text_18">
      <!-- 602 -->
      <g transform="translate(31.5125 86.551264)scale(0.1 -0.1)">
       <use xlink:href="#DejaVuSans-36"/>
       <use x="63.623047" xlink:href="#DejaVuSans-30"/>
       <use x="127.246094" xlink:href="#DejaVuSans-32"/>
      </g>
     </g>
    </g>
    <g id="ytick_9">
     <g id="line2d_18">
      <g>
       <use style="stroke:#000000;stroke-width:0.8;" x="57.6" xlink:href="#md65fde9a7e" y="51.424677"/>
      </g>
     </g>
     <g id="text_19">
      <!-- 604 -->
      <g transform="translate(31.5125 55.223896)scale(0.1 -0.1)">
       <use xlink:href="#DejaVuSans-36"/>
       <use x="63.623047" xlink:href="#DejaVuSans-30"/>
       <use x="127.246094" xlink:href="#DejaVuSans-34"/>
      </g>
     </g>
    </g>
    <g id="text_20">
     <!-- times -->
     <defs>
      <path d="M 18.3125 70.21875 
L 18.3125 54.6875 
L 36.8125 54.6875 
L 36.8125 47.703125 
L 18.3125 47.703125 
L 18.3125 18.015625 
Q 18.3125 11.328125 20.140625 9.421875 
Q 21.96875 7.515625 27.59375 7.515625 
L 36.8125 7.515625 
L 36.8125 0 
L 27.59375 0 
Q 17.1875 0 13.234375 3.875 
Q 9.28125 7.765625 9.28125 18.015625 
L 9.28125 47.703125 
L 2.6875 47.703125 
L 2.6875 54.6875 
L 9.28125 54.6875 
L 9.28125 70.21875 
z
" id="DejaVuSans-74"/>
      <path d="M 9.421875 54.6875 
L 18.40625 54.6875 
L 18.40625 0 
L 9.421875 0 
z
M 9.421875 75.984375 
L 18.40625 75.984375 
L 18.40625 64.59375 
L 9.421875 64.59375 
z
" id="DejaVuSans-69"/>
      <path d="M 52 44.1875 
Q 55.375 50.25 60.0625 53.125 
Q 64.75 56 71.09375 56 
Q 79.640625 56 84.28125 50.015625 
Q 88.921875 44.046875 88.921875 33.015625 
L 88.921875 0 
L 79.890625 0 
L 79.890625 32.71875 
Q 79.890625 40.578125 77.09375 44.375 
Q 74.3125 48.1875 68.609375 48.1875 
Q 61.625 48.1875 57.5625 43.546875 
Q 53.515625 38.921875 53.515625 30.90625 
L 53.515625 0 
L 44.484375 0 
L 44.484375 32.71875 
Q 44.484375 40.625 41.703125 44.40625 
Q 38.921875 48.1875 33.109375 48.1875 
Q 26.21875 48.1875 22.15625 43.53125 
Q 18.109375 38.875 18.109375 30.90625 
L 18.109375 0 
L 9.078125 0 
L 9.078125 54.6875 
L 18.109375 54.6875 
L 18.109375 46.1875 
Q 21.1875 51.21875 25.484375 53.609375 
Q 29.78125 56 35.6875 56 
Q 41.65625 56 45.828125 52.96875 
Q 50 49.953125 52 44.1875 
z
" id="DejaVuSans-6d"/>
      <path d="M 44.28125 53.078125 
L 44.28125 44.578125 
Q 40.484375 46.53125 36.375 47.5 
Q 32.28125 48.484375 27.875 48.484375 
Q 21.1875 48.484375 17.84375 46.4375 
Q 14.5 44.390625 14.5 40.28125 
Q 14.5 37.15625 16.890625 35.375 
Q 19.28125 33.59375 26.515625 31.984375 
L 29.59375 31.296875 
Q 39.15625 29.25 43.1875 25.515625 
Q 47.21875 21.78125 47.21875 15.09375 
Q 47.21875 7.46875 41.1875 3.015625 
Q 35.15625 -1.421875 24.609375 -1.421875 
Q 20.21875 -1.421875 15.453125 -0.5625 
Q 10.6875 0.296875 5.421875 2 
L 5.421875 11.28125 
Q 10.40625 8.6875 15.234375 7.390625 
Q 20.0625 6.109375 24.8125 6.109375 
Q 31.15625 6.109375 34.5625 8.28125 
Q 37.984375 10.453125 37.984375 14.40625 
Q 37.984375 18.0625 35.515625 20.015625 
Q 33.0625 21.96875 24.703125 23.78125 
L 21.578125 24.515625 
Q 13.234375 26.265625 9.515625 29.90625 
Q 5.8125 33.546875 5.8125 39.890625 
Q 5.8125 47.609375 11.28125 51.796875 
Q 16.75 56 26.8125 56 
Q 31.78125 56 36.171875 55.265625 
Q 40.578125 54.546875 44.28125 53.078125 
z
" id="DejaVuSans-73"/>
     </defs>
     <g transform="translate(25.432812 188.428781)rotate(-90)scale(0.1 -0.1)">
      <use xlink:href="#DejaVuSans-74"/>
      <use x="39.208984" xlink:href="#DejaVuSans-69"/>
      <use x="66.992188" xlink:href="#DejaVuSans-6d"/>
      <use x="164.404297" xlink:href="#DejaVuSans-65"/>
      <use x="225.927734" xlink:href="#DejaVuSans-73"/>
     </g>
    </g>
   </g>
   <g id="line2d_19">
    <path clip-path="url(#pab42128743)" d="M 73.832727 289.999673 
L 73.995136 165.888015 
L 74.157544 158.259222 
L 74.319953 157.691176 
L 74.64477 149.882425 
L 74.969587 145.897766 
L 75.131995 145.521697 
L 75.294404 144.411975 
L 75.456812 145.294482 
L 75.944037 141.902472 
L 76.106446 144.07433 
L 76.268854 141.353636 
L 76.593671 142.567185 
L 76.75608 144.169497 
L 76.918488 140.720674 
L 77.080897 142.091475 
L 77.243305 140.637771 
L 77.405714 140.186754 
L 77.568122 137.783688 
L 77.730531 141.247741 
L 77.892939 136.88804 
L 78.380165 140.971047 
L 78.542573 139.953545 
L 78.704982 139.753946 
L 78.86739 138.89428 
L 79.029799 140.90061 
L 79.192207 140.144677 
L 79.354615 139.972905 
L 79.517024 140.485108 
L 79.679432 139.370468 
L 79.841841 140.201984 
L 80.004249 138.866219 
L 80.329066 141.054035 
L 80.491475 139.256636 
L 80.653883 139.841498 
L 80.816292 139.321613 
L 81.141109 135.104082 
L 81.465926 140.695541 
L 81.790743 137.964005 
L 81.953151 139.556682 
L 82.277968 140.396167 
L 82.440377 139.636687 
L 82.602785 135.117993 
L 82.765194 142.193211 
L 82.927602 138.187617 
L 83.09001 139.471897 
L 83.252419 139.397461 
L 83.414827 140.249188 
L 83.577236 140.144565 
L 83.902053 136.939647 
L 84.22687 144.27928 
L 84.389278 135.952873 
L 84.551687 139.181498 
L 84.714095 134.959313 
L 84.876504 134.912706 
L 85.201321 140.820572 
L 85.363729 133.733261 
L 85.526138 140.405985 
L 85.688546 139.212218 
L 85.850955 139.762263 
L 86.013363 138.453361 
L 86.175772 139.495567 
L 86.33818 133.832364 
L 86.662997 144.512217 
L 86.825405 139.03143 
L 86.987814 141.183458 
L 87.150222 140.881348 
L 87.312631 130.706326 
L 87.799856 143.744031 
L 87.962265 136.92925 
L 88.124673 140.93598 
L 88.287082 141.768485 
L 88.44949 141.760754 
L 88.774307 148.991168 
L 89.099124 141.802301 
L 89.423941 138.908154 
L 89.748758 149.917193 
L 90.073575 143.488049 
L 90.398392 157.125342 
L 90.5608 148.018017 
L 90.885617 151.102774 
L 91.048026 147.700016 
L 91.210434 151.695464 
L 91.535251 141.632153 
L 91.69766 151.808649 
L 91.860068 153.7326 
L 92.022477 142.154051 
L 92.184885 157.090764 
L 92.347294 150.484264 
L 92.509702 133.448251 
L 92.672111 130.328091 
L 92.834519 130.733457 
L 92.996928 132.299122 
L 93.321745 130.472422 
L 93.484153 130.40181 
L 93.646561 128.935816 
L 93.80897 129.62918 
L 93.971378 128.635449 
L 94.133787 126.549951 
L 94.296195 127.824974 
L 94.458604 127.310709 
L 94.621012 122.765854 
L 94.783421 121.718719 
L 95.108238 122.248927 
L 95.270646 121.856822 
L 95.433055 120.982497 
L 95.595463 122.021495 
L 95.757872 124.790734 
L 95.92028 122.88304 
L 96.082689 128.234474 
L 96.245097 128.033348 
L 96.407506 129.456407 
L 96.569914 123.909206 
L 96.732323 128.435671 
L 96.894731 127.169522 
L 97.057139 126.85754 
L 97.381956 122.301404 
L 97.544365 124.262005 
L 97.869182 121.509911 
L 98.03159 120.928455 
L 98.193999 127.02159 
L 98.518816 119.388824 
L 98.681224 121.48802 
L 98.843633 121.072148 
L 99.16845 127.442638 
L 99.330858 123.44508 
L 99.493267 122.705094 
L 99.818084 125.570347 
L 100.142901 141.111304 
L 100.467717 128.396208 
L 100.792534 128.925953 
L 100.954943 126.177325 
L 101.117351 129.560066 
L 101.27976 129.969906 
L 101.442168 131.115621 
L 101.604577 134.29147 
L 101.929394 132.049201 
L 102.091802 127.768631 
L 102.254211 127.034071 
L 102.579028 131.058222 
L 102.741436 125.394493 
L 103.228662 128.21889 
L 103.553479 131.785089 
L 103.715887 130.459945 
L 103.878296 131.249145 
L 104.040704 136.417868 
L 104.203112 127.791382 
L 104.365521 127.813822 
L 104.690338 136.554552 
L 104.852746 135.900284 
L 105.015155 139.656909 
L 105.177563 139.931956 
L 105.339972 134.86992 
L 105.50238 141.568024 
L 105.664789 141.897456 
L 105.989606 132.296019 
L 106.314423 142.114062 
L 106.476831 136.7607 
L 106.63924 148.228099 
L 106.801648 146.529108 
L 107.126465 136.71263 
L 107.288874 140.820438 
L 107.61369 137.419125 
L 107.776099 131.275892 
L 108.100916 137.17655 
L 108.263324 140.238238 
L 108.425733 132.22662 
L 108.588141 142.118857 
L 108.75055 130.885967 
L 108.912958 137.236817 
L 109.075367 138.253016 
L 109.237775 128.157495 
L 109.400184 136.272051 
L 109.725001 128.304929 
L 110.049818 132.630881 
L 110.212226 128.469013 
L 110.374635 129.036341 
L 110.537043 127.628112 
L 110.699452 129.792909 
L 110.86186 125.022359 
L 111.024268 126.402143 
L 111.186677 130.520919 
L 111.349085 130.027814 
L 111.511494 127.141001 
L 111.673902 133.069003 
L 111.836311 129.816705 
L 111.998719 130.501518 
L 112.161128 132.964388 
L 112.323536 128.526143 
L 112.485945 128.360312 
L 112.648353 128.713444 
L 112.810762 128.255309 
L 113.135579 124.381913 
L 113.297987 124.006534 
L 113.622804 127.883755 
L 113.785213 123.776455 
L 114.272438 125.886922 
L 114.434847 122.742267 
L 114.597255 126.930307 
L 114.759663 122.937698 
L 114.922072 123.201284 
L 115.246889 126.649304 
L 115.409297 126.296168 
L 115.571706 125.443613 
L 115.734114 127.767062 
L 115.896523 124.989234 
L 116.058931 125.347389 
L 116.22134 125.267706 
L 116.383748 124.753314 
L 116.546157 121.413591 
L 116.870974 124.913017 
L 117.033382 125.032409 
L 117.358199 122.894684 
L 117.683016 126.463318 
L 117.845425 124.663275 
L 118.007833 130.579651 
L 118.170241 130.245726 
L 118.33265 133.900519 
L 118.657467 127.975926 
L 119.144692 132.410515 
L 119.307101 128.767886 
L 119.794326 146.301064 
L 119.956735 163.235334 
L 120.119143 159.146792 
L 120.281552 148.770694 
L 120.44396 53.568 
L 120.606369 147.64327 
L 120.768777 158.399124 
L 121.093594 145.876692 
L 121.256003 145.703754 
L 121.418411 139.717886 
L 121.743228 156.649688 
L 121.905636 150.688676 
L 122.230453 155.821963 
L 122.392862 147.611068 
L 122.55527 153.050491 
L 122.717679 152.24176 
L 122.880087 143.785369 
L 123.042496 146.585044 
L 123.204904 144.196135 
L 123.529721 148.942369 
L 123.69213 148.826211 
L 123.854538 156.051262 
L 124.016947 153.038197 
L 124.179355 152.853745 
L 124.341764 143.833925 
L 124.666581 155.714614 
L 124.828989 153.141617 
L 124.991398 145.832987 
L 125.153806 144.493234 
L 125.316214 161.287528 
L 125.478623 152.47002 
L 125.641031 153.503293 
L 125.80344 153.278599 
L 125.965848 158.92885 
L 126.128257 152.336919 
L 126.290665 167.187461 
L 126.615482 153.575507 
L 126.777891 151.534319 
L 126.940299 158.107616 
L 127.265116 137.948657 
L 127.427525 143.463446 
L 127.589933 144.913606 
L 127.752342 140.463411 
L 127.91475 146.672252 
L 128.077159 148.5847 
L 128.239567 154.38 
L 128.401976 139.588403 
L 128.564384 151.020002 
L 128.889201 145.951386 
L 129.214018 139.156353 
L 129.376426 147.177655 
L 129.538835 146.39542 
L 129.863652 137.591088 
L 130.02606 142.477897 
L 130.188469 151.912312 
L 130.350877 144.45351 
L 130.513286 146.97536 
L 130.675694 151.650015 
L 130.838103 143.342889 
L 131.000511 141.312654 
L 131.16292 147.2446 
L 131.325328 140.1003 
L 131.487737 140.047147 
L 131.650145 152.660384 
L 131.974962 142.513599 
L 132.137371 144.212246 
L 132.299779 153.861974 
L 132.462187 146.180077 
L 132.624596 145.21947 
L 132.787004 148.898119 
L 132.949413 143.293653 
L 133.111821 141.77176 
L 133.27423 141.768974 
L 133.436638 143.664087 
L 133.599047 151.854169 
L 133.761455 146.499691 
L 133.923864 151.359477 
L 134.086272 136.427518 
L 134.248681 141.111562 
L 134.411089 135.680179 
L 134.573498 137.314521 
L 134.735906 134.302173 
L 134.898315 143.199543 
L 135.060723 142.81795 
L 135.547949 131.067244 
L 135.710357 133.763679 
L 135.872765 133.533988 
L 136.035174 133.61059 
L 136.522399 138.78664 
L 136.684808 135.974832 
L 136.847216 139.213951 
L 137.334442 134.265694 
L 137.49685 133.536292 
L 137.659259 136.057451 
L 137.984076 133.530399 
L 138.308893 145.267787 
L 138.63371 134.918876 
L 138.796118 140.281473 
L 138.958527 133.824824 
L 139.120935 134.946373 
L 139.283343 137.111427 
L 139.445752 143.263638 
L 139.60816 137.827531 
L 139.770569 136.531323 
L 139.932977 136.198869 
L 140.095386 139.275182 
L 140.257794 131.885913 
L 140.420203 138.040358 
L 140.582611 139.201067 
L 140.74502 135.713591 
L 140.907428 140.704985 
L 141.069837 137.365871 
L 141.232245 141.240746 
L 141.394654 138.313145 
L 141.557062 139.271093 
L 141.719471 134.082027 
L 141.881879 148.859123 
L 142.044288 136.404077 
L 142.206696 134.011154 
L 142.369105 136.051692 
L 142.531513 136.582829 
L 142.693922 133.824339 
L 142.85633 135.002107 
L 143.181147 141.758443 
L 143.343555 139.884755 
L 143.505964 139.871401 
L 143.668372 136.713018 
L 143.830781 140.421651 
L 143.993189 139.326629 
L 144.155598 152.074461 
L 144.318006 139.305555 
L 144.480415 147.589198 
L 144.642823 134.12565 
L 144.805232 141.790952 
L 144.96764 134.687795 
L 145.130049 134.275147 
L 145.292457 134.763374 
L 145.454866 147.083209 
L 145.617274 133.505284 
L 145.779683 140.326044 
L 145.942091 138.37255 
L 146.1045 133.176561 
L 146.429316 141.136381 
L 146.591725 134.04444 
L 146.916542 143.207778 
L 147.07895 135.632045 
L 147.241359 134.841736 
L 147.403767 137.721135 
L 147.566176 136.51572 
L 147.728584 132.243721 
L 147.890993 132.672148 
L 148.053401 142.4284 
L 148.21581 142.591897 
L 148.540627 146.621078 
L 148.703035 138.200867 
L 148.865444 136.630855 
L 149.027852 141.242344 
L 149.352669 138.994141 
L 149.515078 139.103181 
L 149.677486 142.349075 
L 149.839894 138.402915 
L 150.002303 145.407988 
L 150.164711 142.47914 
L 150.32712 148.037377 
L 150.489528 140.035626 
L 150.651937 141.053949 
L 150.814345 132.788347 
L 151.139162 138.662681 
L 151.301571 137.987679 
L 151.626388 143.222137 
L 151.788796 138.874812 
L 152.113613 144.721058 
L 152.276022 158.299853 
L 152.43843 156.538377 
L 152.600839 152.092894 
L 152.763247 162.25756 
L 152.925656 157.44108 
L 153.088064 156.303782 
L 153.250473 150.936969 
L 153.412881 152.694905 
L 153.575289 158.99342 
L 153.737698 154.567626 
L 153.900106 155.395018 
L 154.062515 141.831938 
L 154.224923 145.22958 
L 154.712149 161.375475 
L 154.874557 159.831359 
L 155.036966 147.036236 
L 155.199374 147.80794 
L 155.524191 151.794637 
L 155.6866 162.643391 
L 156.011417 155.544444 
L 156.173825 156.707916 
L 156.336234 159.71458 
L 156.498642 159.435056 
L 156.661051 149.025705 
L 156.823459 152.429363 
L 157.148276 153.533345 
L 157.310684 154.804819 
L 157.473093 154.502944 
L 157.635501 152.285293 
L 157.79791 153.283207 
L 158.122727 147.883355 
L 158.447544 140.585787 
L 158.609952 143.598322 
L 158.772361 144.287586 
L 158.934769 150.054365 
L 159.097178 144.453286 
L 159.259586 144.632726 
L 159.421995 138.164474 
L 159.584403 139.980549 
L 159.746812 136.408334 
L 159.90922 144.109211 
L 160.071629 143.240686 
L 160.234037 144.585996 
L 160.396445 133.919475 
L 160.721262 142.557711 
L 160.883671 142.872907 
L 161.046079 137.231148 
L 161.208488 143.332241 
L 161.370896 145.139966 
L 161.533305 144.750498 
L 161.695713 146.279303 
L 162.02053 139.916633 
L 162.182939 140.402374 
L 162.345347 134.544681 
L 162.507756 142.452457 
L 162.670164 138.046971 
L 162.832573 143.091933 
L 162.994981 142.438106 
L 163.15739 143.834597 
L 163.319798 149.101755 
L 163.482207 143.456253 
L 163.644615 145.595476 
L 163.807024 136.278272 
L 163.969432 136.340456 
L 164.13184 143.62744 
L 164.294249 140.313429 
L 164.456657 141.578865 
L 164.619066 136.610876 
L 164.781474 145.314824 
L 164.943883 146.952807 
L 165.106291 143.856836 
L 165.2687 147.769213 
L 165.431108 143.390123 
L 165.593517 144.63767 
L 165.755925 144.851206 
L 165.918334 139.282636 
L 166.080742 138.453514 
L 166.243151 153.574421 
L 166.567968 142.31558 
L 166.730376 148.314624 
L 166.892785 148.056726 
L 167.055193 141.765531 
L 167.217602 142.983621 
L 167.38001 145.702268 
L 167.542418 138.693599 
L 167.704827 140.197961 
L 167.867235 144.86179 
L 168.192052 138.502821 
L 168.354461 137.219082 
L 168.516869 156.010892 
L 168.679278 152.299592 
L 169.004095 139.912099 
L 169.166503 148.195246 
L 169.653729 143.463939 
L 169.816137 150.98538 
L 169.978546 147.447701 
L 170.140954 149.031994 
L 170.303363 147.119804 
L 170.465771 138.800029 
L 170.62818 138.2062 
L 170.952996 150.51774 
L 171.115405 151.674438 
L 171.277813 147.479803 
L 171.440222 151.307369 
L 171.765039 150.355703 
L 171.927447 152.816692 
L 172.089856 157.386653 
L 172.252264 156.651596 
L 172.414673 167.829573 
L 172.73949 158.113595 
L 172.901898 173.866967 
L 173.064307 169.066993 
L 173.389124 150.817946 
L 173.713941 173.031407 
L 174.038758 160.509901 
L 174.201166 165.046024 
L 174.363575 157.679177 
L 174.525983 167.579947 
L 174.688391 150.782693 
L 174.8508 160.414118 
L 175.013208 161.201417 
L 175.175617 171.229306 
L 175.338025 162.009715 
L 175.500434 159.747134 
L 175.662842 155.660796 
L 175.825251 160.647757 
L 175.987659 160.86422 
L 176.150068 158.289823 
L 176.312476 169.074537 
L 176.474885 161.532571 
L 176.637293 161.015446 
L 176.799702 146.594694 
L 176.96211 146.444458 
L 177.449336 163.893919 
L 177.611744 159.135473 
L 177.774153 159.071247 
L 178.261378 173.46721 
L 178.586195 154.122759 
L 178.748603 154.348974 
L 179.07342 151.816186 
L 179.398237 157.58897 
L 179.560646 160.039916 
L 179.885463 158.966938 
L 180.372688 153.213495 
L 180.535097 154.048244 
L 180.697505 155.563934 
L 181.184731 147.934693 
L 181.347139 149.675368 
L 181.671956 166.515387 
L 181.834364 154.173231 
L 182.32159 144.306303 
L 182.483998 147.529229 
L 182.808815 142.809204 
L 182.971224 155.207475 
L 183.133632 145.648891 
L 183.296041 151.716306 
L 183.620858 147.05911 
L 183.945675 163.261782 
L 184.108083 160.400909 
L 184.4329 146.739365 
L 184.595309 156.848379 
L 184.757717 155.133501 
L 184.920126 155.661741 
L 185.082534 153.834589 
L 185.407351 156.412161 
L 185.569759 155.44499 
L 185.732168 153.273826 
L 185.894576 153.016439 
L 186.219393 146.59922 
L 186.381802 148.897212 
L 186.706619 146.486617 
L 186.869027 151.651953 
L 187.031436 141.879934 
L 187.193844 151.39531 
L 187.356253 150.367706 
L 187.518661 148.324916 
L 187.68107 148.67382 
L 187.843478 152.989783 
L 188.330704 138.261377 
L 188.493112 138.899434 
L 188.65552 141.072387 
L 188.817929 135.971501 
L 188.980337 135.838623 
L 189.305154 143.503544 
L 189.467563 143.970925 
L 189.629971 138.531939 
L 189.954788 142.995803 
L 190.279605 138.97911 
L 190.442014 139.753767 
L 190.604422 137.402305 
L 190.766831 139.523591 
L 191.254056 134.850523 
L 191.741282 153.226913 
L 191.90369 133.748599 
L 192.066099 140.691029 
L 192.228507 140.517483 
L 192.390915 138.292105 
L 192.715732 145.14692 
L 193.040549 134.964612 
L 193.365366 147.77716 
L 193.690183 146.776598 
L 193.852592 143.765042 
L 194.015 143.551312 
L 194.339817 152.435674 
L 194.502226 135.7447 
L 194.664634 147.538857 
L 194.827043 147.181651 
L 194.989451 140.899072 
L 195.15186 143.394268 
L 195.639085 164.484861 
L 195.801493 164.749115 
L 195.963902 164.13887 
L 196.12631 162.948236 
L 196.288719 163.925554 
L 196.451127 165.822399 
L 196.613536 165.169868 
L 196.775944 169.750842 
L 196.938353 177.679068 
L 197.100761 180.12702 
L 197.587987 171.240345 
L 197.750395 169.499771 
L 197.912804 162.770122 
L 198.075212 166.367612 
L 198.400029 178.06636 
L 198.724846 167.290642 
L 198.887255 156.207689 
L 199.212071 168.129638 
L 199.37448 170.287089 
L 199.536888 156.96863 
L 199.861705 171.645066 
L 200.024114 172.811519 
L 200.186522 165.748139 
L 200.348931 171.821604 
L 200.511339 169.793509 
L 200.673748 164.953707 
L 200.836156 181.558444 
L 200.998565 178.988605 
L 201.160973 172.487131 
L 201.323382 183.083077 
L 201.48579 182.259113 
L 201.648199 166.271224 
L 201.810607 176.10453 
L 201.973016 169.541889 
L 202.297833 184.05885 
L 202.460241 179.192611 
L 202.62265 170.283193 
L 202.785058 176.332709 
L 202.947466 167.485931 
L 203.272283 171.115654 
L 203.434692 174.409577 
L 203.5971 174.444633 
L 203.759509 164.605344 
L 203.921917 170.581794 
L 204.084326 168.02189 
L 204.246734 170.672535 
L 204.571551 166.928876 
L 204.73396 177.192924 
L 204.896368 161.398685 
L 205.058777 165.634419 
L 205.221185 162.659969 
L 205.383594 167.192129 
L 205.546002 165.556599 
L 205.708411 168.120481 
L 205.870819 167.416801 
L 206.033228 165.311077 
L 206.358044 179.221859 
L 206.520453 176.686991 
L 206.84527 159.508043 
L 207.007678 174.472888 
L 207.170087 172.096968 
L 207.332495 174.382248 
L 207.494904 167.688345 
L 207.819721 172.352536 
L 207.982129 170.424029 
L 208.144538 186.932214 
L 208.306946 173.415909 
L 208.469355 170.300779 
L 208.631763 173.573038 
L 208.794172 166.676625 
L 209.118989 178.033713 
L 209.281397 170.305182 
L 209.443806 153.158317 
L 209.931031 168.834677 
L 210.093439 169.221109 
L 210.418256 174.23482 
L 210.580665 159.134962 
L 210.743073 159.76298 
L 210.905482 165.254858 
L 211.06789 166.281842 
L 211.230299 163.090274 
L 211.392707 162.707109 
L 211.555116 174.931643 
L 211.717524 171.548215 
L 212.042341 158.492737 
L 212.20475 160.339439 
L 212.367158 167.619589 
L 212.691975 155.451275 
L 212.854384 157.459879 
L 213.016792 157.364085 
L 213.179201 156.617298 
L 213.341609 156.464135 
L 213.504017 155.438309 
L 213.666426 162.148131 
L 213.828834 153.073731 
L 213.991243 152.774902 
L 214.153651 163.321037 
L 214.31606 143.853475 
L 214.478468 155.332461 
L 214.640877 157.775729 
L 214.803285 152.812315 
L 214.965694 154.716928 
L 215.128102 173.595613 
L 215.290511 160.233222 
L 215.452919 163.006255 
L 215.615328 162.876679 
L 215.777736 158.495105 
L 215.940145 172.304249 
L 216.102553 154.07231 
L 216.264962 156.88227 
L 216.42737 167.972542 
L 216.589779 165.95195 
L 216.914595 150.039898 
L 217.077004 155.175003 
L 217.239412 164.699274 
L 217.564229 153.692222 
L 217.726638 156.238451 
L 217.889046 147.180822 
L 218.051455 147.583103 
L 218.213863 146.897663 
L 218.53868 138.544517 
L 218.701089 136.862414 
L 218.863497 136.908498 
L 219.025906 144.037265 
L 219.188314 137.18726 
L 219.350723 141.04716 
L 219.513131 135.774774 
L 219.67554 136.851408 
L 219.837948 137.101213 
L 220.000357 136.485717 
L 220.162765 139.80943 
L 220.325173 137.260972 
L 220.487582 139.540086 
L 220.64999 145.286467 
L 220.812399 139.669625 
L 220.974807 139.983332 
L 221.299624 145.688745 
L 221.462033 137.808508 
L 221.624441 146.714598 
L 221.78685 147.565409 
L 221.949258 146.811773 
L 222.111667 153.328514 
L 222.274075 152.1035 
L 222.436484 155.240611 
L 222.761301 150.253785 
L 223.086118 145.876524 
L 223.248526 146.435771 
L 223.410935 149.972449 
L 223.573343 150.955911 
L 223.735752 145.105485 
L 223.89816 144.296874 
L 224.060568 145.595868 
L 224.385385 159.550867 
L 224.710202 142.586989 
L 224.872611 153.331132 
L 225.035019 144.091606 
L 225.197428 149.294571 
L 225.359836 148.914331 
L 225.522245 147.194744 
L 225.684653 147.434447 
L 225.847062 144.379171 
L 226.00947 152.981477 
L 226.334287 143.793741 
L 226.496696 153.811951 
L 226.659104 149.635293 
L 226.821513 151.241246 
L 226.983921 141.073395 
L 227.308738 138.683191 
L 227.633555 146.399259 
L 227.795963 135.80049 
L 227.958372 136.413353 
L 228.12078 135.109836 
L 228.283189 142.529877 
L 228.608006 144.199567 
L 228.770414 139.494424 
L 228.932823 139.599599 
L 229.095231 138.781326 
L 229.25764 143.329519 
L 229.582457 134.115496 
L 229.744865 137.506001 
L 229.907274 135.467102 
L 230.069682 136.995553 
L 230.394499 143.837663 
L 230.719316 141.604402 
L 231.044133 132.337461 
L 231.206541 135.769419 
L 231.36895 135.637142 
L 231.531358 137.196507 
L 231.856175 133.669016 
L 232.180992 137.502181 
L 232.343401 135.679645 
L 232.505809 142.429931 
L 232.668218 137.575198 
L 232.830626 143.734034 
L 232.993035 136.557636 
L 233.317852 145.621113 
L 233.642669 135.555345 
L 233.805077 146.213504 
L 234.129894 139.586241 
L 234.292303 136.310651 
L 234.454711 136.227614 
L 234.617119 141.094779 
L 234.779528 137.294807 
L 234.941936 138.662935 
L 235.104345 138.559391 
L 235.266753 139.500993 
L 235.429162 139.248611 
L 235.753979 134.719673 
L 235.916387 135.652921 
L 236.078796 135.69518 
L 236.241204 134.738809 
L 236.403613 136.213239 
L 236.72843 132.752817 
L 237.053247 138.112572 
L 237.215655 135.691225 
L 237.378064 137.210366 
L 237.540472 135.264613 
L 237.702881 136.34475 
L 237.865289 136.242014 
L 238.027697 136.318792 
L 238.190106 135.918198 
L 238.514923 137.811585 
L 238.83974 135.009785 
L 239.002148 136.204702 
L 239.164557 138.47132 
L 239.326965 138.7212 
L 239.651782 139.765535 
L 239.814191 138.20884 
L 239.976599 138.288863 
L 240.139008 136.100711 
L 240.301416 138.998059 
L 240.463825 138.276405 
L 240.626233 134.026342 
L 240.788642 139.953381 
L 241.275867 137.622447 
L 241.438276 138.386943 
L 241.763092 135.846936 
L 241.925501 137.123363 
L 242.087909 137.215056 
L 242.250318 140.848693 
L 242.412726 131.312729 
L 242.737543 136.806523 
L 242.899952 136.589544 
L 243.06236 137.440882 
L 243.224769 137.440946 
L 243.387177 140.62187 
L 243.549586 138.857618 
L 243.711994 138.713197 
L 243.874403 137.976165 
L 244.036811 138.09499 
L 244.19922 135.632384 
L 244.361628 139.565081 
L 244.524037 135.255382 
L 244.686445 135.851843 
L 244.848854 135.0879 
L 245.011262 133.638651 
L 245.336079 136.358856 
L 245.498487 135.291502 
L 245.660896 136.372393 
L 245.823304 131.897632 
L 245.985713 133.909612 
L 246.148121 131.075501 
L 246.472938 137.532243 
L 246.635347 139.109381 
L 246.797755 136.569262 
L 246.960164 141.090488 
L 247.122572 133.040046 
L 247.284981 136.937496 
L 247.447389 137.749842 
L 247.609798 136.510499 
L 247.772206 137.504149 
L 247.934615 131.047418 
L 248.097023 134.363905 
L 248.259432 135.370505 
L 248.42184 135.651867 
L 248.584248 136.814675 
L 248.909065 132.04904 
L 249.071474 140.966405 
L 249.233882 132.324002 
L 249.396291 131.649463 
L 249.558699 133.929782 
L 249.721108 131.884785 
L 250.045925 134.256347 
L 250.208333 136.89828 
L 250.370742 135.612558 
L 250.53315 135.335857 
L 250.695559 134.494112 
L 250.857967 135.969955 
L 251.182784 135.0632 
L 251.345193 138.300205 
L 251.507601 136.305941 
L 251.67001 137.173353 
L 251.832418 134.116269 
L 251.994827 137.446211 
L 252.157235 137.140949 
L 252.319643 136.188633 
L 252.482052 135.903521 
L 252.64446 137.237687 
L 252.969277 132.123843 
L 253.294094 133.357689 
L 253.618911 136.571656 
L 253.78132 135.239413 
L 253.943728 136.150141 
L 254.106137 136.334137 
L 254.430954 137.302944 
L 254.593362 136.770814 
L 254.755771 135.838537 
L 254.918179 135.915113 
L 255.080588 137.745331 
L 255.242996 137.798899 
L 255.405405 136.417021 
L 255.567813 137.032211 
L 255.89263 133.570022 
L 256.379855 138.114398 
L 256.542264 136.475686 
L 256.704672 138.690073 
L 256.867081 136.820042 
L 257.029489 136.628659 
L 257.191898 138.666673 
L 257.354306 137.766685 
L 257.516715 138.142769 
L 257.679123 137.639364 
L 257.841532 137.822284 
L 258.00394 138.854635 
L 258.166349 135.372171 
L 258.328757 136.032269 
L 258.491166 138.499318 
L 258.978391 133.584762 
L 259.140799 133.270518 
L 259.303208 133.598236 
L 259.465616 135.69381 
L 259.628025 135.83366 
L 259.790433 136.607556 
L 259.952842 138.093332 
L 260.11525 136.670975 
L 260.277659 139.897449 
L 260.440067 138.888316 
L 260.602476 140.855803 
L 260.764884 137.149755 
L 260.927293 139.543398 
L 261.089701 138.226803 
L 261.25211 138.53099 
L 261.414518 139.248771 
L 261.576927 137.15114 
L 261.739335 137.713308 
L 261.901744 139.193396 
L 262.064152 138.374802 
L 262.226561 138.575117 
L 262.388969 138.407221 
L 262.551378 139.385914 
L 262.876194 139.236571 
L 263.038603 138.511078 
L 263.201011 139.716258 
L 263.36342 140.064919 
L 263.525828 139.211512 
L 263.688237 136.709075 
L 263.850645 137.748995 
L 264.013054 137.777235 
L 264.175462 140.398277 
L 264.337871 140.387025 
L 264.500279 139.16473 
L 264.662688 135.894394 
L 264.825096 135.559502 
L 264.987505 141.764721 
L 265.149913 138.794023 
L 265.312322 139.086578 
L 265.637139 153.804187 
L 265.961956 139.986827 
L 266.124364 151.585889 
L 266.286772 142.054907 
L 266.449181 143.755022 
L 266.611589 148.183419 
L 266.773998 148.065281 
L 266.936406 191.092593 
L 267.098815 191.312862 
L 267.261223 222.353905 
L 267.423632 206.705611 
L 267.58604 213.321895 
L 267.748449 209.540088 
L 267.910857 209.523111 
L 268.073266 217.68359 
L 268.235674 204.464765 
L 268.398083 209.655402 
L 268.560491 210.494487 
L 268.885308 218.811249 
L 269.210125 213.190395 
L 269.372534 220.590098 
L 269.534942 221.220432 
L 269.69735 211.835854 
L 269.859759 211.893944 
L 270.022167 222.346089 
L 270.184576 224.170749 
L 270.346984 224.433021 
L 270.509393 220.640357 
L 270.671801 226.331225 
L 270.83421 226.697783 
L 271.159027 243.041738 
L 271.646252 224.755223 
L 271.808661 225.02211 
L 271.971069 223.382091 
L 272.133478 227.383656 
L 272.295886 225.594615 
L 272.620703 233.599413 
L 272.783112 233.668939 
L 272.94552 228.5499 
L 273.107929 231.14415 
L 273.270337 221.080137 
L 273.595154 230.725171 
L 273.757562 230.219787 
L 273.919971 233.190634 
L 274.082379 225.83772 
L 274.407196 231.79164 
L 274.569605 229.837 
L 274.732013 235.773797 
L 274.894422 235.993785 
L 275.219239 231.445469 
L 275.381647 236.332715 
L 275.544056 233.921108 
L 275.706464 234.772936 
L 275.868873 224.980493 
L 276.031281 225.122277 
L 276.19369 226.397976 
L 276.356098 232.184492 
L 276.518507 229.883412 
L 276.680915 215.578788 
L 277.005732 231.120974 
L 277.16814 220.448799 
L 277.492957 188.915719 
L 277.655366 187.738959 
L 277.817774 156.561897 
L 277.980183 149.422654 
L 278.142591 133.638823 
L 278.305 132.903213 
L 278.629817 141.23349 
L 278.792225 140.908359 
L 279.117042 136.366754 
L 279.279451 140.807247 
L 279.441859 140.152961 
L 279.766676 137.255662 
L 279.929085 137.054905 
L 280.091493 138.608452 
L 280.41631 187.374451 
L 280.578718 200.521989 
L 280.741127 201.268507 
L 280.903535 202.740484 
L 281.065944 216.978824 
L 281.390761 271.596137 
L 281.715578 295.171313 
L 281.877986 295.488 
L 282.202803 248.07562 
L 282.365212 230.791231 
L 282.52762 237.610897 
L 282.690029 231.902705 
L 282.852437 221.648011 
L 283.014846 221.556657 
L 283.177254 230.110627 
L 283.502071 217.395633 
L 283.66448 220.587499 
L 283.826888 230.174715 
L 283.989296 224.536762 
L 284.151705 235.030946 
L 284.314113 225.491912 
L 284.476522 235.787472 
L 284.63893 236.290788 
L 284.801339 231.986253 
L 284.963747 230.926828 
L 285.126156 244.67266 
L 285.288564 244.336393 
L 285.450973 237.015138 
L 285.613381 239.050746 
L 285.77579 244.074249 
L 286.100607 242.232032 
L 286.263015 246.751768 
L 286.587832 240.2061 
L 286.750241 240.010019 
L 287.075058 248.136981 
L 287.237466 241.86748 
L 287.399874 253.741754 
L 287.562283 249.627056 
L 287.724691 250.502687 
L 287.8871 246.455984 
L 288.049508 255.54217 
L 288.374325 249.455911 
L 288.536734 258.261221 
L 288.699142 254.700026 
L 288.861551 254.287912 
L 289.023959 250.429834 
L 289.186368 255.232594 
L 289.348776 249.378068 
L 289.511185 249.024791 
L 289.673593 258.841687 
L 289.836002 254.242108 
L 289.99841 260.878405 
L 290.160819 253.875939 
L 290.323227 261.503832 
L 290.485636 262.975155 
L 290.648044 260.396567 
L 290.810452 263.322573 
L 290.972861 263.191925 
L 291.135269 261.854655 
L 291.297678 267.258683 
L 291.460086 266.108505 
L 291.622495 268.688792 
L 291.784903 253.79121 
L 291.947312 268.268794 
L 292.10972 266.192326 
L 292.272129 266.072938 
L 292.434537 267.603438 
L 292.596946 276.712111 
L 292.759354 273.026501 
L 292.921763 275.080647 
L 293.24658 263.416082 
L 293.408988 261.349906 
L 293.571397 262.283389 
L 294.058622 271.233221 
L 294.383439 261.429354 
L 294.545847 261.696652 
L 294.870664 274.518364 
L 295.195481 269.901774 
L 295.35789 261.213327 
L 295.520298 266.776643 
L 295.682707 259.301417 
L 296.007524 275.200208 
L 296.169932 268.771725 
L 296.494749 266.322978 
L 296.657158 267.411313 
L 296.981975 261.974978 
L 297.144383 275.892706 
L 297.306792 271.548276 
L 297.4692 272.907288 
L 297.631609 264.713093 
L 297.794017 272.286328 
L 297.956425 260.108912 
L 298.118834 259.825246 
L 298.281242 266.92937 
L 298.443651 258.579125 
L 298.606059 267.769422 
L 298.768468 257.503593 
L 298.930876 270.117673 
L 299.093285 267.3972 
L 299.255693 259.386023 
L 299.418102 257.732444 
L 299.58051 267.509056 
L 299.742919 264.784206 
L 299.905327 264.339672 
L 300.067736 268.177134 
L 300.392553 255.086862 
L 300.71737 262.804738 
L 300.879778 263.38851 
L 301.042187 262.028688 
L 301.204595 269.693855 
L 301.367004 263.548149 
L 301.529412 269.521111 
L 301.69182 268.171708 
L 301.854229 264.122013 
L 302.179046 261.633696 
L 302.341454 256.45927 
L 302.503863 264.350468 
L 302.666271 261.6791 
L 302.82868 270.312417 
L 303.478314 247.571931 
L 303.640722 253.761711 
L 303.803131 253.788103 
L 304.127948 265.565175 
L 304.290356 243.851851 
L 304.452765 256.415777 
L 304.615173 243.907346 
L 304.777582 254.197204 
L 304.93999 246.724166 
L 305.264807 253.323727 
L 305.427215 248.183592 
L 305.589624 250.492033 
L 305.752032 251.052732 
L 305.914441 249.222324 
L 306.076849 252.648012 
L 306.239258 261.422307 
L 306.564075 247.786023 
L 306.726483 249.646023 
L 307.0513 250.634377 
L 307.213709 252.467852 
L 307.376117 260.899744 
L 307.538526 256.978266 
L 307.863343 262.228428 
L 308.025751 257.737616 
L 308.18816 258.976335 
L 308.350568 264.287007 
L 308.512976 258.35297 
L 308.675385 243.742296 
L 308.837793 254.622225 
L 309.000202 247.338867 
L 309.487427 258.026096 
L 309.649836 258.965692 
L 309.812244 244.816816 
L 310.137061 257.933312 
L 310.461878 252.519455 
L 310.624287 241.577499 
L 310.949104 252.598519 
L 311.273921 247.262597 
L 311.436329 247.346023 
L 311.761146 245.787214 
L 311.923555 246.958287 
L 312.085963 243.251319 
L 312.248371 245.267041 
L 312.41078 241.115502 
L 312.573188 253.701556 
L 312.735597 250.392493 
L 312.898005 251.898984 
L 313.060414 239.86515 
L 313.385231 234.198728 
L 313.872456 250.019549 
L 314.034865 249.575191 
L 314.359682 242.806901 
L 314.52209 231.910749 
L 314.684499 240.821133 
L 314.846907 243.141767 
L 315.171724 252.609808 
L 315.334133 248.580503 
L 315.496541 255.178305 
L 315.658949 250.528011 
L 315.821358 254.749098 
L 315.983766 253.545546 
L 316.146175 241.518442 
L 316.308583 243.094985 
L 316.470992 254.061507 
L 316.6334 254.93387 
L 316.795809 247.951525 
L 316.958217 249.01231 
L 317.120626 241.256701 
L 317.283034 239.516414 
L 317.607851 242.9752 
L 317.77026 238.069275 
L 317.932668 238.595214 
L 318.095077 237.50279 
L 318.257485 237.532991 
L 318.582302 246.936328 
L 318.744711 233.76418 
L 319.069527 240.823475 
L 319.231936 237.552396 
L 319.394344 239.017759 
L 319.556753 238.40779 
L 320.043978 234.148947 
L 320.206387 230.476139 
L 320.531204 234.799044 
L 320.856021 232.989657 
L 321.018429 238.663989 
L 321.180838 232.088698 
L 321.505655 233.15383 
L 321.668063 232.763431 
L 321.830472 235.871551 
L 322.155289 232.579634 
L 322.480106 228.528956 
L 322.642514 231.723231 
L 322.804922 227.930695 
L 323.292148 235.823342 
L 323.454556 240.518096 
L 323.616965 232.13895 
L 323.941782 241.630746 
L 324.10419 236.34977 
L 324.266599 235.061554 
L 324.429007 232.840306 
L 324.753824 235.680953 
L 324.916233 235.855392 
L 325.078641 241.144015 
L 325.24105 237.578418 
L 325.403458 237.47908 
L 325.565867 238.678983 
L 325.728275 242.353729 
L 325.890684 243.186025 
L 326.053092 242.778478 
L 326.2155 247.370921 
L 326.377909 240.997533 
L 326.702726 248.768178 
L 326.865134 238.333981 
L 327.027543 238.951352 
L 327.189951 250.443069 
L 327.514768 233.36886 
L 327.677177 241.72732 
L 327.839585 226.433331 
L 328.001994 226.962336 
L 328.164402 234.703668 
L 328.326811 234.582401 
L 328.489219 234.791631 
L 328.651628 235.56252 
L 328.814036 239.614639 
L 328.976445 238.2636 
L 329.138853 232.687337 
L 329.46367 241.098044 
L 329.626078 238.979275 
L 329.788487 242.167014 
L 329.950895 243.139978 
L 330.113304 249.500314 
L 330.600529 226.947173 
L 330.762938 239.992292 
L 330.925346 236.716511 
L 331.087755 239.215419 
L 331.250163 239.562509 
L 331.57498 230.963605 
L 331.737389 230.814938 
L 331.899797 225.277204 
L 332.224614 234.522753 
L 332.387023 235.171412 
L 332.549431 237.172734 
L 332.71184 228.38008 
L 332.874248 240.475978 
L 333.199065 239.181585 
L 333.361473 240.552188 
L 333.68629 232.865148 
L 333.848699 236.394189 
L 334.011107 233.158338 
L 334.173516 233.86813 
L 334.335924 233.917202 
L 334.498333 228.542072 
L 334.660741 235.21105 
L 334.82315 233.633988 
L 334.985558 233.622467 
L 335.147967 228.849676 
L 335.472784 246.472049 
L 335.635192 234.387112 
L 335.960009 249.809248 
L 336.122418 247.714675 
L 336.284826 248.202104 
L 336.609643 256.06436 
L 336.772051 250.179794 
L 336.93446 255.006118 
L 337.096868 254.423336 
L 337.259277 255.917044 
L 337.421685 254.748022 
L 337.584094 256.656795 
L 337.746502 252.492608 
L 338.071319 271.101053 
L 338.233728 265.407134 
L 338.396136 254.419986 
L 338.558545 253.314044 
L 338.883362 255.153717 
L 339.04577 253.100874 
L 339.208179 254.2623 
L 339.370587 252.937231 
L 339.532996 255.944508 
L 339.695404 254.896058 
L 339.857813 246.538225 
L 340.020221 252.382257 
L 340.182629 249.611083 
L 340.345038 259.856777 
L 340.507446 258.502747 
L 340.832263 261.936636 
L 340.994672 254.72554 
L 341.15708 263.387778 
L 341.319489 260.131607 
L 341.481897 260.280883 
L 341.644306 256.85173 
L 341.806714 248.669982 
L 342.29394 255.350702 
L 342.456348 264.782002 
L 342.618757 255.147178 
L 342.781165 258.096181 
L 343.105982 256.103811 
L 343.268391 260.131234 
L 343.430799 269.508033 
L 343.755616 249.439232 
L 343.918024 253.300458 
L 344.080433 252.068318 
L 344.242841 260.769122 
L 344.40525 262.50687 
L 344.567658 262.871212 
L 344.730067 258.430152 
L 344.892475 248.268604 
L 345.054884 245.406906 
L 345.217292 252.786742 
L 345.379701 252.306076 
L 345.542109 250.778604 
L 345.704518 251.332855 
L 345.866926 257.708367 
L 346.029335 251.749257 
L 346.191743 255.015813 
L 346.51656 245.65533 
L 346.678969 245.679496 
L 346.841377 246.030973 
L 347.003786 257.143518 
L 347.166194 254.161087 
L 347.491011 256.884485 
L 347.653419 251.966691 
L 347.978236 256.798505 
L 348.140645 258.891327 
L 348.303053 253.889551 
L 348.465462 258.839764 
L 348.62787 241.577398 
L 348.790279 254.530087 
L 348.952687 253.464336 
L 349.277504 257.968954 
L 349.602321 246.83277 
L 349.76473 255.62623 
L 350.251955 243.437537 
L 350.414364 245.283526 
L 350.73918 251.637822 
L 350.901589 255.377949 
L 351.063997 253.004893 
L 351.226406 257.708677 
L 351.388814 249.183586 
L 351.551223 247.576793 
L 351.87604 240.218913 
L 352.038448 257.402025 
L 352.200857 250.812999 
L 352.363265 251.993393 
L 352.525674 248.028161 
L 352.688082 249.08914 
L 352.850491 250.913614 
L 353.012899 250.997977 
L 353.175308 252.021454 
L 353.337716 260.076665 
L 353.500125 259.634779 
L 353.662533 256.407476 
L 353.824942 258.912486 
L 353.98735 244.143823 
L 354.149759 246.558586 
L 354.474575 257.252346 
L 354.636984 251.025736 
L 354.799392 250.213692 
L 354.961801 262.81884 
L 355.124209 261.390414 
L 355.286618 256.049321 
L 355.449026 262.153723 
L 355.611435 244.77797 
L 355.773843 258.184577 
L 355.936252 253.944553 
L 356.09866 257.967539 
L 356.261069 268.837437 
L 356.423477 257.114949 
L 356.585886 261.865336 
L 356.910703 259.148855 
L 357.23552 252.849721 
L 357.397928 245.917967 
L 357.560337 251.891885 
L 357.722745 253.638099 
L 357.885153 264.914869 
L 358.20997 260.685514 
L 358.372379 263.968961 
L 358.534787 260.595579 
L 358.697196 252.542168 
L 359.022013 265.556462 
L 359.34683 271.864578 
L 359.509238 271.555453 
L 359.671647 268.57104 
L 359.834055 257.987649 
L 359.996464 256.333768 
L 360.158872 262.865058 
L 360.321281 258.72551 
L 360.483689 265.680145 
L 360.646098 261.402398 
L 360.808506 267.249283 
L 360.970915 263.376709 
L 361.133323 268.286197 
L 361.295732 254.849384 
L 361.620548 276.680203 
L 362.107774 269.501109 
L 362.270182 268.401392 
L 362.432591 275.611154 
L 362.757408 279.336794 
L 362.919816 266.399469 
L 363.082225 264.994993 
L 363.244633 267.230943 
L 363.407042 278.297591 
L 363.731859 263.846522 
L 363.894267 266.426996 
L 364.056676 274.201804 
L 364.219084 267.535474 
L 364.381493 271.938827 
L 364.543901 272.444301 
L 364.868718 280.013338 
L 365.031126 277.292659 
L 365.193535 283.068756 
L 365.355943 275.645743 
L 365.68076 273.833301 
L 365.843169 277.050301 
L 366.005577 272.460345 
L 366.167986 278.140625 
L 366.330394 276.973512 
L 366.492803 276.994608 
L 366.655211 274.929086 
L 366.81762 282.576891 
L 366.980028 282.243186 
L 367.142437 284.804592 
L 367.304845 284.486236 
L 367.467254 286.076668 
L 367.629662 273.377437 
L 367.792071 273.310828 
L 367.954479 269.83112 
L 368.116888 275.354051 
L 368.279296 285.471901 
L 368.441704 283.24116 
L 368.604113 268.74766 
L 368.766521 270.543688 
L 368.92893 278.822682 
L 369.091338 275.948335 
L 369.416155 274.409357 
L 369.740972 283.090895 
L 370.065789 260.764095 
L 370.228198 280.002639 
L 370.390606 270.424691 
L 370.553015 269.607296 
L 370.715423 275.672474 
L 370.877832 272.335989 
L 371.04024 259.362032 
L 371.202649 276.593267 
L 371.365057 272.307428 
L 371.527466 278.353526 
L 371.689874 275.969219 
L 372.014691 268.797385 
L 372.177099 270.636939 
L 372.339508 268.848443 
L 372.501916 259.940191 
L 372.826733 271.803395 
L 372.989142 271.22561 
L 373.476367 262.120321 
L 373.638776 275.960316 
L 373.801184 275.45408 
L 373.963593 271.012649 
L 374.126001 270.312447 
L 374.28841 272.853667 
L 374.450818 272.656507 
L 374.775635 263.420529 
L 374.938044 264.639437 
L 375.100452 263.882343 
L 375.262861 259.882179 
L 375.425269 268.16037 
L 375.587677 269.920084 
L 376.074903 258.899789 
L 376.39972 272.863041 
L 376.886945 260.913147 
L 377.049354 263.637142 
L 377.211762 263.04312 
L 377.374171 258.970506 
L 377.536579 266.491943 
L 377.698988 262.840571 
L 377.861396 255.496822 
L 378.023805 254.946269 
L 378.186213 259.101826 
L 378.348622 257.106412 
L 378.673439 261.496191 
L 378.998255 254.376602 
L 379.323072 247.057853 
L 379.485481 251.247764 
L 379.647889 250.315304 
L 379.810298 244.128919 
L 379.972706 244.241313 
L 380.297523 258.091215 
L 380.459932 258.213374 
L 380.784749 245.837343 
L 380.947157 241.759575 
L 381.109566 247.306945 
L 381.271974 247.651913 
L 381.434383 250.648415 
L 381.596791 239.194219 
L 381.921608 262.366975 
L 382.246425 244.060611 
L 382.408834 246.540552 
L 382.571242 253.80067 
L 382.896059 246.09545 
L 383.058467 249.172017 
L 383.220876 236.116983 
L 383.545693 248.374115 
L 383.708101 256.669396 
L 383.87051 254.143774 
L 384.032918 243.048449 
L 384.195327 248.951987 
L 384.357735 246.445997 
L 384.520144 245.785661 
L 384.682552 251.616409 
L 384.844961 251.495321 
L 385.007369 249.647697 
L 385.169778 252.42477 
L 385.332186 250.831481 
L 385.494595 247.931512 
L 385.657003 252.998522 
L 385.819412 247.998894 
L 385.98182 249.998998 
L 386.144228 246.17113 
L 386.306637 255.353447 
L 386.469045 253.116828 
L 386.631454 248.873035 
L 386.793862 248.131619 
L 386.956271 259.673703 
L 387.118679 250.433236 
L 387.281088 252.323752 
L 387.443496 261.587339 
L 387.605905 253.942824 
L 387.768313 253.373128 
L 387.930722 254.87265 
L 388.09313 245.488759 
L 388.417947 257.187686 
L 388.580356 254.809825 
L 388.742764 256.393281 
L 388.905173 254.403267 
L 389.067581 263.775476 
L 389.22999 248.738443 
L 389.392398 258.99683 
L 389.554806 248.79734 
L 389.717215 261.194674 
L 389.879623 263.343352 
L 390.042032 262.049713 
L 390.20444 254.074925 
L 390.366849 259.796976 
L 390.529257 261.1382 
L 390.691666 259.611584 
L 390.854074 261.884498 
L 391.178891 249.260513 
L 391.3413 247.743898 
L 391.503708 243.219464 
L 391.666117 247.219053 
L 391.828525 236.991001 
L 392.153342 256.028493 
L 392.315751 246.451726 
L 392.478159 254.031298 
L 392.640568 252.26959 
L 392.802976 258.009141 
L 392.965385 255.67265 
L 393.127793 259.323671 
L 393.290201 257.029754 
L 393.45261 250.32988 
L 393.777427 257.877455 
L 393.939835 259.963924 
L 394.102244 248.812077 
L 394.264652 256.804488 
L 394.589469 247.963965 
L 394.751878 253.607338 
L 395.076695 236.625844 
L 395.239103 238.076482 
L 395.401512 242.206582 
L 395.56392 241.429534 
L 395.726329 242.446281 
L 395.888737 241.430919 
L 396.051146 237.874781 
L 396.213554 239.009491 
L 396.538371 235.56326 
L 396.700779 232.50125 
L 396.863188 236.342406 
L 397.025596 235.261548 
L 397.188005 236.311723 
L 397.512822 255.686438 
L 397.67523 239.842175 
L 397.837639 239.763015 
L 398.000047 252.080829 
L 398.162456 247.168954 
L 398.324864 253.965141 
L 398.487273 249.732952 
L 398.487273 249.732952 
" style="fill:none;stroke:#1f77b4;stroke-linecap:square;stroke-width:1.5;"/>
   </g>
   <g id="patch_3">
    <path d="M 57.6 307.584 
L 57.6 41.472 
" style="fill:none;stroke:#000000;stroke-linecap:square;stroke-linejoin:miter;stroke-width:0.8;"/>
   </g>
   <g id="patch_4">
    <path d="M 414.72 307.584 
L 414.72 41.472 
" style="fill:none;stroke:#000000;stroke-linecap:square;stroke-linejoin:miter;stroke-width:0.8;"/>
   </g>
   <g id="patch_5">
    <path d="M 57.6 307.584 
L 414.72 307.584 
" style="fill:none;stroke:#000000;stroke-linecap:square;stroke-linejoin:miter;stroke-width:0.8;"/>
   </g>
   <g id="patch_6">
    <path d="M 57.6 41.472 
L 414.72 41.472 
" style="fill:none;stroke:#000000;stroke-linecap:square;stroke-linejoin:miter;stroke-width:0.8;"/>
   </g>
   <g id="text_21">
    <!-- model times -->
    <defs>
     <path d="M 45.40625 46.390625 
L 45.40625 75.984375 
L 54.390625 75.984375 
L 54.390625 0 
L 45.40625 0 
L 45.40625 8.203125 
Q 42.578125 3.328125 38.25 0.953125 
Q 33.9375 -1.421875 27.875 -1.421875 
Q 17.96875 -1.421875 11.734375 6.484375 
Q 5.515625 14.40625 5.515625 27.296875 
Q 5.515625 40.1875 11.734375 48.09375 
Q 17.96875 56 27.875 56 
Q 33.9375 56 38.25 53.625 
Q 42.578125 51.265625 45.40625 46.390625 
z
M 14.796875 27.296875 
Q 14.796875 17.390625 18.875 11.75 
Q 22.953125 6.109375 30.078125 6.109375 
Q 37.203125 6.109375 41.296875 11.75 
Q 45.40625 17.390625 45.40625 27.296875 
Q 45.40625 37.203125 41.296875 42.84375 
Q 37.203125 48.484375 30.078125 48.484375 
Q 22.953125 48.484375 18.875 42.84375 
Q 14.796875 37.203125 14.796875 27.296875 
z
" id="DejaVuSans-64"/>
     <path d="M 9.421875 75.984375 
L 18.40625 75.984375 
L 18.40625 0 
L 9.421875 0 
z
" id="DejaVuSans-6c"/>
     <path id="DejaVuSans-20"/>
    </defs>
    <g transform="translate(198.88875 35.472)scale(0.12 -0.12)">
     <use xlink:href="#DejaVuSans-6d"/>
     <use x="97.412109" xlink:href="#DejaVuSans-6f"/>
     <use x="158.59375" xlink:href="#DejaVuSans-64"/>
     <use x="222.070312" xlink:href="#DejaVuSans-65"/>
     <use x="283.59375" xlink:href="#DejaVuSans-6c"/>
     <use x="311.376953" xlink:href="#DejaVuSans-20"/>
     <use x="343.164062" xlink:href="#DejaVuSans-74"/>
     <use x="382.373047" xlink:href="#DejaVuSans-69"/>
     <use x="410.15625" xlink:href="#DejaVuSans-6d"/>
     <use x="507.568359" xlink:href="#DejaVuSans-65"/>
     <use x="569.091797" xlink:href="#DejaVuSans-73"/>
    </g>
   </g>
  </g>
 </g>
 <defs>
  <clipPath id="pab42128743">
   <rect height="266.112" width="357.12" x="57.6" y="41.472"/>
  </clipPath>
 </defs>
</svg>
