<?xml version="1.0" encoding="utf-8" standalone="no"?>
<!DOCTYPE svg PUBLIC "-//W3C//DTD SVG 1.1//EN"
  "http://www.w3.org/Graphics/SVG/1.1/DTD/svg11.dtd">
<!-- Created with matplotlib (http://matplotlib.org/) -->
<svg height="345pt" version="1.1" viewBox="0 0 460 345" width="460pt" xmlns="http://www.w3.org/2000/svg" xmlns:xlink="http://www.w3.org/1999/xlink">
 <defs>
  <style type="text/css">
*{stroke-linecap:butt;stroke-linejoin:round;}
  </style>
 </defs>
 <g id="figure_1">
  <g id="patch_1">
   <path d="M 0 345.6 
L 460.8 345.6 
L 460.8 0 
L 0 0 
z
" style="fill:#ffffff;"/>
  </g>
  <g id="axes_1">
   <g id="patch_2">
    <path d="M 57.6 307.584 
L 414.72 307.584 
L 414.72 41.472 
L 57.6 41.472 
z
" style="fill:#ffffff;"/>
   </g>
   <g id="matplotlib.axis_1">
    <g id="xtick_1">
     <g id="line2d_1">
      <defs>
       <path d="M 0 0 
L 0 3.5 
" id="mffdff48da5" style="stroke:#000000;stroke-width:0.8;"/>
      </defs>
      <g>
       <use style="stroke:#000000;stroke-width:0.8;" x="73.832727" xlink:href="#mffdff48da5" y="307.584"/>
      </g>
     </g>
     <g id="text_1">
      <!-- 0 -->
      <defs>
       <path d="M 31.78125 66.40625 
Q 24.171875 66.40625 20.328125 58.90625 
Q 16.5 51.421875 16.5 36.375 
Q 16.5 21.390625 20.328125 13.890625 
Q 24.171875 6.390625 31.78125 6.390625 
Q 39.453125 6.390625 43.28125 13.890625 
Q 47.125 21.390625 47.125 36.375 
Q 47.125 51.421875 43.28125 58.90625 
Q 39.453125 66.40625 31.78125 66.40625 
z
M 31.78125 74.21875 
Q 44.046875 74.21875 50.515625 64.515625 
Q 56.984375 54.828125 56.984375 36.375 
Q 56.984375 17.96875 50.515625 8.265625 
Q 44.046875 -1.421875 31.78125 -1.421875 
Q 19.53125 -1.421875 13.0625 8.265625 
Q 6.59375 17.96875 6.59375 36.375 
Q 6.59375 54.828125 13.0625 64.515625 
Q 19.53125 74.21875 31.78125 74.21875 
z
" id="DejaVuSans-30"/>
      </defs>
      <g transform="translate(70.651477 322.182437)scale(0.1 -0.1)">
       <use xlink:href="#DejaVuSans-30"/>
      </g>
     </g>
    </g>
    <g id="xtick_2">
     <g id="line2d_2">
      <g>
       <use style="stroke:#000000;stroke-width:0.8;" x="114.434847" xlink:href="#mffdff48da5" y="307.584"/>
      </g>
     </g>
     <g id="text_2">
      <!-- 250 -->
      <defs>
       <path d="M 19.1875 8.296875 
L 53.609375 8.296875 
L 53.609375 0 
L 7.328125 0 
L 7.328125 8.296875 
Q 12.9375 14.109375 22.625 23.890625 
Q 32.328125 33.6875 34.8125 36.53125 
Q 39.546875 41.84375 41.421875 45.53125 
Q 43.3125 49.21875 43.3125 52.78125 
Q 43.3125 58.59375 39.234375 62.25 
Q 35.15625 65.921875 28.609375 65.921875 
Q 23.96875 65.921875 18.8125 64.3125 
Q 13.671875 62.703125 7.8125 59.421875 
L 7.8125 69.390625 
Q 13.765625 71.78125 18.9375 73 
Q 24.125 74.21875 28.421875 74.21875 
Q 39.75 74.21875 46.484375 68.546875 
Q 53.21875 62.890625 53.21875 53.421875 
Q 53.21875 48.921875 51.53125 44.890625 
Q 49.859375 40.875 45.40625 35.40625 
Q 44.1875 33.984375 37.640625 27.21875 
Q 31.109375 20.453125 19.1875 8.296875 
z
" id="DejaVuSans-32"/>
       <path d="M 10.796875 72.90625 
L 49.515625 72.90625 
L 49.515625 64.59375 
L 19.828125 64.59375 
L 19.828125 46.734375 
Q 21.96875 47.46875 24.109375 47.828125 
Q 26.265625 48.1875 28.421875 48.1875 
Q 40.625 48.1875 47.75 41.5 
Q 54.890625 34.8125 54.890625 23.390625 
Q 54.890625 11.625 47.5625 5.09375 
Q 40.234375 -1.421875 26.90625 -1.421875 
Q 22.3125 -1.421875 17.546875 -0.640625 
Q 12.796875 0.140625 7.71875 1.703125 
L 7.71875 11.625 
Q 12.109375 9.234375 16.796875 8.0625 
Q 21.484375 6.890625 26.703125 6.890625 
Q 35.15625 6.890625 40.078125 11.328125 
Q 45.015625 15.765625 45.015625 23.390625 
Q 45.015625 31 40.078125 35.4375 
Q 35.15625 39.890625 26.703125 39.890625 
Q 22.75 39.890625 18.8125 39.015625 
Q 14.890625 38.140625 10.796875 36.28125 
z
" id="DejaVuSans-35"/>
      </defs>
      <g transform="translate(104.891097 322.182437)scale(0.1 -0.1)">
       <use xlink:href="#DejaVuSans-32"/>
       <use x="63.623047" xlink:href="#DejaVuSans-35"/>
       <use x="127.246094" xlink:href="#DejaVuSans-30"/>
      </g>
     </g>
    </g>
    <g id="xtick_3">
     <g id="line2d_3">
      <g>
       <use style="stroke:#000000;stroke-width:0.8;" x="155.036966" xlink:href="#mffdff48da5" y="307.584"/>
      </g>
     </g>
     <g id="text_3">
      <!-- 500 -->
      <g transform="translate(145.493216 322.182437)scale(0.1 -0.1)">
       <use xlink:href="#DejaVuSans-35"/>
       <use x="63.623047" xlink:href="#DejaVuSans-30"/>
       <use x="127.246094" xlink:href="#DejaVuSans-30"/>
      </g>
     </g>
    </g>
    <g id="xtick_4">
     <g id="line2d_4">
      <g>
       <use style="stroke:#000000;stroke-width:0.8;" x="195.639085" xlink:href="#mffdff48da5" y="307.584"/>
      </g>
     </g>
     <g id="text_4">
      <!-- 750 -->
      <defs>
       <path d="M 8.203125 72.90625 
L 55.078125 72.90625 
L 55.078125 68.703125 
L 28.609375 0 
L 18.3125 0 
L 43.21875 64.59375 
L 8.203125 64.59375 
z
" id="DejaVuSans-37"/>
      </defs>
      <g transform="translate(186.095335 322.182437)scale(0.1 -0.1)">
       <use xlink:href="#DejaVuSans-37"/>
       <use x="63.623047" xlink:href="#DejaVuSans-35"/>
       <use x="127.246094" xlink:href="#DejaVuSans-30"/>
      </g>
     </g>
    </g>
    <g id="xtick_5">
     <g id="line2d_5">
      <g>
       <use style="stroke:#000000;stroke-width:0.8;" x="236.241204" xlink:href="#mffdff48da5" y="307.584"/>
      </g>
     </g>
     <g id="text_5">
      <!-- 1000 -->
      <defs>
       <path d="M 12.40625 8.296875 
L 28.515625 8.296875 
L 28.515625 63.921875 
L 10.984375 60.40625 
L 10.984375 69.390625 
L 28.421875 72.90625 
L 38.28125 72.90625 
L 38.28125 8.296875 
L 54.390625 8.296875 
L 54.390625 0 
L 12.40625 0 
z
" id="DejaVuSans-31"/>
      </defs>
      <g transform="translate(223.516204 322.182437)scale(0.1 -0.1)">
       <use xlink:href="#DejaVuSans-31"/>
       <use x="63.623047" xlink:href="#DejaVuSans-30"/>
       <use x="127.246094" xlink:href="#DejaVuSans-30"/>
       <use x="190.869141" xlink:href="#DejaVuSans-30"/>
      </g>
     </g>
    </g>
    <g id="xtick_6">
     <g id="line2d_6">
      <g>
       <use style="stroke:#000000;stroke-width:0.8;" x="276.843323" xlink:href="#mffdff48da5" y="307.584"/>
      </g>
     </g>
     <g id="text_6">
      <!-- 1250 -->
      <g transform="translate(264.118323 322.182437)scale(0.1 -0.1)">
       <use xlink:href="#DejaVuSans-31"/>
       <use x="63.623047" xlink:href="#DejaVuSans-32"/>
       <use x="127.246094" xlink:href="#DejaVuSans-35"/>
       <use x="190.869141" xlink:href="#DejaVuSans-30"/>
      </g>
     </g>
    </g>
    <g id="xtick_7">
     <g id="line2d_7">
      <g>
       <use style="stroke:#000000;stroke-width:0.8;" x="317.445443" xlink:href="#mffdff48da5" y="307.584"/>
      </g>
     </g>
     <g id="text_7">
      <!-- 1500 -->
      <g transform="translate(304.720443 322.182437)scale(0.1 -0.1)">
       <use xlink:href="#DejaVuSans-31"/>
       <use x="63.623047" xlink:href="#DejaVuSans-35"/>
       <use x="127.246094" xlink:href="#DejaVuSans-30"/>
       <use x="190.869141" xlink:href="#DejaVuSans-30"/>
      </g>
     </g>
    </g>
    <g id="xtick_8">
     <g id="line2d_8">
      <g>
       <use style="stroke:#000000;stroke-width:0.8;" x="358.047562" xlink:href="#mffdff48da5" y="307.584"/>
      </g>
     </g>
     <g id="text_8">
      <!-- 1750 -->
      <g transform="translate(345.322562 322.182437)scale(0.1 -0.1)">
       <use xlink:href="#DejaVuSans-31"/>
       <use x="63.623047" xlink:href="#DejaVuSans-37"/>
       <use x="127.246094" xlink:href="#DejaVuSans-35"/>
       <use x="190.869141" xlink:href="#DejaVuSans-30"/>
      </g>
     </g>
    </g>
    <g id="xtick_9">
     <g id="line2d_9">
      <g>
       <use style="stroke:#000000;stroke-width:0.8;" x="398.649681" xlink:href="#mffdff48da5" y="307.584"/>
      </g>
     </g>
     <g id="text_9">
      <!-- 2000 -->
      <g transform="translate(385.924681 322.182437)scale(0.1 -0.1)">
       <use xlink:href="#DejaVuSans-32"/>
       <use x="63.623047" xlink:href="#DejaVuSans-30"/>
       <use x="127.246094" xlink:href="#DejaVuSans-30"/>
       <use x="190.869141" xlink:href="#DejaVuSans-30"/>
      </g>
     </g>
    </g>
    <g id="text_10">
     <!-- epoch -->
     <defs>
      <path d="M 56.203125 29.59375 
L 56.203125 25.203125 
L 14.890625 25.203125 
Q 15.484375 15.921875 20.484375 11.0625 
Q 25.484375 6.203125 34.421875 6.203125 
Q 39.59375 6.203125 44.453125 7.46875 
Q 49.3125 8.734375 54.109375 11.28125 
L 54.109375 2.78125 
Q 49.265625 0.734375 44.1875 -0.34375 
Q 39.109375 -1.421875 33.890625 -1.421875 
Q 20.796875 -1.421875 13.15625 6.1875 
Q 5.515625 13.8125 5.515625 26.8125 
Q 5.515625 40.234375 12.765625 48.109375 
Q 20.015625 56 32.328125 56 
Q 43.359375 56 49.78125 48.890625 
Q 56.203125 41.796875 56.203125 29.59375 
z
M 47.21875 32.234375 
Q 47.125 39.59375 43.09375 43.984375 
Q 39.0625 48.390625 32.421875 48.390625 
Q 24.90625 48.390625 20.390625 44.140625 
Q 15.875 39.890625 15.1875 32.171875 
z
" id="DejaVuSans-65"/>
      <path d="M 18.109375 8.203125 
L 18.109375 -20.796875 
L 9.078125 -20.796875 
L 9.078125 54.6875 
L 18.109375 54.6875 
L 18.109375 46.390625 
Q 20.953125 51.265625 25.265625 53.625 
Q 29.59375 56 35.59375 56 
Q 45.5625 56 51.78125 48.09375 
Q 58.015625 40.1875 58.015625 27.296875 
Q 58.015625 14.40625 51.78125 6.484375 
Q 45.5625 -1.421875 35.59375 -1.421875 
Q 29.59375 -1.421875 25.265625 0.953125 
Q 20.953125 3.328125 18.109375 8.203125 
z
M 48.6875 27.296875 
Q 48.6875 37.203125 44.609375 42.84375 
Q 40.53125 48.484375 33.40625 48.484375 
Q 26.265625 48.484375 22.1875 42.84375 
Q 18.109375 37.203125 18.109375 27.296875 
Q 18.109375 17.390625 22.1875 11.75 
Q 26.265625 6.109375 33.40625 6.109375 
Q 40.53125 6.109375 44.609375 11.75 
Q 48.6875 17.390625 48.6875 27.296875 
z
" id="DejaVuSans-70"/>
      <path d="M 30.609375 48.390625 
Q 23.390625 48.390625 19.1875 42.75 
Q 14.984375 37.109375 14.984375 27.296875 
Q 14.984375 17.484375 19.15625 11.84375 
Q 23.34375 6.203125 30.609375 6.203125 
Q 37.796875 6.203125 41.984375 11.859375 
Q 46.1875 17.53125 46.1875 27.296875 
Q 46.1875 37.015625 41.984375 42.703125 
Q 37.796875 48.390625 30.609375 48.390625 
z
M 30.609375 56 
Q 42.328125 56 49.015625 48.375 
Q 55.71875 40.765625 55.71875 27.296875 
Q 55.71875 13.875 49.015625 6.21875 
Q 42.328125 -1.421875 30.609375 -1.421875 
Q 18.84375 -1.421875 12.171875 6.21875 
Q 5.515625 13.875 5.515625 27.296875 
Q 5.515625 40.765625 12.171875 48.375 
Q 18.84375 56 30.609375 56 
z
" id="DejaVuSans-6f"/>
      <path d="M 48.78125 52.59375 
L 48.78125 44.1875 
Q 44.96875 46.296875 41.140625 47.34375 
Q 37.3125 48.390625 33.40625 48.390625 
Q 24.65625 48.390625 19.8125 42.84375 
Q 14.984375 37.3125 14.984375 27.296875 
Q 14.984375 17.28125 19.8125 11.734375 
Q 24.65625 6.203125 33.40625 6.203125 
Q 37.3125 6.203125 41.140625 7.25 
Q 44.96875 8.296875 48.78125 10.40625 
L 48.78125 2.09375 
Q 45.015625 0.34375 40.984375 -0.53125 
Q 36.96875 -1.421875 32.421875 -1.421875 
Q 20.0625 -1.421875 12.78125 6.34375 
Q 5.515625 14.109375 5.515625 27.296875 
Q 5.515625 40.671875 12.859375 48.328125 
Q 20.21875 56 33.015625 56 
Q 37.15625 56 41.109375 55.140625 
Q 45.0625 54.296875 48.78125 52.59375 
z
" id="DejaVuSans-63"/>
      <path d="M 54.890625 33.015625 
L 54.890625 0 
L 45.90625 0 
L 45.90625 32.71875 
Q 45.90625 40.484375 42.875 44.328125 
Q 39.84375 48.1875 33.796875 48.1875 
Q 26.515625 48.1875 22.3125 43.546875 
Q 18.109375 38.921875 18.109375 30.90625 
L 18.109375 0 
L 9.078125 0 
L 9.078125 75.984375 
L 18.109375 75.984375 
L 18.109375 46.1875 
Q 21.34375 51.125 25.703125 53.5625 
Q 30.078125 56 35.796875 56 
Q 45.21875 56 50.046875 50.171875 
Q 54.890625 44.34375 54.890625 33.015625 
z
" id="DejaVuSans-68"/>
     </defs>
     <g transform="translate(220.931875 335.860562)scale(0.1 -0.1)">
      <use xlink:href="#DejaVuSans-65"/>
      <use x="61.523438" xlink:href="#DejaVuSans-70"/>
      <use x="125" xlink:href="#DejaVuSans-6f"/>
      <use x="186.181641" xlink:href="#DejaVuSans-63"/>
      <use x="241.162109" xlink:href="#DejaVuSans-68"/>
     </g>
    </g>
   </g>
   <g id="matplotlib.axis_2">
    <g id="ytick_1">
     <g id="line2d_10">
      <defs>
       <path d="M 0 0 
L -3.5 0 
" id="m9ab8b79967" style="stroke:#000000;stroke-width:0.8;"/>
      </defs>
      <g>
       <use style="stroke:#000000;stroke-width:0.8;" x="57.6" xlink:href="#m9ab8b79967" y="295.491432"/>
      </g>
     </g>
     <g id="text_11">
      <!-- 0 -->
      <g transform="translate(44.2375 299.290651)scale(0.1 -0.1)">
       <use xlink:href="#DejaVuSans-30"/>
      </g>
     </g>
    </g>
    <g id="ytick_2">
     <g id="line2d_11">
      <g>
       <use style="stroke:#000000;stroke-width:0.8;" x="57.6" xlink:href="#m9ab8b79967" y="249.592897"/>
      </g>
     </g>
     <g id="text_12">
      <!-- 500000 -->
      <g transform="translate(12.425 253.392116)scale(0.1 -0.1)">
       <use xlink:href="#DejaVuSans-35"/>
       <use x="63.623047" xlink:href="#DejaVuSans-30"/>
       <use x="127.246094" xlink:href="#DejaVuSans-30"/>
       <use x="190.869141" xlink:href="#DejaVuSans-30"/>
       <use x="254.492188" xlink:href="#DejaVuSans-30"/>
       <use x="318.115234" xlink:href="#DejaVuSans-30"/>
      </g>
     </g>
    </g>
    <g id="ytick_3">
     <g id="line2d_12">
      <g>
       <use style="stroke:#000000;stroke-width:0.8;" x="57.6" xlink:href="#m9ab8b79967" y="203.694363"/>
      </g>
     </g>
     <g id="text_13">
      <!-- 1000000 -->
      <g transform="translate(6.0625 207.493581)scale(0.1 -0.1)">
       <use xlink:href="#DejaVuSans-31"/>
       <use x="63.623047" xlink:href="#DejaVuSans-30"/>
       <use x="127.246094" xlink:href="#DejaVuSans-30"/>
       <use x="190.869141" xlink:href="#DejaVuSans-30"/>
       <use x="254.492188" xlink:href="#DejaVuSans-30"/>
       <use x="318.115234" xlink:href="#DejaVuSans-30"/>
       <use x="381.738281" xlink:href="#DejaVuSans-30"/>
      </g>
     </g>
    </g>
    <g id="ytick_4">
     <g id="line2d_13">
      <g>
       <use style="stroke:#000000;stroke-width:0.8;" x="57.6" xlink:href="#m9ab8b79967" y="157.795828"/>
      </g>
     </g>
     <g id="text_14">
      <!-- 1500000 -->
      <g transform="translate(6.0625 161.595046)scale(0.1 -0.1)">
       <use xlink:href="#DejaVuSans-31"/>
       <use x="63.623047" xlink:href="#DejaVuSans-35"/>
       <use x="127.246094" xlink:href="#DejaVuSans-30"/>
       <use x="190.869141" xlink:href="#DejaVuSans-30"/>
       <use x="254.492188" xlink:href="#DejaVuSans-30"/>
       <use x="318.115234" xlink:href="#DejaVuSans-30"/>
       <use x="381.738281" xlink:href="#DejaVuSans-30"/>
      </g>
     </g>
    </g>
    <g id="ytick_5">
     <g id="line2d_14">
      <g>
       <use style="stroke:#000000;stroke-width:0.8;" x="57.6" xlink:href="#m9ab8b79967" y="111.897293"/>
      </g>
     </g>
     <g id="text_15">
      <!-- 2000000 -->
      <g transform="translate(6.0625 115.696511)scale(0.1 -0.1)">
       <use xlink:href="#DejaVuSans-32"/>
       <use x="63.623047" xlink:href="#DejaVuSans-30"/>
       <use x="127.246094" xlink:href="#DejaVuSans-30"/>
       <use x="190.869141" xlink:href="#DejaVuSans-30"/>
       <use x="254.492188" xlink:href="#DejaVuSans-30"/>
       <use x="318.115234" xlink:href="#DejaVuSans-30"/>
       <use x="381.738281" xlink:href="#DejaVuSans-30"/>
      </g>
     </g>
    </g>
    <g id="ytick_6">
     <g id="line2d_15">
      <g>
       <use style="stroke:#000000;stroke-width:0.8;" x="57.6" xlink:href="#m9ab8b79967" y="65.998758"/>
      </g>
     </g>
     <g id="text_16">
      <!-- 2500000 -->
      <g transform="translate(6.0625 69.797976)scale(0.1 -0.1)">
       <use xlink:href="#DejaVuSans-32"/>
       <use x="63.623047" xlink:href="#DejaVuSans-35"/>
       <use x="127.246094" xlink:href="#DejaVuSans-30"/>
       <use x="190.869141" xlink:href="#DejaVuSans-30"/>
       <use x="254.492188" xlink:href="#DejaVuSans-30"/>
       <use x="318.115234" xlink:href="#DejaVuSans-30"/>
       <use x="381.738281" xlink:href="#DejaVuSans-30"/>
      </g>
     </g>
    </g>
    <g id="text_17">
     <!-- perplexity -->
     <defs>
      <path d="M 41.109375 46.296875 
Q 39.59375 47.171875 37.8125 47.578125 
Q 36.03125 48 33.890625 48 
Q 26.265625 48 22.1875 43.046875 
Q 18.109375 38.09375 18.109375 28.8125 
L 18.109375 0 
L 9.078125 0 
L 9.078125 54.6875 
L 18.109375 54.6875 
L 18.109375 46.1875 
Q 20.953125 51.171875 25.484375 53.578125 
Q 30.03125 56 36.53125 56 
Q 37.453125 56 38.578125 55.875 
Q 39.703125 55.765625 41.0625 55.515625 
z
" id="DejaVuSans-72"/>
      <path d="M 9.421875 75.984375 
L 18.40625 75.984375 
L 18.40625 0 
L 9.421875 0 
z
" id="DejaVuSans-6c"/>
      <path d="M 54.890625 54.6875 
L 35.109375 28.078125 
L 55.90625 0 
L 45.3125 0 
L 29.390625 21.484375 
L 13.484375 0 
L 2.875 0 
L 24.125 28.609375 
L 4.6875 54.6875 
L 15.28125 54.6875 
L 29.78125 35.203125 
L 44.28125 54.6875 
z
" id="DejaVuSans-78"/>
      <path d="M 9.421875 54.6875 
L 18.40625 54.6875 
L 18.40625 0 
L 9.421875 0 
z
M 9.421875 75.984375 
L 18.40625 75.984375 
L 18.40625 64.59375 
L 9.421875 64.59375 
z
" id="DejaVuSans-69"/>
      <path d="M 18.3125 70.21875 
L 18.3125 54.6875 
L 36.8125 54.6875 
L 36.8125 47.703125 
L 18.3125 47.703125 
L 18.3125 18.015625 
Q 18.3125 11.328125 20.140625 9.421875 
Q 21.96875 7.515625 27.59375 7.515625 
L 36.8125 7.515625 
L 36.8125 0 
L 27.59375 0 
Q 17.1875 0 13.234375 3.875 
Q 9.28125 7.765625 9.28125 18.015625 
L 9.28125 47.703125 
L 2.6875 47.703125 
L 2.6875 54.6875 
L 9.28125 54.6875 
L 9.28125 70.21875 
z
" id="DejaVuSans-74"/>
      <path d="M 32.171875 -5.078125 
Q 28.375 -14.84375 24.75 -17.8125 
Q 21.140625 -20.796875 15.09375 -20.796875 
L 7.90625 -20.796875 
L 7.90625 -13.28125 
L 13.1875 -13.28125 
Q 16.890625 -13.28125 18.9375 -11.515625 
Q 21 -9.765625 23.484375 -3.21875 
L 25.09375 0.875 
L 2.984375 54.6875 
L 12.5 54.6875 
L 29.59375 11.921875 
L 46.6875 54.6875 
L 56.203125 54.6875 
z
" id="DejaVuSans-79"/>
     </defs>
     <g transform="translate(-0.017188 199.741281)rotate(-90)scale(0.1 -0.1)">
      <use xlink:href="#DejaVuSans-70"/>
      <use x="63.476562" xlink:href="#DejaVuSans-65"/>
      <use x="125" xlink:href="#DejaVuSans-72"/>
      <use x="166.113281" xlink:href="#DejaVuSans-70"/>
      <use x="229.589844" xlink:href="#DejaVuSans-6c"/>
      <use x="257.373047" xlink:href="#DejaVuSans-65"/>
      <use x="318.880859" xlink:href="#DejaVuSans-78"/>
      <use x="378.060547" xlink:href="#DejaVuSans-69"/>
      <use x="405.84375" xlink:href="#DejaVuSans-74"/>
      <use x="445.052734" xlink:href="#DejaVuSans-79"/>
     </g>
    </g>
   </g>
   <g id="line2d_16">
    <path clip-path="url(#pcaa69d1efd)" d="M 73.832727 241.960597 
L 73.995136 295.444809 
L 75.131995 295.481661 
L 85.038912 295.488 
L 85.201321 177.937796 
L 85.526138 271.322007 
L 85.850955 291.411667 
L 86.175772 294.883755 
L 86.500588 295.396548 
L 87.150222 295.471635 
L 93.646561 295.48738 
L 93.971378 292.43841 
L 94.133787 295.379687 
L 94.296195 295.479165 
L 94.458604 291.83635 
L 94.621012 276.750103 
L 94.783421 279.935145 
L 94.945829 274.219095 
L 95.108238 273.288741 
L 95.270646 273.268161 
L 95.595463 268.055788 
L 95.757872 272.477394 
L 95.92028 267.992723 
L 96.407506 287.569016 
L 96.569914 293.018376 
L 96.894731 295.226921 
L 97.381956 251.11576 
L 97.544365 225.989511 
L 97.706773 245.66334 
L 97.869182 249.37754 
L 98.193999 252.124601 
L 98.356407 254.46159 
L 98.518816 255.136406 
L 98.681224 259.37465 
L 98.843633 253.936359 
L 99.16845 283.894897 
L 99.493267 292.291826 
L 99.818084 294.94512 
L 99.980492 262.486733 
L 100.467717 294.60799 
L 100.792534 295.35634 
L 101.27976 295.457444 
L 103.878296 295.484327 
L 112.648353 295.487937 
L 112.810762 281.137545 
L 112.97317 280.590002 
L 113.135579 281.083751 
L 113.460396 280.233378 
L 113.622804 277.612023 
L 113.785213 259.159339 
L 113.947621 261.2841 
L 114.11003 240.741593 
L 114.272438 263.295466 
L 114.434847 265.767185 
L 114.759663 266.568131 
L 115.08448 267.608558 
L 115.246889 268.212724 
L 115.409297 259.942963 
L 115.571706 265.233491 
L 115.734114 266.28197 
L 115.896523 268.305473 
L 116.058931 258.272691 
L 116.383748 210.075517 
L 116.708565 206.165924 
L 116.870974 206.588554 
L 117.033382 208.826701 
L 117.195791 143.619085 
L 117.358199 163.526841 
L 117.520608 160.783094 
L 117.683016 169.5282 
L 117.845425 149.902197 
L 118.007833 106.067084 
L 118.170241 119.132699 
L 118.33265 63.282472 
L 118.495058 66.950439 
L 118.819875 67.912092 
L 118.982284 58.068913 
L 119.144692 55.991834 
L 119.307101 56.003729 
L 119.469509 55.109343 
L 119.631918 56.00073 
L 119.794326 53.568 
L 119.956735 54.665152 
L 120.281552 68.510376 
L 120.606369 132.010938 
L 121.093594 291.594463 
L 121.418411 294.948037 
L 121.743228 295.316756 
L 122.392862 295.432627 
L 125.316214 295.467945 
L 132.624596 295.475788 
L 132.787004 279.815471 
L 132.949413 293.395357 
L 133.111821 295.428525 
L 133.761455 295.474734 
L 135.710357 295.478866 
L 135.872765 266.673326 
L 136.035174 263.989806 
L 136.197582 256.495956 
L 136.359991 255.18738 
L 136.684808 285.97268 
L 136.847216 292.612455 
L 137.009625 294.586413 
L 137.334442 295.354133 
L 137.821667 295.466799 
L 141.394654 295.482936 
L 151.788796 295.485723 
L 151.951205 282.643748 
L 152.113613 287.952549 
L 152.276022 187.462127 
L 152.43843 189.173912 
L 152.600839 240.922061 
L 152.925656 179.75132 
L 153.088064 209.086258 
L 153.412881 295.399883 
L 153.900106 295.481728 
L 154.062515 295.483583 
L 154.224923 192.677246 
L 154.387332 162.221291 
L 154.712149 185.552649 
L 154.874557 149.277138 
L 155.036966 218.908672 
L 155.199374 196.4628 
L 155.361783 192.90764 
L 155.524191 173.361666 
L 155.6866 194.063715 
L 155.849008 245.316803 
L 156.498642 294.800345 
L 156.823459 295.38318 
L 157.473093 295.461442 
L 162.832573 295.483281 
L 182.32159 295.4745 
L 182.483998 295.373556 
L 183.296041 295.464666 
L 184.270492 295.48063 
L 184.4329 288.441583 
L 184.595309 289.33445 
L 185.082534 284.870999 
L 185.244942 284.917347 
L 185.569759 288.581757 
L 186.056985 290.364733 
L 186.54421 291.283555 
L 186.706619 291.900906 
L 186.869027 291.617839 
L 187.031436 288.305483 
L 187.356253 291.811737 
L 187.843478 294.026481 
L 188.330704 295.113056 
L 188.493112 294.724834 
L 188.65552 294.829952 
L 188.980337 295.216963 
L 189.305154 295.351504 
L 190.117197 295.42625 
L 190.279605 294.392236 
L 190.442014 294.541729 
L 190.766831 295.019899 
L 191.254056 295.317108 
L 192.066099 295.447266 
L 192.553324 295.472029 
L 192.715732 292.302725 
L 192.878141 278.166007 
L 193.040549 278.994463 
L 193.202958 276.384923 
L 193.365366 275.963137 
L 193.527775 271.541716 
L 193.690183 261.084964 
L 194.015 256.01355 
L 194.177409 259.618307 
L 194.502226 248.295481 
L 194.664634 244.402046 
L 194.827043 248.057705 
L 194.989451 244.734389 
L 195.15186 245.462205 
L 195.314268 247.913766 
L 195.476677 239.559786 
L 195.639085 241.622358 
L 195.963902 255.61549 
L 196.12631 250.2754 
L 196.288719 231.994243 
L 196.613536 257.970604 
L 196.938353 288.669842 
L 197.26317 294.706324 
L 197.587987 295.357856 
L 198.075212 295.447645 
L 200.998565 295.47909 
L 208.95658 295.485357 
L 209.118989 294.080363 
L 209.281397 295.427295 
L 209.768622 295.484924 
L 218.213863 295.485214 
L 218.376272 291.913415 
L 218.53868 291.788024 
L 218.701089 292.228119 
L 219.188314 292.281714 
L 219.67554 292.408717 
L 219.837948 292.196507 
L 220.000357 292.187355 
L 220.162765 291.976831 
L 220.325173 292.070139 
L 220.487582 291.930057 
L 220.974807 290.875157 
L 221.137216 291.0303 
L 221.299624 290.872178 
L 221.78685 289.479017 
L 222.111667 289.928041 
L 222.274075 289.955565 
L 222.436484 289.706243 
L 222.598892 289.732674 
L 223.086118 288.723074 
L 223.410935 286.389442 
L 224.060568 280.94266 
L 224.222977 280.150576 
L 224.385385 279.954779 
L 224.547794 280.027672 
L 224.872611 277.144166 
L 225.035019 277.536363 
L 225.359836 275.526512 
L 225.522245 277.114509 
L 225.684653 275.104736 
L 226.00947 274.619002 
L 226.334287 277.430618 
L 226.496696 277.17415 
L 226.659104 276.64696 
L 226.821513 275.286993 
L 226.983921 275.429678 
L 227.14633 275.353788 
L 227.308738 274.747043 
L 227.471146 274.897709 
L 227.633555 276.159935 
L 227.795963 275.424798 
L 227.958372 275.379974 
L 228.12078 274.976618 
L 229.25764 279.070603 
L 229.582457 277.339794 
L 229.744865 276.13669 
L 229.907274 276.30973 
L 230.394499 278.952295 
L 230.719316 276.482742 
L 230.881724 273.074012 
L 231.044133 267.20098 
L 231.206541 266.339197 
L 231.36895 271.178582 
L 231.693767 272.513741 
L 231.856175 272.403782 
L 232.018584 271.926616 
L 232.180992 255.428591 
L 232.343401 251.084321 
L 232.505809 250.018705 
L 232.668218 248.028856 
L 232.830626 250.635534 
L 232.993035 250.205658 
L 233.317852 253.181634 
L 233.642669 250.130744 
L 233.805077 250.505144 
L 233.967486 253.199521 
L 234.129894 259.665337 
L 234.292303 259.405543 
L 234.617119 257.173978 
L 234.779528 256.734094 
L 234.941936 255.32716 
L 235.266753 273.168104 
L 235.429162 271.837978 
L 235.59157 268.367012 
L 235.753979 271.945393 
L 235.916387 270.940003 
L 236.241204 259.251753 
L 236.403613 257.204119 
L 236.566021 251.914332 
L 236.72843 250.871132 
L 236.890838 253.465818 
L 237.215655 251.669767 
L 237.378064 253.95836 
L 237.540472 265.990215 
L 237.865289 271.724038 
L 238.027697 270.073199 
L 238.190106 270.088538 
L 238.514923 272.509415 
L 238.677331 272.550611 
L 238.83974 262.526143 
L 239.002148 265.401403 
L 239.164557 271.862373 
L 239.326965 273.852351 
L 239.489374 272.674148 
L 239.651782 272.458141 
L 239.814191 269.169375 
L 239.976599 270.602458 
L 240.139008 255.693357 
L 240.301416 262.062125 
L 240.626233 259.956338 
L 240.95105 264.619286 
L 241.113459 261.988266 
L 241.438276 263.4809 
L 241.763092 261.493798 
L 241.925501 261.211573 
L 242.087909 261.874897 
L 242.250318 264.106393 
L 242.412726 263.977293 
L 242.575135 265.294179 
L 242.737543 265.019156 
L 242.899952 264.306506 
L 243.06236 260.829723 
L 243.224769 263.252509 
L 243.387177 262.338241 
L 243.549586 262.36792 
L 244.19922 267.674952 
L 244.361628 267.613789 
L 244.848854 261.779651 
L 245.011262 262.518506 
L 245.17367 261.32864 
L 245.336079 261.654334 
L 245.498487 262.412053 
L 245.660896 260.630886 
L 245.823304 260.389088 
L 245.985713 257.56941 
L 246.148121 248.46207 
L 246.31053 246.677358 
L 246.472938 250.465641 
L 246.635347 247.577035 
L 246.797755 246.925964 
L 246.960164 251.764639 
L 247.122572 248.585211 
L 247.772206 262.349789 
L 247.934615 263.326717 
L 248.097023 261.092177 
L 248.259432 253.904932 
L 248.584248 232.399783 
L 248.746657 233.160307 
L 248.909065 239.198083 
L 249.071474 238.370321 
L 249.233882 229.640915 
L 249.396291 232.868412 
L 249.558699 229.044428 
L 249.883516 233.135608 
L 250.045925 233.180636 
L 250.208333 235.500726 
L 250.370742 231.208316 
L 250.53315 234.698107 
L 250.695559 246.42492 
L 250.857967 246.502286 
L 251.020376 249.086179 
L 251.182784 244.995151 
L 251.345193 234.088138 
L 251.507601 238.716675 
L 251.67001 237.116875 
L 251.832418 228.840504 
L 252.157235 235.594858 
L 252.319643 236.101537 
L 252.482052 238.585371 
L 252.64446 238.140512 
L 252.806869 238.491545 
L 252.969277 244.51402 
L 253.131686 243.27885 
L 253.294094 239.775769 
L 253.456503 243.024169 
L 253.618911 249.118241 
L 254.106137 239.769345 
L 254.593362 250.704947 
L 254.755771 252.392563 
L 254.918179 252.422329 
L 255.405405 266.557356 
L 255.730221 265.695136 
L 255.89263 267.181276 
L 256.379855 257.591253 
L 256.542264 259.661457 
L 256.704672 259.306931 
L 257.029489 257.237842 
L 257.354306 266.023704 
L 257.516715 266.90438 
L 257.679123 266.906019 
L 257.841532 266.274557 
L 258.491166 262.201738 
L 258.653574 262.429582 
L 258.815983 260.212323 
L 258.978391 256.176876 
L 259.303208 238.286282 
L 260.11525 252.970239 
L 260.277659 244.27615 
L 260.440067 243.441985 
L 261.089701 251.264426 
L 261.25211 250.97137 
L 261.414518 253.495904 
L 261.576927 251.781832 
L 261.901744 239.933461 
L 262.064152 239.632993 
L 262.713786 258.01998 
L 262.876194 257.059115 
L 263.36342 249.330549 
L 263.525828 254.182211 
L 263.850645 255.288938 
L 264.013054 254.235981 
L 264.175462 255.192258 
L 264.337871 255.276822 
L 264.500279 252.807769 
L 264.662688 248.367774 
L 264.825096 250.54592 
L 264.987505 251.169274 
L 265.312322 247.415125 
L 265.637139 250.292337 
L 265.961956 244.748368 
L 266.449181 240.368545 
L 266.611589 240.496389 
L 266.773998 238.362487 
L 266.936406 238.099151 
L 267.098815 239.195814 
L 267.423632 232.358363 
L 267.58604 236.34475 
L 267.910857 248.938281 
L 268.073266 245.088472 
L 268.398083 250.926817 
L 268.885308 254.493465 
L 269.210125 255.207245 
L 269.534942 258.283465 
L 269.859759 254.466686 
L 270.022167 257.388913 
L 270.184576 262.611406 
L 270.346984 259.23078 
L 270.509393 251.770375 
L 270.671801 251.689768 
L 270.996618 260.216807 
L 271.321435 257.22076 
L 271.483844 258.032307 
L 271.646252 256.399318 
L 271.808661 256.526269 
L 271.971069 255.109643 
L 272.133478 251.856164 
L 272.295886 250.937941 
L 272.458295 246.092021 
L 272.620703 248.425535 
L 272.783112 247.451332 
L 272.94552 247.703501 
L 273.107929 248.84576 
L 273.432745 244.6651 
L 273.757562 252.983384 
L 273.919971 250.059092 
L 274.082379 249.864591 
L 274.244788 250.125969 
L 274.407196 251.276179 
L 274.569605 249.052701 
L 274.732013 248.773421 
L 274.894422 250.801856 
L 275.05683 239.5278 
L 275.219239 236.271342 
L 275.381647 246.947641 
L 275.544056 242.280282 
L 275.706464 231.356262 
L 275.868873 235.833601 
L 276.031281 235.807807 
L 276.19369 233.94025 
L 276.680915 223.7219 
L 276.843323 225.836038 
L 277.005732 225.917913 
L 277.330549 233.473102 
L 277.492957 229.518564 
L 277.655366 211.823065 
L 278.142591 227.081573 
L 278.305 225.121248 
L 278.467408 220.941679 
L 278.629817 220.686986 
L 278.792225 226.614789 
L 278.954634 227.883644 
L 279.279451 236.105694 
L 279.441859 232.324556 
L 279.604268 234.237697 
L 279.766676 229.509539 
L 280.091493 233.769152 
L 280.253901 233.417978 
L 280.41631 234.303457 
L 280.578718 232.270916 
L 280.741127 232.180053 
L 280.903535 219.195063 
L 281.065944 225.446632 
L 281.228352 218.778444 
L 281.390761 217.519693 
L 281.553169 218.854901 
L 281.715578 221.757347 
L 281.877986 221.420499 
L 282.040395 222.992845 
L 282.202803 222.861665 
L 282.365212 218.428442 
L 282.52762 218.120078 
L 282.690029 214.889621 
L 282.852437 216.794256 
L 283.014846 221.832638 
L 283.177254 222.743599 
L 283.339663 218.989847 
L 283.502071 217.90798 
L 283.66448 210.230523 
L 283.826888 213.998962 
L 284.151705 228.859552 
L 284.476522 224.463251 
L 284.63893 227.305129 
L 284.801339 217.817318 
L 284.963747 218.065457 
L 285.126156 224.042336 
L 285.288564 224.843121 
L 285.450973 228.288175 
L 285.613381 223.403902 
L 285.938198 229.913205 
L 286.100607 227.485717 
L 286.425424 228.755415 
L 286.587832 224.24592 
L 286.750241 224.696448 
L 286.912649 224.814228 
L 287.399874 210.351226 
L 287.562283 220.16806 
L 287.724691 214.30618 
L 287.8871 218.421771 
L 288.049508 216.900596 
L 288.211917 211.541545 
L 288.374325 211.092162 
L 288.536734 227.503821 
L 288.861551 234.305942 
L 289.023959 234.053994 
L 289.186368 234.301861 
L 289.348776 235.785528 
L 289.511185 234.47278 
L 289.99841 207.965789 
L 290.160819 209.197762 
L 290.323227 213.266579 
L 290.648044 213.325718 
L 290.810452 209.46244 
L 290.972861 209.558275 
L 291.135269 215.704882 
L 291.297678 209.790062 
L 291.460086 215.81154 
L 291.622495 211.760383 
L 291.784903 211.331265 
L 292.10972 225.752397 
L 292.272129 223.488496 
L 292.434537 224.48966 
L 292.596946 226.671285 
L 292.759354 223.658995 
L 292.921763 217.210307 
L 293.084171 215.66987 
L 293.733805 220.326923 
L 293.896214 220.618214 
L 294.058622 219.071245 
L 294.221031 219.340021 
L 294.708256 227.956566 
L 294.870664 219.475391 
L 295.033073 219.742001 
L 295.195481 217.964264 
L 295.520298 228.75835 
L 295.682707 224.871965 
L 295.845115 212.449146 
L 296.007524 219.742918 
L 296.169932 220.951891 
L 296.332341 219.484247 
L 296.819566 224.786292 
L 296.981975 219.593906 
L 297.144383 226.366774 
L 297.306792 227.595895 
L 297.4692 231.300571 
L 297.631609 231.517865 
L 297.956425 228.847927 
L 298.118834 230.957042 
L 298.281242 231.074204 
L 298.443651 229.120423 
L 298.606059 216.615658 
L 298.768468 216.24991 
L 298.930876 223.755825 
L 299.093285 223.219924 
L 299.255693 223.295516 
L 299.418102 222.536507 
L 299.58051 220.886326 
L 299.742919 226.102181 
L 299.905327 224.261248 
L 300.067736 224.205674 
L 300.392553 215.542777 
L 301.042187 231.146407 
L 301.204595 230.696236 
L 301.367004 222.347118 
L 301.69182 229.554683 
L 301.854229 229.595103 
L 302.179046 230.830255 
L 302.666271 217.745729 
L 302.991088 216.600371 
L 303.478314 221.34737 
L 303.640722 221.893847 
L 303.803131 218.608405 
L 303.965539 219.837726 
L 304.127948 227.803588 
L 304.290356 222.368672 
L 304.452765 230.330484 
L 304.615173 230.758506 
L 304.93999 227.312757 
L 305.102398 227.52175 
L 305.264807 228.431357 
L 305.427215 224.181594 
L 305.589624 237.313374 
L 305.752032 236.631238 
L 305.914441 234.584878 
L 306.076849 235.333257 
L 306.239258 234.811959 
L 306.401666 227.649003 
L 306.564075 231.836491 
L 306.726483 230.020187 
L 306.888892 233.060649 
L 307.213709 222.95434 
L 307.376117 223.945565 
L 308.025751 234.053664 
L 308.18816 236.253313 
L 308.350568 235.320495 
L 308.512976 229.14917 
L 308.675385 238.557542 
L 308.837793 227.108218 
L 309.16261 243.526977 
L 309.325019 243.643513 
L 309.487427 244.530639 
L 309.649836 243.902455 
L 309.974653 222.633509 
L 310.137061 226.011288 
L 310.29947 226.814497 
L 310.461878 223.343683 
L 310.624287 224.183725 
L 310.786695 212.343174 
L 311.111512 229.572067 
L 311.273921 235.467985 
L 311.598738 235.96829 
L 311.761146 229.251218 
L 311.923555 229.263759 
L 312.085963 229.390078 
L 312.248371 230.778284 
L 312.573188 237.070748 
L 312.735597 234.363622 
L 313.060414 233.281322 
L 313.222822 234.388672 
L 313.385231 230.367655 
L 314.034865 238.240102 
L 314.197273 236.754938 
L 314.52209 238.894052 
L 314.846907 234.155997 
L 315.009316 227.444299 
L 315.171724 230.736385 
L 315.334133 237.08141 
L 315.658949 229.532639 
L 315.983766 234.004451 
L 316.470992 235.503057 
L 316.6334 235.593366 
L 316.795809 233.543976 
L 316.958217 217.430125 
L 317.283034 210.972416 
L 317.445443 211.404007 
L 317.607851 210.879941 
L 317.77026 211.254493 
L 318.257485 200.051761 
L 318.582302 214.208226 
L 318.744711 212.937418 
L 318.907119 217.770781 
L 319.231936 214.623499 
L 319.394344 208.375566 
L 319.88157 218.83733 
L 320.043978 218.746535 
L 320.206387 214.313464 
L 320.368795 217.280566 
L 320.693612 214.957581 
L 321.180838 205.987872 
L 321.343246 207.199045 
L 321.830472 218.568257 
L 321.99288 220.943254 
L 322.317697 217.196012 
L 322.480106 216.405063 
L 322.642514 216.343047 
L 322.804922 218.723609 
L 322.967331 213.292169 
L 323.129739 214.106326 
L 323.292148 214.24806 
L 323.454556 213.398283 
L 323.616965 214.524618 
L 323.779373 212.925615 
L 324.10419 231.582377 
L 324.266599 230.5171 
L 324.429007 224.405304 
L 324.753824 230.178215 
L 324.916233 230.336447 
L 325.24105 227.519663 
L 325.565867 222.753982 
L 325.728275 222.691121 
L 325.890684 221.90992 
L 326.2155 232.595699 
L 326.377909 230.357953 
L 326.702726 230.48218 
L 326.865134 226.260503 
L 327.027543 225.760782 
L 327.189951 229.207161 
L 327.35236 229.747445 
L 327.514768 230.87236 
L 327.677177 230.784792 
L 328.001994 221.254302 
L 328.489219 218.602557 
L 328.651628 219.073397 
L 328.814036 218.120041 
L 328.976445 216.286621 
L 329.138853 217.162349 
L 329.301262 213.498124 
L 329.788487 222.935056 
L 330.113304 219.590117 
L 330.275712 222.697108 
L 330.438121 221.670347 
L 330.600529 216.505023 
L 330.762938 216.989981 
L 330.925346 216.196875 
L 331.087755 208.127483 
L 331.250163 207.569183 
L 331.412572 204.566498 
L 331.737389 212.389133 
L 331.899797 208.30192 
L 332.062206 216.605704 
L 332.224614 216.243164 
L 332.387023 218.666628 
L 332.549431 216.586203 
L 332.71184 206.366084 
L 332.874248 207.630425 
L 333.036657 211.15075 
L 333.199065 212.158547 
L 333.523882 230.53541 
L 333.68629 225.742121 
L 333.848699 227.503596 
L 334.173516 225.308324 
L 334.335924 230.118744 
L 334.498333 229.086855 
L 334.660741 232.843081 
L 334.985558 228.912419 
L 335.147967 231.815228 
L 335.310375 230.996443 
L 335.635192 232.500513 
L 335.797601 228.385616 
L 335.960009 233.870775 
L 336.284826 234.245601 
L 336.447235 240.883502 
L 336.609643 241.482556 
L 336.772051 240.611156 
L 336.93446 236.892543 
L 337.096868 237.908279 
L 337.259277 240.149834 
L 337.584094 241.184681 
L 337.908911 235.378057 
L 338.071319 230.913436 
L 338.233728 233.81497 
L 338.396136 232.534555 
L 338.558545 227.399382 
L 338.720953 230.906417 
L 338.883362 231.377658 
L 339.04577 225.269737 
L 339.208179 226.302106 
L 339.370587 226.012036 
L 339.532996 228.288244 
L 339.857813 221.563296 
L 340.020221 221.824387 
L 340.182629 221.719325 
L 340.345038 224.461161 
L 340.507446 223.056629 
L 340.669855 224.310288 
L 340.832263 224.162904 
L 341.15708 196.919401 
L 341.481897 206.262453 
L 341.644306 206.054466 
L 341.806714 207.737471 
L 341.969123 203.906813 
L 342.29394 221.243515 
L 342.456348 221.323282 
L 342.618757 216.518289 
L 342.781165 215.200726 
L 342.943574 209.495194 
L 343.105982 212.673234 
L 343.268391 225.344911 
L 343.430799 222.912241 
L 343.593208 230.204374 
L 343.755616 227.619972 
L 343.918024 214.304168 
L 344.080433 220.292704 
L 344.242841 221.317841 
L 344.567658 228.134529 
L 344.892475 225.179829 
L 345.054884 216.237063 
L 345.542109 213.461518 
L 345.866926 226.847505 
L 346.029335 227.813115 
L 346.191743 229.476033 
L 346.354152 229.527184 
L 346.51656 218.269711 
L 346.678969 215.320104 
L 346.841377 218.358252 
L 347.003786 217.767666 
L 347.166194 215.393339 
L 347.328602 216.907293 
L 347.653419 206.37372 
L 347.978236 203.289316 
L 348.140645 204.417201 
L 348.465462 197.270321 
L 348.62787 197.089862 
L 349.115096 188.274182 
L 349.277504 193.171275 
L 349.439913 205.510753 
L 349.602321 202.748249 
L 349.76473 203.856772 
L 349.927138 187.551304 
L 350.089547 189.026664 
L 350.251955 185.749586 
L 350.414364 188.708259 
L 350.576772 184.127431 
L 350.73918 186.591515 
L 350.901589 186.521834 
L 351.226406 198.446618 
L 351.388814 193.661582 
L 352.363265 204.108106 
L 352.688082 200.599154 
L 352.850491 202.506248 
L 353.012899 206.724734 
L 353.175308 205.646829 
L 353.500125 209.200705 
L 353.662533 208.462303 
L 353.824942 208.798543 
L 354.149759 217.318453 
L 354.312167 215.061283 
L 354.474575 215.682961 
L 354.636984 215.389015 
L 354.799392 215.49645 
L 355.124209 222.749146 
L 355.286618 223.664307 
L 355.449026 225.86036 
L 355.936252 209.447963 
L 356.09866 210.01438 
L 356.261069 212.198531 
L 356.423477 211.76203 
L 356.585886 214.409978 
L 356.910703 194.887425 
L 357.073111 199.651884 
L 357.23552 197.080705 
L 357.397928 207.137278 
L 357.560337 209.996053 
L 357.722745 210.266484 
L 358.047562 209.71713 
L 358.372379 211.430552 
L 358.534787 211.136203 
L 358.697196 211.603803 
L 358.859604 211.33271 
L 359.184421 211.915004 
L 359.34683 213.15421 
L 360.158872 210.941066 
L 360.321281 209.842476 
L 360.483689 210.204691 
L 361.295732 213.36232 
L 361.620548 212.430088 
L 361.945365 212.199258 
L 362.270182 211.985192 
L 362.432591 212.154585 
L 362.757408 211.495877 
L 363.244633 209.373389 
L 363.407042 209.332671 
L 363.56945 209.767711 
L 363.731859 209.429662 
L 363.894267 209.612035 
L 364.056676 209.249438 
L 364.219084 209.398495 
L 364.381493 208.915557 
L 364.543901 208.795267 
L 364.868718 209.185389 
L 365.031126 208.216637 
L 365.355943 208.283543 
L 365.518352 208.120101 
L 365.68076 208.495084 
L 366.005577 207.724542 
L 366.330394 207.862271 
L 366.492803 208.284335 
L 366.655211 208.16577 
L 366.81762 208.304023 
L 366.980028 208.186883 
L 367.142437 208.363911 
L 367.304845 208.175993 
L 367.467254 207.606007 
L 367.629662 207.938161 
L 367.792071 207.825784 
L 367.954479 207.862327 
L 368.116888 207.682805 
L 368.441704 206.950938 
L 368.604113 207.279382 
L 368.766521 207.212426 
L 369.091338 206.886261 
L 369.253747 207.146905 
L 369.416155 207.020285 
L 369.578564 206.73393 
L 369.740972 207.229945 
L 369.903381 207.090557 
L 370.228198 207.23078 
L 370.553015 207.261706 
L 370.715423 207.58936 
L 371.527466 207.43322 
L 371.689874 207.428825 
L 372.014691 207.837089 
L 372.177099 207.608753 
L 372.339508 207.858866 
L 372.501916 207.381604 
L 372.664325 207.518069 
L 372.826733 207.49906 
L 372.989142 207.847713 
L 373.15155 207.476602 
L 373.313959 207.473822 
L 373.476367 207.789393 
L 373.638776 207.467676 
L 373.963593 207.669355 
L 374.126001 207.482939 
L 374.28841 207.743472 
L 374.613227 207.642268 
L 374.938044 207.793668 
L 375.262861 207.644129 
L 375.425269 207.755035 
L 375.750086 207.635019 
L 375.912494 207.721691 
L 376.074903 207.674866 
L 376.237311 207.75762 
L 376.39972 207.407373 
L 376.562128 207.570745 
L 376.724537 207.397745 
L 376.886945 207.796109 
L 377.211762 207.155607 
L 377.374171 207.37221 
L 377.861396 207.346481 
L 378.186213 207.109541 
L 378.348622 207.35983 
L 378.673439 207.234399 
L 378.835847 207.542309 
L 379.160664 207.386038 
L 379.323072 207.769008 
L 379.485481 207.565621 
L 379.810298 207.738435 
L 380.135115 207.290629 
L 380.459932 207.687639 
L 380.62234 207.869525 
L 380.784749 207.694935 
L 381.271974 207.854674 
L 381.596791 207.656518 
L 381.7592 207.826977 
L 381.921608 207.489254 
L 382.246425 207.736195 
L 382.408834 207.782364 
L 382.571242 207.486589 
L 382.73365 207.575462 
L 383.058467 207.894109 
L 383.220876 207.560721 
L 383.383284 207.699708 
L 383.545693 207.301438 
L 383.708101 207.349339 
L 383.87051 207.231951 
L 384.032918 207.280024 
L 384.195327 207.545494 
L 384.357735 207.399926 
L 384.520144 207.412552 
L 384.844961 207.15335 
L 385.007369 207.40119 
L 385.332186 207.418623 
L 385.494595 207.717703 
L 385.657003 207.327472 
L 385.819412 207.3027 
L 385.98182 207.066815 
L 386.144228 207.346815 
L 386.306637 207.272137 
L 386.631454 207.390485 
L 386.793862 207.313281 
L 386.956271 207.47951 
L 387.443496 206.884723 
L 387.605905 207.043147 
L 387.768313 206.816928 
L 388.09313 207.115673 
L 388.255539 206.887351 
L 388.580356 207.04728 
L 388.742764 206.836908 
L 389.067581 207.085045 
L 389.22999 207.03254 
L 389.392398 206.699002 
L 389.554806 206.918942 
L 389.879623 206.813878 
L 390.042032 206.436306 
L 390.529257 206.771423 
L 390.691666 206.412253 
L 390.854074 206.875726 
L 391.178891 206.788485 
L 391.3413 206.758699 
L 391.503708 206.488619 
L 391.666117 206.761533 
L 392.478159 206.507975 
L 393.127793 206.701468 
L 393.290201 206.74624 
L 393.45261 207.128827 
L 393.615018 207.09793 
L 393.777427 206.864388 
L 393.939835 207.1381 
L 394.264652 207.008194 
L 394.427061 206.681449 
L 394.751878 206.9801 
L 395.076695 206.779318 
L 395.56392 207.036568 
L 395.726329 207.275396 
L 396.051146 207.288292 
L 396.213554 207.50403 
L 396.375963 207.317478 
L 396.538371 207.48864 
L 397.188005 207.129129 
L 397.512822 207.346826 
L 397.837639 207.072251 
L 398.324864 207.334262 
L 398.487273 206.784647 
L 398.487273 206.784647 
" style="fill:none;stroke:#1f77b4;stroke-linecap:square;stroke-width:1.5;"/>
   </g>
   <g id="patch_3">
    <path d="M 57.6 307.584 
L 57.6 41.472 
" style="fill:none;stroke:#000000;stroke-linecap:square;stroke-linejoin:miter;stroke-width:0.8;"/>
   </g>
   <g id="patch_4">
    <path d="M 414.72 307.584 
L 414.72 41.472 
" style="fill:none;stroke:#000000;stroke-linecap:square;stroke-linejoin:miter;stroke-width:0.8;"/>
   </g>
   <g id="patch_5">
    <path d="M 57.6 307.584 
L 414.72 307.584 
" style="fill:none;stroke:#000000;stroke-linecap:square;stroke-linejoin:miter;stroke-width:0.8;"/>
   </g>
   <g id="patch_6">
    <path d="M 57.6 41.472 
L 414.72 41.472 
" style="fill:none;stroke:#000000;stroke-linecap:square;stroke-linejoin:miter;stroke-width:0.8;"/>
   </g>
   <g id="text_18">
    <!-- model perplexity -->
    <defs>
     <path d="M 52 44.1875 
Q 55.375 50.25 60.0625 53.125 
Q 64.75 56 71.09375 56 
Q 79.640625 56 84.28125 50.015625 
Q 88.921875 44.046875 88.921875 33.015625 
L 88.921875 0 
L 79.890625 0 
L 79.890625 32.71875 
Q 79.890625 40.578125 77.09375 44.375 
Q 74.3125 48.1875 68.609375 48.1875 
Q 61.625 48.1875 57.5625 43.546875 
Q 53.515625 38.921875 53.515625 30.90625 
L 53.515625 0 
L 44.484375 0 
L 44.484375 32.71875 
Q 44.484375 40.625 41.703125 44.40625 
Q 38.921875 48.1875 33.109375 48.1875 
Q 26.21875 48.1875 22.15625 43.53125 
Q 18.109375 38.875 18.109375 30.90625 
L 18.109375 0 
L 9.078125 0 
L 9.078125 54.6875 
L 18.109375 54.6875 
L 18.109375 46.1875 
Q 21.1875 51.21875 25.484375 53.609375 
Q 29.78125 56 35.6875 56 
Q 41.65625 56 45.828125 52.96875 
Q 50 49.953125 52 44.1875 
z
" id="DejaVuSans-6d"/>
     <path d="M 45.40625 46.390625 
L 45.40625 75.984375 
L 54.390625 75.984375 
L 54.390625 0 
L 45.40625 0 
L 45.40625 8.203125 
Q 42.578125 3.328125 38.25 0.953125 
Q 33.9375 -1.421875 27.875 -1.421875 
Q 17.96875 -1.421875 11.734375 6.484375 
Q 5.515625 14.40625 5.515625 27.296875 
Q 5.515625 40.1875 11.734375 48.09375 
Q 17.96875 56 27.875 56 
Q 33.9375 56 38.25 53.625 
Q 42.578125 51.265625 45.40625 46.390625 
z
M 14.796875 27.296875 
Q 14.796875 17.390625 18.875 11.75 
Q 22.953125 6.109375 30.078125 6.109375 
Q 37.203125 6.109375 41.296875 11.75 
Q 45.40625 17.390625 45.40625 27.296875 
Q 45.40625 37.203125 41.296875 42.84375 
Q 37.203125 48.484375 30.078125 48.484375 
Q 22.953125 48.484375 18.875 42.84375 
Q 14.796875 37.203125 14.796875 27.296875 
z
" id="DejaVuSans-64"/>
     <path id="DejaVuSans-20"/>
    </defs>
    <g transform="translate(185.31375 35.472)scale(0.12 -0.12)">
     <use xlink:href="#DejaVuSans-6d"/>
     <use x="97.412109" xlink:href="#DejaVuSans-6f"/>
     <use x="158.59375" xlink:href="#DejaVuSans-64"/>
     <use x="222.070312" xlink:href="#DejaVuSans-65"/>
     <use x="283.59375" xlink:href="#DejaVuSans-6c"/>
     <use x="311.376953" xlink:href="#DejaVuSans-20"/>
     <use x="343.164062" xlink:href="#DejaVuSans-70"/>
     <use x="406.640625" xlink:href="#DejaVuSans-65"/>
     <use x="468.164062" xlink:href="#DejaVuSans-72"/>
     <use x="509.277344" xlink:href="#DejaVuSans-70"/>
     <use x="572.753906" xlink:href="#DejaVuSans-6c"/>
     <use x="600.537109" xlink:href="#DejaVuSans-65"/>
     <use x="662.044922" xlink:href="#DejaVuSans-78"/>
     <use x="721.224609" xlink:href="#DejaVuSans-69"/>
     <use x="749.007812" xlink:href="#DejaVuSans-74"/>
     <use x="788.216797" xlink:href="#DejaVuSans-79"/>
    </g>
   </g>
  </g>
 </g>
 <defs>
  <clipPath id="pcaa69d1efd">
   <rect height="266.112" width="357.12" x="57.6" y="41.472"/>
  </clipPath>
 </defs>
</svg>
